SplineFontDB: 3.2
FontName: SimonCani
FullName: SimonCani
FamilyName: SimonCani
Weight: Regular
Copyright: Copyright (c) 2024, Giancarlo Antonino Antonucci
Version: 0.001
ItalicAngle: 0
UnderlinePosition: -100
UnderlineWidth: 50
Ascent: 800
Descent: 200
InvalidEm: 0
sfntRevision: 0x00000041
LayerCount: 3
Layer: 0 0 "Back" 1
Layer: 1 0 "Fore" 0
Layer: 2 0 "TMP" 1
XUID: [1021 1001 -774976532 2538699]
StyleMap: 0x0000
FSType: 0
OS2Version: 4
OS2_WeightWidthSlopeOnly: 0
OS2_UseTypoMetrics: 1
CreationTime: 1708549708
ModificationTime: 1722439950
PfmFamily: 17
TTFWeight: 400
TTFWidth: 5
LineGap: 90
VLineGap: 0
Panose: 2 0 5 3 0 0 0 0 0 0
OS2TypoAscent: 800
OS2TypoAOffset: 0
OS2TypoDescent: -200
OS2TypoDOffset: 0
OS2TypoLinegap: 90
OS2WinAscent: 796
OS2WinAOffset: 0
OS2WinDescent: 292
OS2WinDOffset: 0
HheadAscent: 796
HheadAOffset: 0
HheadDescent: -292
HheadDOffset: 0
OS2SubXSize: 650
OS2SubYSize: 700
OS2SubXOff: 0
OS2SubYOff: 140
OS2SupXSize: 650
OS2SupYSize: 700
OS2SupXOff: 0
OS2SupYOff: 480
OS2StrikeYSize: 49
OS2StrikeYPos: 258
OS2CapHeight: 668
OS2XHeight: 412
OS2Vendor: 'PfEd'
OS2CodePages: 00000001.00000000
OS2UnicodeRanges: a00002ff.12000041.00000000.00000000
Lookup: 4 0 1 "'liga' Standard Ligatures lookup 0" { "'liga' Standard Ligatures lookup 0 subtable"  } ['liga' ('DFLT' <'dflt' > 'cyrl' <'dflt' > 'grek' <'dflt' > 'latn' <'dflt' > ) ]
Lookup: 257 0 0 "lookup1" { "lookup1-1"  } []
Lookup: 263 0 0 "'kern' Horizontal Kerning lookup 2" { "'kern' Horizontal Kerning lookup 2-1"  } ['kern' ('DFLT' <'dflt' > 'cyrl' <'dflt' > 'grek' <'dflt' > 'latn' <'dflt' > ) ]
Lookup: 260 0 0 "'mark' Mark Positioning lookup 0" { "'mark' Mark Positioning lookup 0 subtable"  } ['mark' ('DFLT' <'dflt' > 'cyrl' <'dflt' > 'latn' <'dflt' > ) ]
MarkAttachClasses: 1
DEI: 91125
ContextPos2: class "'kern' Horizontal Kerning lookup 2-1" 2 2 2 1
  Class: 0 
  BClass: 0 
  FClass: 0 
 1 0 0
  ClsList: 1
  BClsList:
  FClsList:
 1
  SeqLookup: 0 "'mark' Mark Positioning lookup 0"

StartChar: .notdef
Encoding: 341 -1 0
Width: 500
GlyphClass: 1
Flags: W
HStem: 0 20<60 440> 647 20<60 440>
VStem: 40 20<20 647> 440 20<20 647>
LayerCount: 3
Fore
SplineSet
60 647 m 1
 60 20 l 1
 440 20 l 1
 440 647 l 1
 60 647 l 1
40 667 m 1
 460 667 l 1
 460 0 l 1
 40 0 l 1
 40 667 l 1
EndSplineSet
Validated: 1
EndChar

StartChar: null
Encoding: 0 0 1
Width: 500
GlyphClass: 2
Flags: W
HStem: 0 20<60 440> 647 20<60 440>
VStem: 40 20<20 647> 440 20<20 647>
LayerCount: 3
Fore
SplineSet
60 647 m 1
 60 20 l 1
 440 20 l 1
 440 647 l 1
 60 647 l 1
40 667 m 1
 460 667 l 1
 460 0 l 1
 40 0 l 1
 40 667 l 1
EndSplineSet
Validated: 1
EndChar

StartChar: exclam
Encoding: 2 33 3
Width: 235
GlyphClass: 2
Flags: W
HStem: -14 114<66.2413 155.481> 625 20G<94.6665 127.333>
VStem: 55 112<-2.48534 88.7878> 62 97.998<360.969 641.455>
LayerCount: 3
Fore
SplineSet
111 645 m 0xd0
 143.666992188 645 159.998046875 634.999023438 159.998046875 614.999023438 c 0
 159.998046875 605.666015625 157.665039062 576.333007812 152.998046875 527 c 2
 123.998046875 205 l 1
 120.665039062 201.666992188 116.33203125 200 110.999023438 200 c 0
 105.666015625 200 101.333007812 201.666992188 98 205 c 1
 69 527 l 2
 64.3330078125 575.666992188 62 605 62 615 c 0
 62 635 78.3330078125 645 111 645 c 0xd0
167 41 m 0xe0
 167 4.9921875 140.588867188 -14 111 -14 c 0
 86.43359375 -14 55 2.9658203125 55 41 c 0
 55 75.31640625 76.8984375 100 111 100 c 0
 146.521484375 100 167 72.4560546875 167 41 c 0xe0
EndSplineSet
Validated: 524289
EndChar

StartChar: quote
Encoding: 3 34 4
Width: 320
GlyphClass: 2
Flags: W
VStem: 40 86<532.5 696.83> 71 24<470.148 518.077> 200 86<532.5 696.83> 231 24<470.148 518.077>
LayerCount: 3
Fore
SplineSet
200 674 m 0x20
 200 692.348632812 207.689453125 698 243 698 c 0
 278.311523438 698 286 692.348632812 286 674 c 0x20
 286 671.333007812 284.333007812 658.333007812 281 635 c 2
 255 475 l 1
 247 467 239 467 231 475 c 1x10
 205 635 l 2
 201.666992188 658.333007812 200 671.333007812 200 674 c 0x20
40 674 m 0x80
 40 692.348632812 47.689453125 698 83 698 c 0
 118.311523438 698 126 692.348632812 126 674 c 0x80
 126 671.333007812 124.333007812 658.333007812 121 635 c 2
 95 475 l 1
 87 467 79 467 71 475 c 1x40
 45 635 l 2
 41.6669921875 658.333007812 40 671.333007812 40 674 c 0x80
EndSplineSet
Validated: 524289
EndChar

StartChar: numbersign
Encoding: 4 35 5
Width: 515
GlyphClass: 2
Flags: W
HStem: 190 50<24 120 173 278 332 416> 402 49<80 176 231 334 390 478> 603 20G<228.767 277 386.767 436>
LayerCount: 3
Fore
SplineSet
478 402 m 1
 376 402 l 1
 332 240 l 1
 431 240 l 1
 416 190 l 1
 318 190 l 1
 267 3 l 1
 228 3 l 1
 278 190 l 1
 159 190 l 1
 108 3 l 1
 70 3 l 1
 120 190 l 1
 9 190 l 1
 24 240 l 1
 133 240 l 1
 176 402 l 1
 64 402 l 1
 80 451 l 1
 189 451 l 1
 234 623 l 1
 277 623 l 1
 231 451 l 1
 347 451 l 1
 392 623 l 1
 436 623 l 1
 390 451 l 1
 491 451 l 1
 478 402 l 1
334 402 m 1
 217 402 l 1
 173 240 l 1
 291 240 l 1
 334 402 l 1
EndSplineSet
Validated: 1
EndChar

StartChar: dollar
Encoding: 5 36 6
Width: 470
GlyphClass: 2
Flags: W
HStem: -3.99902 39.999<136.184 206.999 248.999 308.498> 607 35.001<249 308.738>
VStem: 43.4397 64.8379<447.301 560.197> 207 41.999<-123.858 -3.99902 36 277 384.001 603.001 643.001 744.902> 357.515 71.4403<79.8181 198.336>
LayerCount: 3
Fore
SplineSet
248.999023438 36 m 1
 273.58064894 39.0098222558 357.515267878 54.7731279163 357.515267878 130.382170481 c 0
 357.515267878 174.449635725 331.830413626 225.839435472 248.999023438 277 c 1
 248.999023438 36 l 1
206.999023438 603.000976562 m 1
 147.192364164 591.273543647 108.277642809 552.357128954 108.277642809 506.317622961 c 0
 108.277642809 466.549355621 137.312918529 421.466366432 206.999023438 384.000976562 c 1
 206.999023438 603.000976562 l 1
50.2082334001 172.35660309 m 0
 64.8962055 172.35660309 88.3428789035 40.1109777328 202 34.0009765625 c 1
 207 34.0009765625 l 1
 207 301.000976562 l 1
 168 319.000976562 l 1
 83.5083601454 361.24679649 43.4396964319 429.994785168 43.4396964319 493.391536084 c 0
 43.4396964319 567.802277375 98.640083038 634.840913736 202 643.000976562 c 1
 207 643.000976562 l 1
 207 740.000976562 l 1
 213.666992188 743.333984375 222 745.000976562 232 745.000976562 c 0
 242 745.000976562 247.666992188 743.333984375 249 740.000976562 c 1
 249 642.000976562 l 1
 258 642.000976562 l 2
 258.978515625 641.805664062 344.7109375 625.509765625 356 623.000976562 c 1
 372.441921334 590.118437463 383.329519052 548.679943093 383.329519052 523.979281302 c 0
 383.329519052 515.489434299 381.950597346 502.580446111 373.563999565 502.580446111 c 0
 351.746634514 502.580446111 345.739408916 607 255 607 c 2
 249 607 l 1
 248.999023438 362.000976562 l 1
 287.999023438 343.000976562 l 1
 393.547662436 289.829335033 428.955584955 220.932491159 428.955584955 160.08179009 c 0
 428.955584955 100.280565452 390.579719455 0.972783008674 257.999023438 -3.9990234375 c 1
 248.999023438 -3.9990234375 l 1
 248.999023438 -119.999023438 l 1
 239.332519531 -122.665527344 230.999267578 -123.998779297 223.999267578 -123.998779297 c 0
 216.999267578 -123.998779297 211.332519531 -122.665527344 206.999023438 -119.999023438 c 1
 206.999023438 -1.9990234375 l 1
 201.999023438 -1.9990234375 l 1
 150.666015625 4.0009765625 108.999023438 16.0009765625 76.9990234375 34.0009765625 c 1
 60.4726189923 53.0690125375 42.6406687576 116.50623205 42.6406687576 150.242521601 c 0
 42.6406687576 154.004094688 43.9868651521 172.35660309 50.2082334001 172.35660309 c 0
EndSplineSet
Validated: 524289
EndChar

StartChar: percent
Encoding: 6 37 7
Width: 692
GlyphClass: 2
Flags: W
HStem: -15 35<470.355 563.942> 192 35<127.355 220.942> 208 34<470.203 561.773> 415 34<127.203 218.773>
VStem: 40 56<254.483 388.444> 252 56<254.258 387.643> 383 56<47.4825 181.444> 595 56<47.2583 180.643>
LayerCount: 3
Fore
SplineSet
595 113 m 0xbf
 595 161.05859375 568.078125 208 517 208 c 0
 474.0078125 208 439 173.805664062 439 113 c 0
 439 58.1455078125 473.528320312 20 517 20 c 0
 561.859375 20 595 56.9892578125 595 113 c 0xbf
383 113 m 0
 383 199.211914062 448.264648438 242 517 242 c 0
 585.741210938 242 651 199.20703125 651 113 c 0
 651 25.83984375 584.493164062 -15 517 -15 c 0
 449.502929688 -15 383 25.84375 383 113 c 0
252 320 m 0
 252 368.05859375 225.078125 415 174 415 c 0
 131.0078125 415 96 380.805664062 96 320 c 0
 96 265.145507812 130.528320312 227 174 227 c 0xdf
 218.859375 227 252 263.989257812 252 320 c 0
40 320 m 0
 40 406.211914062 105.264648438 449 174 449 c 0
 242.741210938 449 308 406.20703125 308 320 c 0
 308 232.83984375 241.493164062 192 174 192 c 0
 106.502929688 192 40 232.84375 40 320 c 0
506 438 m 1
 225 -28 l 1
 205 -28 195 -20.6669921875 195 -6 c 1
 473 455 l 1
 474.269660517 455.126938153 475.518164956 455.190408073 476.745513317 455.190408073 c 0
 488.406842734 455.190408073 498.158338295 449.46075425 506 438 c 1
EndSplineSet
Validated: 524289
EndChar

StartChar: ampersand
Encoding: 7 38 8
Width: 829
GlyphClass: 2
Flags: W
HStem: -14 51.999<203.422 350.634> -14 42.999<617.462 735.848> 460.999 16<566.003 582.428 766.001 788.27> 614.999 23.001<241.767 314.987>
VStem: 63 66.999<111.769 250.459> 149 55.999<471.353 578.826> 348.999 57<461.619 589.576>
LayerCount: 3
Fore
SplineSet
276.999023438 614.999023438 m 0x3e
 241.203125 614.999023438 206.408203125 580.729492188 204.999023438 529.999023438 c 0
 206.057617188 489.762695312 218.013671875 467.443359375 291.999023438 416.999023438 c 1
 329.999023438 446.33203125 348.999023438 483.33203125 348.999023438 527.999023438 c 0
 348.999023438 533.884765625 347.716796875 614.999023438 276.999023438 614.999023438 c 0x3e
129.999023438 188.998046875 m 0
 129.999023438 113.306640625 188.247070312 37.9990234375 285.999023438 37.9990234375 c 0xbe
 347.999023438 37.9990234375 404.999023438 68.666015625 456.999023438 129.999023438 c 1
 420.228515625 210.10546875 326.01953125 321.385742188 249.999023438 366.998046875 c 1
 169.999023438 316.998046875 129.999023438 257.665039062 129.999023438 188.998046875 c 0
281 638 m 0
 354.760742188 638 405.999023438 587.790039062 405.999023438 522.998046875 c 0
 405.999023438 478.998046875 374.999023438 438.665039062 312.999023438 401.998046875 c 1
 391.666015625 342.665039062 454.666015625 272.665039062 501.999023438 191.998046875 c 1
 540.666015625 247.331054688 575.666015625 308.331054688 606.999023438 374.998046875 c 0
 621.666015625 407.665039062 628.999023438 429.33203125 628.999023438 439.999023438 c 0
 628.999023438 445.999023438 620.33203125 450.666015625 602.999023438 453.999023438 c 2
 566.999023438 460.999023438 l 1
 562.33203125 466.999023438 562.999023438 472.33203125 568.999023438 476.999023438 c 1
 644.999023438 476.999023438 l 2
 703.666015625 476.999023438 750.333007812 478.33203125 785 480.999023438 c 1
 789.666992188 476.33203125 790.333984375 470.999023438 787.000976562 464.999023438 c 1
 731.000976562 452.999023438 l 1
 697.431640625 443.9609375 693.203125 442.822265625 631.000976562 339.999023438 c 0
 595.000976562 281.999023438 557.000976562 224.999023438 517.000976562 168.999023438 c 0
 517.708007812 167.583984375 565.650390625 78.078125 619.5 48.4990234375 c 0
 643.166992188 35.4990234375 667 28.9990234375 691 28.9990234375 c 0
 730.333007812 28.9990234375 762 41.666015625 786 66.9990234375 c 1
 793.333007812 65.666015625 796.333007812 60.3330078125 795 51 c 1
 753.666992188 7.6669921875 702.333984375 -14 641.000976562 -14 c 0x7e
 594.333984375 -14 559.000976562 -5 535.000976562 13 c 0
 514.247070312 30.5615234375 478.571289062 99.4296875 471.000976562 107 c 1
 404.333984375 26.3330078125 332.666992188 -14 256 -14 c 0
 192.666992188 -14 144.666992188 4.5 112 41.5 c 0
 79.3330078125 78.5 63 120.333007812 63 167 c 0
 63 247 118 319.333007812 228 384 c 1
 175.333007812 420.666992188 149 461.666992188 149 507 c 0
 149 587.311523438 216.151367188 638 281 638 c 0
EndSplineSet
Validated: 524289
EndChar

StartChar: apostrophe
Encoding: 8 39 9
Width: 177
GlyphClass: 2
Flags: W
VStem: 46 86<532.5 696.893> 77 24<470.148 518.077>
LayerCount: 3
Fore
SplineSet
46 678.008917569 m 0x80
 46 692.3515625 53.6943359375 698 88.9984132336 698 c 0
 124.30859375 698 132 692.349609375 132 678.009164609 c 0x80
 132 671.333007812 130.333007812 658.333007812 127 635 c 2
 101 475 l 1
 93 467 85 467 77 475 c 1x40
 51 635 l 2
 47.6669921875 658.333007812 46 671.333007812 46 678.008917569 c 0x80
EndSplineSet
Validated: 524289
EndChar

StartChar: parenleft
Encoding: 9 40 10
Width: 335
GlyphClass: 2
Flags: W
VStem: 81 66.001<113.951 426.509>
LayerCount: 3
Fore
SplineSet
81 269 m 0
 81 323.7265625 92.0146484375 573.139648438 287.000976562 701 c 1
 296.333984375 700.333007812 301.000976562 695.666015625 301.000976562 686.999023438 c 1
 198.333984375 578.999023438 147.000976562 439.666015625 147.000976562 268.999023438 c 0
 147.000976562 98.9990234375 198.333984375 -40.0009765625 301.000976562 -148.000976562 c 1
 301.000976562 -157.333984375 296.333984375 -162.333984375 287.000976562 -163.000976562 c 1
 245.141601562 -133.69921875 140.875976562 -54.0234375 96.5 133.499023438 c 0
 86.1669921875 177.166015625 81 222.333007812 81 269 c 0
EndSplineSet
Validated: 524289
EndChar

StartChar: parenright
Encoding: 10 41 11
Width: 335
GlyphClass: 2
Flags: W
VStem: 174 66<110.938 430.087>
LayerCount: 3
Fore
SplineSet
20 -148 m 1
 111.8984375 -52.42578125 174 81.5537109375 174 269 c 0
 174 432.352539062 130.038085938 568.331054688 20 687 c 1
 20 695.666992188 24.6669921875 700.333984375 34 701.000976562 c 1
 163.388671875 617.524414062 240 448.704101562 240 269.000976562 c 0
 240 101.97265625 169.698242188 -70.609375 34 -163 c 1
 24.6669921875 -162.333007812 20 -157.333007812 20 -148 c 1
EndSplineSet
Validated: 524289
EndChar

StartChar: asterisk
Encoding: 11 42 12
Width: 340
GlyphClass: 2
Flags: W
HStem: 403 21G<19.8237 61.75 277.25 321.811>
VStem: 158 24<334.001 420.091 587.909 674.291>
LayerCount: 3
Fore
SplineSet
182 670 m 1
 192 541 l 1
 317 603 l 1
 326.482421875 603 333.079101562 591.518554688 329 582 c 1
 214 502 l 1
 328 424 l 1
 331.701171875 417.831054688 327.62109375 405.905273438 316 403 c 1
 192 467 l 1
 182 338 l 1
 179.333007812 335.333007812 175.333007812 334 170 334 c 0
 164.666992188 334 160.666992188 335.333007812 158 338 c 1
 147 467 l 1
 23 403 l 1
 16.6474609375 405.1171875 7.8994140625 413.149414062 11 424 c 1
 125 502 l 1
 10 582 l 1
 6.9912109375 595.541015625 15.1376953125 603 22 603 c 1
 147 541 l 1
 158 670 l 1
 165.333007812 677.333007812 173.333007812 677.333007812 182 670 c 1
EndSplineSet
Validated: 524289
EndChar

StartChar: plus
Encoding: 12 43 13
Width: 515
GlyphClass: 2
Flags: W
HStem: 0 21G<221 280> 181 48<58 221 280 443>
VStem: 221 59<0 181 229 393>
LayerCount: 3
Fore
SplineSet
280 0 m 1
 221 0 l 1
 221 181 l 1
 58 181 l 1
 58 229 l 1
 221 229 l 1
 221 393 l 1
 280 393 l 1
 280 229 l 1
 443 229 l 1
 443 181 l 1
 280 181 l 1
 280 0 l 1
EndSplineSet
Validated: 1
EndChar

StartChar: comma
Encoding: 13 44 14
Width: 265
GlyphClass: 2
Flags: W
HStem: -121 24<56.4116 86.2325>
VStem: 139 54<-51.1432 31.1689>
LayerCount: 3
Fore
SplineSet
65 77 m 0
 65 98.029296875 78.7802734375 122 114 122 c 0
 140.711914062 122 193 98.560546875 193 24 c 0
 193 -46.6669921875 149.666992188 -95 63 -121 c 1
 54.9853515625 -116.9921875 50.0283203125 -101.182617188 57 -97 c 0
 111.666992188 -79.6669921875 139 -51 139 -11 c 0
 139 53.755859375 65 28.322265625 65 77 c 0
EndSplineSet
Validated: 524289
EndChar

StartChar: hyphen
Encoding: 14 45 15
Width: 210
GlyphClass: 2
Flags: W
HStem: 181 48<10 181>
VStem: 10 171<181 229>
LayerCount: 3
Fore
SplineSet
181 181 m 1
 10 181 l 1
 10 229 l 1
 181 229 l 1
 181 181 l 1
EndSplineSet
Validated: 1
EndChar

StartChar: period
Encoding: 15 46 16
Width: 265
GlyphClass: 2
Flags: W
HStem: -14 114<81.2413 170.481>
VStem: 70 112<-2.48534 88.7878>
LayerCount: 3
Fore
SplineSet
182 41 m 0
 182 4.9921875 155.588867188 -14 126 -14 c 0
 101.43359375 -14 70 2.9658203125 70 41 c 0
 70 75.31640625 91.8984375 100 126 100 c 0
 161.521484375 100 182 72.4560546875 182 41 c 0
EndSplineSet
Validated: 524289
EndChar

StartChar: slash
Encoding: 16 47 17
Width: 342
GlyphClass: 2
Flags: W
VStem: 10 287
LayerCount: 3
Fore
SplineSet
297 685 m 1
 68 -254 l 1
 10 -254 l 1
 239 685 l 1
 297 685 l 1
EndSplineSet
Validated: 1
EndChar

StartChar: zero
Encoding: 17 48 18
Width: 465
GlyphClass: 2
Flags: W
HStem: -14 45<156.122 306.501> 388 47<155.487 308.135>
VStem: 13 68<113.603 305.698> 383 68<114.579 307.32>
LayerCount: 3
Fore
SplineSet
13 210 m 0
 13 341.155852059 110.225551943 435 232 435 c 0
 354.96945908 435 451 342.528135078 451 210 c 0
 451 77.0228581502 350.610125558 -14 232 -14 c 0
 114.498535358 -14 13 78.4829855464 13 210 c 0
232 388 m 256
 136.37308258 388 81 308.078228199 81 210 c 256
 81 158.666666667 94.8333333333 116 122.5 82 c 0
 150.166666667 48 186.666666667 31 232 31 c 0
 321.406684533 31 383 106.95679858 383 210 c 0
 383 314.076828776 324.843199582 388 232 388 c 256
EndSplineSet
Validated: 524289
EndChar

StartChar: one
Encoding: 18 49 19
Width: 465
GlyphClass: 2
Flags: W
HStem: -3 37<77.7646 133 324 380.29> 356 29<77.5454 171.506>
VStem: 194 74<48.8532 347.732>
LayerCount: 3
Fore
SplineSet
194 291 m 2
 194 345.024666456 175.319984223 356 122 356 c 2
 91 356 l 2
 81.5908173004 356 77.4542162453 362.257924361 77.4542162453 368.96490875 c 0
 77.4542162453 376.354711459 82.4759621624 384.289663513 91 385 c 0
 167.826784979 396.524017747 196.806451613 400.870967742 237.5 428 c 0
 252.5 438 260.666666667 443 262 443 c 0
 263.031206451 443.085933871 263.984854542 443.135861013 264.863705341 443.135861013 c 0
 270.755997686 443.135861013 273.286085372 440.891591686 273.286085372 432.207786889 c 0
 273.286085372 426.266911199 272.101908982 417.312090217 270 404 c 0
 268.666666667 377.333333333 268 344 268 304 c 2
 268 126 l 2
 268 51.6206109042 275.95518605 40.6957549192 324 37 c 2
 374 34 l 1
 378.239962254 30.36574664 380.299202713 23.1629227446 380.299202713 16.0525008267 c 0
 380.299202713 7.22019585262 377.121857283 -1.46953567915 371 -3 c 0
 329 -1 282 0 230 0 c 0
 176.666666667 0 128.333333333 -1 85 -3 c 0
 80.2179826162 -1.4059942054 77.7143085367 8.2725676072 77.7143085367 17.5251191085 c 0
 77.7143085367 24.4372123899 79.1115580012 31.1115580012 82 34 c 1
 133 37 l 1
 185.698405012 44.5283435732 194 56.2047859628 194 133 c 2
 194 291 l 2
EndSplineSet
Validated: 524289
EndChar

StartChar: two
Encoding: 19 50 20
Width: 465
GlyphClass: 2
Flags: W
HStem: 0 59<174.789 377.936> 377 58<143.031 260.058>
VStem: 282 86<242.135 354.56>
LayerCount: 3
Fore
SplineSet
234 435 m 0
 315.424350336 435 368 384.261556964 368 319 c 0
 368 263.666666667 332.333333333 205.666666667 261 145 c 2
 175 71 l 1
 170.200000001 59 184.461111109 59 190 59 c 2
 304 59 l 2
 369.932823663 59 383.63216273 66.2643254596 404 107 c 1
 415.333333333 112.333333333 423.333333333 109.666666667 428 99 c 1
 422.666666667 87.7407407404 422.666666667 87.7407407404 379 -19 c 1
 356.104808159 -0.683846527084 346.502255828 0 245 0 c 2
 146 0 l 2
 108 0 78.3333333333 -1 57 -3 c 1
 49 0.333333333333 47 6 51 14 c 1
 138.821017358 80.820339294 249.186684544 205.884465302 251 208 c 0
 271 231.333333333 281.333333333 256.666666667 282 284 c 0
 282 346 255 377 201 377 c 0
 167.666666667 377 133.666666667 359 99 323 c 1
 98.1140200862 322.778505022 97.2055817185 322.674100719 96.2833062175 322.674100719 c 0
 85.1498685567 322.674100719 72 337.888528308 72 346 c 1
 110 405.333333333 164 435 234 435 c 0
EndSplineSet
Validated: 524289
EndChar

StartChar: three
Encoding: 20 51 21
Width: 465
GlyphClass: 2
Flags: W
HStem: -225.076 38.0764<18.3611 141.898> 138.315 35.6847<103.81 161.055> 386 49<123.609 249.762>
VStem: 266.933 75.0667<260.419 368.991> 318.154 83.8457<-48.7408 111.897>
LayerCount: 3
Fore
SplineSet
317 11 m 1xe8
 317.690295656 17.9029565627 318.154267269 25.5261363497 318.154267269 33.5473300734 c 0xe8
 318.154267269 84.6850665929 299.296233844 152 200 152 c 0
 183.304517312 152 154.866235587 143.977705931 125 139 c 0
 123.364769639 138.532791325 121.795585471 138.315290993 120.302841047 138.315290993 c 0
 110.291822293 138.315290993 103.718795485 148.097694197 103.718795485 157.94751092 c 0
 103.718795485 164.038238152 106.232113275 170.154742184 112 174 c 1
 158.666666667 188 197.166666667 206.5 227.5 229.5 c 0
 253.78888889 249.433333334 266.933333335 273.74814815 266.933333335 302.444444448 c 0
 266.933333335 306.859259261 266.622222224 311.377777778 266 316 c 1
 266 335.492309673 259.84072956 386 196 386 c 0
 149.055672956 386 124.498267428 374.81629174 77 323 c 1
 75.8801493233 322.796390786 74.7728837365 322.699885301 73.6827568517 322.699885301 c 0
 60.4268812686 322.699885301 49.7052044061 336.969581774 49.7052044061 346.453138342 c 0
 49.7052044061 352.571520154 112.428081027 435 203 435 c 0
 229.059102081 435 342 433.8587325 342 332 c 0xf0
 342 275.333333333 311.333333333 233.333333333 250 206 c 1
 244.666666667 200.666666667 250.333333333 197.333333333 267 196 c 0
 323.539857493 192.799630708 402 149.726069635 402 52 c 0
 402 -23.3333333333 374.333333333 -82.6666666667 319 -126 c 0
 242.333333333 -184.666666667 149 -217.666666667 39 -225 c 0
 38.3319640467 -225.051387381 37.6796255768 -225.076438513 37.0430602941 -225.076438513 c 0
 24.7661909977 -225.076438513 18.3562235677 -215.758567014 18.3562235677 -206.341677465 c 0
 18.3562235677 -196.722497674 25.0445421864 -187 39 -187 c 0
 41.3722865313 -187.075310684 43.7552850485 -187.112607155 46.1477225198 -187.112607155 c 0
 169.107521219 -187.112607155 317 -88.5952299425 317 11 c 1xe8
EndSplineSet
Validated: 524289
EndChar

StartChar: four
Encoding: 21 52 22
Width: 465
GlyphClass: 2
Flags: W
HStem: 0 59<103.997 269.969 343.09 455.316>
VStem: 270 73<-185.436 -7.94489e-08 59 315>
LayerCount: 3
Fore
SplineSet
363 0 m 2
 344.245934475 0 343 -1.52122255865 343 -24 c 2
 347 -178 l 1
 343.666666667 -183.333333333 329.333333333 -186 304 -186 c 0
 282.666666667 -186 270 -183.333333333 266 -178 c 1
 270 -24 l 2
 270 -2.64775996591 267.65082107 0 250 0 c 2
 15 0 l 1
 9.66666666667 3.33333333333 7 9 7 17 c 1
 46 78 l 2
 90.6666666667 147.333333333 180.333333333 279.333333333 315 474 c 1
 317.999254179 475.713859531 321.609223467 476.438642623 325.226686351 476.438642623 c 0
 333.641377088 476.438642623 342.096614791 472.516926044 343 468 c 1
 343 86 l 2
 343 63.1634665098 346.478346558 59 363 59 c 2
 449 59 l 1
 453.666666667 55 456 46.5 456 33.5 c 0
 456 20.5 453.666666667 9.33333333333 449 0 c 1
 363 0 l 2
250 59 m 2
 268.908176506 59 270 59.9992650099 270 86 c 2
 270 315 l 1
 268 315 l 1
 223.333333333 255 168.666666667 176.333333333 104 79 c 0
 95.3333333333 65.6666666667 98.3333333333 59 113 59 c 2
 250 59 l 2
EndSplineSet
Validated: 524289
EndChar

StartChar: five
Encoding: 22 53 23
Width: 465
GlyphClass: 2
Flags: W
HStem: -223 32<22.8557 103.479> 210 59<127.062 226.787> 359 64.0484<142.203 373.743>
VStem: 326.029 81.9706<-29.6669 129.662>
LayerCount: 3
Fore
SplineSet
123 397 m 1
 123 404.792173559 124.821899641 423.048444209 141.896237753 423.048444209 c 0
 145.049199312 423.048444209 148.722263297 422.425912234 153 421 c 1
 277 424 l 1
 345.4396805 424 360.203895088 427.026278885 380 441 c 0
 383.763655122 444.763655122 397.456645041 440.73987024 396 432 c 0
 396 425.333333333 389 402.333333333 375 363 c 1
 348.333333333 361 312.5 360 267.5 360 c 0
 222.5 360 191 359.666666667 173 359 c 0
 153.347604853 359 148.223384375 355.670153123 143 340 c 2
 126 287 l 2
 122 277 126.333333333 271 139 269 c 1
 181 269 l 1
 246.333333333 261.666666667 300.5 242.5 343.5 211.5 c 0
 386.5 180.5 408 133.333333333 408 70 c 0
 408 -105.957491771 231.687317579 -212.190009728 29 -223 c 1
 25.6200953517 -220.296076281 22.7731677456 -212.363457865 22.7731677456 -204.893977282 c 0
 22.7731677456 -199.096591531 24.4881515214 -193.578199131 29 -191 c 1
 165.02706288 -170.179531192 326.029413196 -115.020068377 326.029413196 51.4525859366 c 0
 326.029413196 140.216666192 267.086192281 204.642380895 101 210 c 0
 76.902024981 210 68.3652147397 212.51578159 68.3652147397 223.206530659 c 0
 68.3652147397 226.805770845 69.3328262239 231.331609161 71 237 c 2
 123 397 l 1
EndSplineSet
Validated: 524289
EndChar

StartChar: six
Encoding: 23 54 24
Width: 465
GlyphClass: 2
Flags: W
HStem: -14 32<188.545 298.461> 290 47.0208<199.046 304.357> 627 20G<444.333 461.886>
VStem: 40 82<87.5957 314.857> 352 75<95.474 235.92>
LayerCount: 3
Fore
SplineSet
240 290 m 0
 214.666666674 288.19047619 214.666666674 288.19047619 186 280 c 1
 179.931267388 281.618328697 176.280236202 285.499105721 176.280236202 290.623508896 c 0
 176.280236202 299.999262695 188.502210001 313.538105075 220.5 325 c 0
 242.833333333 333 264 337 284 337 c 0
 284.918539786 337.013917269 285.832324121 337.020840828 286.74136237 337.020840828 c 0
 384.07917458 337.020840828 427 257.637717084 427 185 c 0
 427 80.0064119452 347.090399589 -14 223 -14 c 0
 115.623263683 -14 40 64.04611111 40 193 c 0
 40 387.999919233 181.369727526 536.263743003 331.5 603.5 c 0
 385.833333333 627.833333333 428.666666667 642.333333333 460 647 c 1
 463.772527783 643.227472217 467.518012829 633.594624822 467.518012829 625.904385531 c 0
 467.518012829 621.438298988 466.254782252 617.627391126 463 616 c 0
 381 584 316.333333333 546.333333333 269 503 c 0
 171 412.333333333 122 307 122 187 c 0
 122 177.17709918 123.853519915 18 244 18 c 0
 306.900721319 18 352 68.0502760396 352 149 c 0
 352 192.368299461 333.889224753 290 240 290 c 0
EndSplineSet
Validated: 524289
EndChar

StartChar: seven
Encoding: 24 55 25
Width: 465
GlyphClass: 2
Flags: W
HStem: 359 63<83.5056 349.357>
VStem: 62 17<436.762 461.856> 115 69<-198.46 -117.745>
LayerCount: 3
Fore
SplineSet
178 422 m 2
 310 421 l 2
 383.333333333 421 425.333333333 422 436 424 c 0
 442 423.333333333 445 420 445 414 c 1
 421.459576307 379.268227339 314.187999997 215.638688519 246.5 27 c 0
 226.166666667 -29.6666666667 205.333333333 -103.333333333 184 -194 c 1
 180.67313182 -199.5447803 170.745427212 -202.539116461 159.420112569 -202.539116461 c 0
 139.394856036 -202.539116461 115 -193.177385014 115 -172 c 1
 137.897422439 -110.634907865 208.118450017 68.3584931318 296 232 c 0
 339.150722292 312.34962082 352.371136081 336.96694305 352.371136081 347.700541356 c 0
 352.371136081 350.780680645 351.282469016 352.717530984 349.5 354.5 c 0
 346.5 357.5 340.666666667 359 332 359 c 2
 142 359 l 2
 78.0743918769 359 58.8037242361 341.837083968 44 308 c 1
 38.0462061506 304.42772369 26.9006877468 305.14896838 21 314 c 1
 23.1873242599 318.283510009 52.9776777033 377.799099334 62 459 c 1
 67.3333333333 463 73 463 79 459 c 1
 82.7291412725 426.680775639 91.6672328616 422 178 422 c 2
EndSplineSet
Validated: 524289
EndChar

StartChar: eight
Encoding: 25 56 26
Width: 465
GlyphClass: 2
Flags: W
HStem: -14 29<184.32 285.51> 589 31<182.047 281.352>
VStem: 42.9838 69.0162<77.5545 209.865> 68 64<417.221 541.641> 327.012 62.9882<406.263 547.723> 344.101 79.5302<69.6178 201.123>
LayerCount: 3
Fore
SplineSet
68 458 m 0xd0
 68 568.213560291 157.129752083 620 240 620 c 0
 255.405698652 620 390 616.049548885 390 478 c 0xd8
 390 421.293827905 374.384231059 393.921582774 269 330 c 1
 320.333333333 299.333333333 358.666666667 271.833333333 384 247.5 c 0
 408.506581142 223.960783903 423.63168589 186.155804988 423.63168589 146.52778064 c 0
 423.63168589 105.107335027 407.107385457 61.6951973955 367.5 30.5 c 0
 329.833333333 0.833333333333 284.333333333 -14 231 -14 c 0
 149.740368652 -14 42.9837500264 29.8411915025 42.9837500264 135.731102694 c 0xe4
 42.9837500264 151.314079027 48.2530708854 258.61121047 191 307 c 1
 83.3649610535 377.580353408 68 408.306247962 68 458 c 0xd0
236 15 m 0
 291.250941564 15 344.101465747 67.9788494129 344.101465747 132.130217315 c 0
 344.101465747 161.524994761 337.949620722 220.787809361 218 287 c 1
 147.333333333 251.666666667 112 203.666666667 112 143 c 0xe4
 112 77.658188228 174.227395255 15 236 15 c 0
233 589 m 0
 171.143307213 589 132 533.153431393 132 481 c 0
 132 425.000000007 156.541666629 407.470238128 244 345 c 1
 299.341176471 375.305882354 327.011764707 417.98214533 327.011764707 473.028788928 c 0xd8
 327.011764707 531.595794651 292.313186132 589 233 589 c 0
EndSplineSet
Validated: 524289
EndChar

StartChar: nine
Encoding: 26 57 27
Width: 465
GlyphClass: 2
Flags: W
HStem: 92.372 42.0655<173.365 270.295> 402 33<164.377 278.384>
VStem: 46 71<198.587 330.606> 338 82<102.789 337.124>
LayerCount: 3
Fore
SplineSet
242 435 m 0
 306.241950708 435 420 409.26599354 420 227 c 0
 420 168.222658998 401.957908758 -39.1430316964 159 -166.5 c 0
 117.666666667 -188.166666667 78.3333333333 -202.666666667 41 -210 c 1
 36.6413624606 -203.897907444 33.3437134546 -193.047052298 33.3437134546 -185.282501016 c 0
 33.3437134546 -181.465635424 34.1405797108 -178.394565217 36 -177 c 0
 86.6666666667 -160.333333333 134.333333333 -135.333333333 179 -102 c 0
 217.666666667 -72 253.833333333 -28.8333333333 287.5 27.5 c 0
 321.166666667 83.8333333333 338 151.666666667 338 231 c 0
 338 275 328.833333333 314.5 310.5 349.5 c 0
 292.166666667 384.5 261.666666667 402 219 402 c 0
 158.855189238 402 117 353.474043712 117 282 c 0
 117 224.649308521 151.368456365 141.054916839 221 135 c 0
 226.25 134.625 231.218750001 134.4375 235.906250001 134.4375 c 0
 256.21875 134.4375 271.25 137.958333333 281 145 c 1
 285.427441418 144.114511716 288.627741141 140.662204363 288.627741141 135.754502153 c 0
 288.627741141 126.520853306 277.299018151 112.135260391 241.5 100 c 0
 226.369436199 94.8709953218 210.464793554 92.3720421968 194.535092335 92.3720421968 c 0
 120.537905592 92.3720421968 46 146.29494548 46 241 c 0
 46 360.075586049 140.731837025 435 242 435 c 0
EndSplineSet
Validated: 524289
EndChar

StartChar: colon
Encoding: 27 58 28
Width: 265
GlyphClass: 2
Flags: W
HStem: -14 114<81.2413 170.481> 279 114<82.2417 170.481>
VStem: 70 112<-2.48534 88.7878 290.515 380.95>
LayerCount: 3
Fore
SplineSet
182 41 m 0
 182 4.9921875 155.588867188 -14 126 -14 c 0
 101.43359375 -14 70 2.9658203125 70 41 c 0
 70 75.31640625 91.8984375 100 126 100 c 0
 161.521484375 100 182 72.4560546875 182 41 c 0
182 334 m 0
 182 297.9921875 155.588867188 279 126 279 c 0
 101.43359375 279 70 295.965820312 70 334 c 0
 70 367.256835938 93.3818359375 393 126 393 c 0
 160.103515625 393 182 368.315429688 182 334 c 0
EndSplineSet
Validated: 524289
EndChar

StartChar: semicolon
Encoding: 28 59 29
Width: 265
GlyphClass: 2
Flags: W
HStem: -121 24<56.4116 86.2325> 279 114<82.2417 170.481>
VStem: 70 112<290.515 380.95> 139 54<-51.1432 31.1689>
LayerCount: 3
Fore
SplineSet
182 334 m 0xe0
 182 297.9921875 155.588867188 279 126 279 c 0
 101.43359375 279 70 295.965820312 70 334 c 0
 70 367.256835938 93.3818359375 393 126 393 c 0
 160.103515625 393 182 368.315429688 182 334 c 0xe0
65 77 m 0
 65 98.029296875 78.7802734375 122 114 122 c 0
 140.711914062 122 193 98.560546875 193 24 c 0
 193 -46.6669921875 149.666992188 -95 63 -121 c 1
 54.9853515625 -116.9921875 50.0283203125 -101.182617188 57 -97 c 0
 111.666992188 -79.6669921875 139 -51 139 -11 c 0xd0
 139 53.755859375 65 28.322265625 65 77 c 0
EndSplineSet
Validated: 524289
EndChar

StartChar: less
Encoding: 29 60 30
Width: 515
GlyphClass: 2
Flags: W
HStem: -1 21G<402.717 445>
LayerCount: 3
Fore
SplineSet
56 228 m 1
 445 412 l 1
 445 354 l 1
 128 207 l 1
 128 205 l 1
 445 56 l 1
 445 -1 l 1
 56 183 l 1
 56 228 l 1
EndSplineSet
Validated: 1
EndChar

StartChar: equal
Encoding: 30 61 31
Width: 515
GlyphClass: 2
Flags: W
HStem: 106 48<58 443> 255 50<58 443>
LayerCount: 3
Fore
SplineSet
443 154 m 1
 443 106 l 1
 58 106 l 1
 58 154 l 1
 443 154 l 1
443 305 m 1
 443 255 l 1
 58 255 l 1
 58 305 l 1
 443 305 l 1
EndSplineSet
Validated: 1
EndChar

StartChar: greater
Encoding: 31 62 32
Width: 499
GlyphClass: 2
Flags: W
HStem: -1 21G<55 97.2826>
LayerCount: 3
Fore
SplineSet
55 412 m 1
 444 228 l 1
 444 183 l 1
 55 -1 l 1
 55 56 l 1
 372 205 l 1
 372 207 l 1
 55 354 l 1
 55 412 l 1
EndSplineSet
Validated: 1
EndChar

StartChar: question
Encoding: 32 63 33
Width: 384
GlyphClass: 2
Flags: W
HStem: -13.998 114<67.2423 156.482> 565.685 78.4306<69.0882 198.774>
VStem: 56.001 112<-2.48338 88.7898> 91.001 38<161.002 250.647> 295.413 41.0931<369.618 496.702>
LayerCount: 3
Fore
SplineSet
168.000976562 41.001953125 m 0xe8
 168.000976562 4.994140625 141.58984375 -13.998046875 112.000976562 -13.998046875 c 0
 87.4345703125 -13.998046875 56.0009765625 2.9677734375 56.0009765625 41.001953125 c 0
 56.0009765625 75.318359375 77.8994140625 100.001953125 112.000976562 100.001953125 c 0
 147.522460938 100.001953125 168.000976562 72.4580078125 168.000976562 41.001953125 c 0xe8
55.8987818429 540.663602721 m 0
 54.7301696548 540.663602721 24.9457541437 541.065301254 24.9457541437 582.008754204 c 0
 24.9457541437 622.216107777 62.4916537052 644.11572656 111.509207468 644.11572656 c 0
 170.132253205 644.11572656 245.163445863 612.792243808 292 544.000976562 c 0
 318.994233037 500.810010199 336.505940371 449.888041517 336.505940371 403.522495035 c 0
 336.505940371 356.290074582 318.333295979 313.786047469 273.5 289 c 0
 232.5 266.333007812 184.333007812 253 129 249 c 1
 129.000976562 161.001953125 l 1
 91.0009765625 161.001953125 l 1
 91.0009765625 320.001953125 l 1xd8
 277.720606525 320.001953125 295.412853828 385.192336997 295.412853828 425.27839765 c 0
 295.412853828 427.152982567 291.766781461 565.685171617 171.208892765 565.685171617 c 0
 116.831312624 565.685171617 67.1959188472 540.663602721 55.8987818429 540.663602721 c 0
EndSplineSet
Validated: 524289
EndChar

StartChar: at
Encoding: 33 64 34
Width: 780
GlyphClass: 2
Flags: W
HStem: -123 35<297.077 501.499> 67 50.001<241.271 310.686> 67 34<463.042 566.82> 355.001 32.999<392.494 459.696> 534 33<330.356 534.566>
VStem: 44.999 68.999<75.8212 316.042> 209 88.998<93.9768 192.086> 396.899 65.7927<79.5458 166.885> 687.103 47.8956<209.59 406.666>
LayerCount: 3
Fore
SplineSet
427.998046875 355.000976562 m 0xdf80
 371.860351562 355.000976562 297.998046875 211.029296875 297.998046875 133.000976562 c 0
 297.998046875 122.333984375 301.331054688 117.000976562 307.998046875 117.000976562 c 0
 320.665039062 117.000976562 346.665039062 138.000976562 385.998046875 180.000976562 c 0
 422.814453125 219.762695312 457.821289062 294.508789062 464.998046875 328.000976562 c 1
 458.331054688 346.000976562 445.998046875 355.000976562 427.998046875 355.000976562 c 0xdf80
490.999023438 101 m 0xbf80
 578.438336383 104.050208593 687.103437579 158.886030498 687.103437579 311.244717122 c 0
 687.103437579 443.089878011 581.576698174 534 430.998046875 534 c 0
 226.064453125 534 113.998046875 363.6875 113.998046875 186 c 0
 113.998046875 95.744140625 160.341796875 -88 411.998046875 -88 c 0
 460.665039062 -88 512.33203125 -76.3330078125 566.999023438 -53 c 1
 574.999023438 -57.6669921875 577.666015625 -64 574.999023438 -72 c 1
 520.999023438 -106 456.666015625 -123 381.999023438 -123 c 0
 230.196289062 -123 44.9990234375 -34.9765625 44.9990234375 185 c 0
 44.9990234375 419.82421875 234.01171875 567 439.999023438 567 c 0
 531.33203125 567 603.33203125 541.5 655.999023438 490.5 c 0
 708.666015625 439.5 734.999023438 378.666992188 734.999023438 308 c 0
 734.999023438 188.765625 644.037109375 67 471.999023438 67 c 0xbf80
 448.438432625 67 396.898944327 68.4709484908 396.898944327 90.620653858 c 0
 396.898944327 96.1411055403 399.599207978 107.600887588 404.999023438 125 c 2
 428.999023438 199 l 1
 426.999023438 199 l 1
 373.987304688 124.239257812 297.9921875 67 253.999023438 67 c 0xdf80
 228.54296875 67 211.53125 88.6845703125 209 114 c 0
 209 165.768554688 269.346679688 308.571289062 387 371 c 0
 407 382.333007812 427 388 447 388 c 0
 464 388 476.481445312 375.517578125 483.998046875 368.000976562 c 1
 495.998046875 389.000976562 l 1
 499.331054688 391.000976562 504.331054688 392.000976562 510.998046875 392.000976562 c 0
 538.331054688 392.000976562 551.998046875 385.66796875 551.998046875 373.000976562 c 0
 550.623618834 370.250948762 462.691632473 137.567370018 462.691632473 118.656888715 c 0
 462.691632473 106.316238849 471.195499844 101 490.999023438 101 c 0xbf80
EndSplineSet
Validated: 524289
EndChar

StartChar: C
Encoding: 34 67 35
Width: 621
GlyphClass: 2
Flags: W
HStem: -16 31<302.096 459.198> 627.001 20G<555.417 557.001> 644 30.001<293.634 451.3>
VStem: 45 85.001<195.462 452.758> 545.001 23<494.846 536.175> 560.002 23<128.707 159.897>
AnchorPoint: "below" 358 -184 basechar 0
LayerCount: 3
Back
SplineSet
45 326 m 4
 45 378.666666667 54.6666666667 428.333333333 74 475 c 132
 93.3333333333 521.666666667 119.333333333 559.666666667 152 589 c 4
 213.333333333 645.666666667 290 674 382 674 c 4
 436 674 486 666 532 650 c 4
 545.333333333 647.333333333 553.333333333 646.333333333 556 647 c 5
 558 601.666666667 562 552.666666667 568 500 c 4
 566 496.666666667 562.5 494.666666667 557.5 494 c 132
 552.5 493.333333333 548.333333333 494.666666667 545 498 c 4
 526.333333333 595.333333333 468.333333333 644 371 644 c 4
 301.666666667 644 244.166666667 618 198.5 566 c 132
 152.833333333 514 130 438.666666667 130 340 c 4
 130 238 154 158.333333333 202 101 c 132
 250 43.6666666667 310.333333333 15 383 15 c 4
 431.666666667 15 470.333333333 29.3333333333 499 58 c 132
 527.666666667 86.6666666667 548 120 560 158 c 4
 562.666666667 160.666666667 566.666666667 161.666666667 572 161 c 132
 577.333333333 160.333333333 581 157.666666667 583 153 c 4
 579.666666667 127.666666667 573.5 100.833333333 564.5 72.5 c 132
 555.5 44.1666666667 548 25.6666666667 542 17 c 5
 532.666666667 15 522.666666667 11.6666666667 512 7 c 4
 475.333333333 -8.33333333333 430.666666667 -16 378 -16 c 4
 293.333333333 -16 222.666666667 6 166 50 c 4
 85.3333333333 116.666666667 45 208.666666667 45 326 c 4
358 -97 m 260
 382.666666667 -97 403.333333333 -105 420 -121 c 132
 436.666666667 -137 445 -158 445 -184 c 4
 445 -208 436.333333333 -228.333333333 419 -245 c 132
 401.666666667 -261.666666667 381.333333333 -270 358 -270 c 260
 334.666666667 -270 314.333333333 -261.333333333 297 -244 c 132
 279.666666667 -226.666666667 271 -206.666666667 271 -184 c 4
 271 -159.333333333 279.333333333 -138.666666667 296 -122 c 132
 312.666666667 -105.333333333 333.333333333 -97 358 -97 c 260
358 -125 m 260
 341.333333333 -125 327.333333333 -130.666666667 316 -142 c 132
 304.666666667 -153.333333333 299 -167.333333333 299 -184 c 4
 299 -199.333333333 305 -213 317 -225 c 132
 329 -237 342.666666667 -243 358 -243 c 260
 373.333333333 -243 387 -237.333333333 399 -226 c 132
 411 -214.666666667 417 -200.666666667 417 -184 c 4
 417 -166 411.333333333 -151.666666667 400 -141 c 132
 388.666666667 -130.333333333 374.666666667 -125 358 -125 c 260
EndSplineSet
Fore
SplineSet
378.000976562 -16 m 0xb4
 160.342773438 -16 45 135.311523438 45 326 c 0
 45 504.025390625 159.998046875 674.000976562 382.000976562 674.000976562 c 0xb4
 483.029795168 674.000976562 531.676630837 646.572655677 552.094549383 646.572655677 c 0
 553.534213413 646.572655677 554.833533526 646.70901932 556.000976562 647.000976562 c 1
 558.000976562 601.66796875 562.000976562 552.66796875 568.000976562 500.000976562 c 1
 564.227539062 493.712890625 552.184570312 490.81640625 545.000976562 498 c 1xd8
 526.333984375 595.333007812 468.333984375 644 371.000976562 644 c 0
 274.313476562 644 130.000976562 583.72265625 130.000976562 340 c 0
 130.000976562 107.076171875 260.701171875 15 383.000976562 15 c 0
 431.66796875 15 470.334960938 29.3330078125 499.001953125 58 c 0
 527.668945312 86.6669921875 548.001953125 120 560.001953125 158 c 0
 564.74609375 162.744140625 578.559570312 163.365234375 583.001953125 152.999023438 c 1
 575.48046875 95.8330078125 552.266601562 31.8271484375 542.001953125 17 c 1
 532.668945312 15 522.668945312 11.6669921875 512.001953125 7 c 0
 475.334960938 -8.3330078125 430.66796875 -16 378.000976562 -16 c 0xb4
EndSplineSet
Validated: 1572865
EndChar

StartChar: V
Encoding: 41 86 36
Width: 552
GlyphClass: 2
Flags: W
HStem: -16 21G<278.667 283> 636.002 26<-7.01757 39.9573 177.004 191.591 409.98 461.911 538.317 592.99>
AnchorPoint: "below" 278 -184 basechar 0
AnchorPoint: "above" 306 822 basechar 0
AnchorPoint: "lateralcontraction" 311 0 basechar 0
LayerCount: 3
Back
SplineSet
282 -216 m 0
 244 -216 214.333333333 -206 193 -186 c 128
 171.666666667 -166 158 -131.666666667 152 -83 c 1
 158.666666667 -77 165 -77 171 -83 c 1
 178.333333333 -110.333333333 190.166666667 -130.5 206.5 -143.5 c 128
 222.833333333 -156.5 247.666666667 -163 281 -163 c 0
 313 -163 336.833333333 -156.5 352.5 -143.5 c 128
 368.166666667 -130.5 381.666666667 -110.333333333 393 -83 c 1
 399.666666667 -77 406 -77 412 -83 c 1
 404 -126.333333333 388.666666667 -159.333333333 366 -182 c 128
 343.333333333 -204.666666667 315.333333333 -216 282 -216 c 0
229 120 m 2
 80 552 l 2
 69.3333333333 582 59.3333333333 602.666666667 50 614 c 128
 40.6666666667 625.333333333 27.6666666667 632 11 634 c 2
 -5 636 l 1
 -13 645.333333333 -12.3333333333 654 -3 662 c 1
 19 659.333333333 48.3333333333 658 85 658 c 0
 122.333333333 658 156.666666667 659.333333333 188 662 c 0
 190.666666667 660 192.333333333 656 193 650 c 128
 193.666666667 644 192.666666667 639.333333333 190 636 c 1
 177 634 l 2
 151 630 137.666666667 623.666666667 137 615 c 0
 144.333333333 581 158.666666667 534.666666667 180 476 c 0
 188.666666667 450 200.666666667 414.666666667 216 370 c 128
 231.333333333 325.333333333 245.5 283.833333333 258.5 245.5 c 128
 271.5 207.166666667 284.333333333 169 297 131 c 1
 310.333333333 163 337.666666667 237 379 353 c 0
 407.666666667 428.333333333 434 502.666666667 458 576 c 0
 463.333333333 592 466 605 466 615 c 0
 466 624.333333333 453.333333333 630.666666667 428 634 c 2
 412 636 l 1
 404 645.333333333 404.666666667 654 414 662 c 1
 435.333333333 659.333333333 464.666666667 658 502 658 c 0
 534.666666667 658 563.333333333 659.333333333 588 662 c 0
 591.333333333 660 593 656 593 650 c 128
 593 644 592 639.333333333 590 636 c 1
 564 634 l 2
 545.333333333 632 530.666666667 620.666666667 520 600 c 0
 497.333333333 554.666666667 465.666666667 478 425 370 c 2
 379 248 l 2
 371.666666667 227.333333333 361.5 198.666666667 348.5 162 c 128
 335.5 125.333333333 323 88.8333333333 311 52.5 c 128
 299 16.1666666667 292 -5.66666666667 290 -13 c 0
 288 -15 285 -16 281 -16 c 0
 276.333333333 -16 272 -15 268 -13 c 1
 259.333333333 27 246.333333333 71.3333333333 229 120 c 2
588 662 m 0
 591.333333333 660 593 656 593 650 c 128
 593 644 592 639.333333333 590 636 c 1
 564 634 l 1026
258 -62 m 0
 282 -62 303.5 -68.6666666667 322.5 -82 c 128
 341.5 -95.3333333333 351.333333333 -117.333333333 352 -148 c 0
 352.666666667 -180.666666667 342.5 -208.833333333 321.5 -232.5 c 128
 300.5 -256.166666667 273.666666667 -273.333333333 241 -284 c 1
 231 -276.666666667 228.333333333 -269 233 -261 c 1
 282.333333333 -240.333333333 306.666666667 -212 306 -176 c 0
 305.333333333 -158 298.166666667 -144.833333333 284.5 -136.5 c 128
 270.833333333 -128.166666667 255 -126.333333333 237 -131 c 1
 219 -129.666666667 209.666666667 -120.666666667 209 -104 c 0
 209 -92.6666666667 212.666666667 -82.8333333333 220 -74.5 c 128
 227.333333333 -66.1666666667 240 -62 258 -62 c 0
272 821 m 2
 353 786 l 2
 371 778.666666667 385 779.166666667 395 787.5 c 128
 405 795.833333333 416.666666667 812 430 836 c 0
 432 839.333333333 435.166666667 840.666666667 439.5 840 c 128
 443.833333333 839.333333333 446.333333333 836.666666667 447 832 c 0
 449 800.666666667 440.666666667 773.666666667 422 751 c 0
 400 725.666666667 370 720 332 734 c 2
 253 768 l 2
 225 778.666666667 196.666666667 761.666666667 168 717 c 0
 166 713.666666667 162.833333333 713 158.5 715 c 128
 154.166666667 717 151.666666667 719.333333333 151 722 c 0
 148.333333333 744 161 770.333333333 189 801 c 0
 197 811.666666667 209.166666667 819.333333333 225.5 824 c 128
 241.833333333 828.666666667 257.333333333 827.666666667 272 821 c 2
588 662 m 0
 591.333333333 660 593 656 593 650 c 128
 593 644 592 639.333333333 590 636 c 1
 564 634 l 1026
278 -97 m 256
 302.666666667 -97 323.333333333 -105 340 -121 c 128
 356.666666667 -137 365 -158 365 -184 c 0
 365 -208 356.333333333 -228.333333333 339 -245 c 128
 321.666666667 -261.666666667 301.333333333 -270 278 -270 c 256
 254.666666667 -270 234.333333333 -261.333333333 217 -244 c 128
 199.666666667 -226.666666667 191 -206.666666667 191 -184 c 0
 191 -159.333333333 199.333333333 -138.666666667 216 -122 c 128
 232.666666667 -105.333333333 253.333333333 -97 278 -97 c 256
278 -125 m 256
 261.333333333 -125 247.333333333 -130.666666667 236 -142 c 128
 224.666666667 -153.333333333 219 -167.333333333 219 -184 c 0
 219 -199.333333333 225 -213 237 -225 c 128
 249 -237 262.666666667 -243 278 -243 c 256
 293.333333333 -243 307 -237.333333333 319 -226 c 128
 331 -214.666666667 337 -200.666666667 337 -184 c 0
 337 -166 331.333333333 -151.666666667 320 -141 c 128
 308.666666667 -130.333333333 294.666666667 -125 278 -125 c 256
588 662 m 0
 591.333333333 660 593 656 593 650 c 128
 593 644 592 639.333333333 590 636 c 1
 564 634 l 1026
404 -196 m 1
 164 -196 l 1
 159.333333333 -189.333333333 157 -180.833333333 157 -170.5 c 128
 157 -160.166666667 159.333333333 -151.666666667 164 -145 c 1
 404 -145 l 1
 409.333333333 -152.333333333 412 -160.833333333 412 -170.5 c 128
 412 -180.166666667 409.333333333 -188.666666667 404 -196 c 1
588 662 m 0
 591.333333333 660 593 656 593 650 c 128
 593 644 592 639.333333333 590 636 c 1
 564 634 l 1026
254 -120 m 2
 335 -154 l 2
 353 -161.333333333 367 -161 377 -153 c 128
 387 -145 398.666666667 -129 412 -105 c 0
 414 -101.666666667 417.166666667 -100.333333333 421.5 -101 c 128
 425.833333333 -101.666666667 428.333333333 -104.333333333 429 -109 c 0
 431 -141 422.666666667 -167.666666667 404 -189 c 0
 392 -203 377.333333333 -210.666666667 360 -212 c 128
 342.666666667 -213.333333333 327.333333333 -211.666666667 314 -207 c 2
 235 -173 l 2
 206.333333333 -161.666666667 178 -178.666666667 150 -224 c 0
 148 -226.666666667 145 -227.333333333 141 -226 c 128
 137 -224.666666667 134.333333333 -222 133 -218 c 0
 130.333333333 -196.666666667 143 -170.666666667 171 -140 c 0
 179 -129.333333333 191.166666667 -121.666666667 207.5 -117 c 128
 223.833333333 -112.333333333 239.333333333 -113.333333333 254 -120 c 2
588 662 m 0
 591.333333333 660 593 656 593 650 c 128
 593 644 592 639.333333333 590 636 c 1
 564 634 l 1026
280 -60 m 1
 410 -276 l 1
 146 -276 l 1
 280 -60 l 1
279 -134 m 1
 206 -243 l 1
 350 -243 l 1
 279 -134 l 1
EndSplineSet
Fore
SplineSet
229 120 m 2
 80.00390625 552.001953125 l 2
 58.1728515625 613.399414062 42.7421875 630.193359375 11.00390625 634.001953125 c 2
 -4.99609375 636.001953125 l 1
 -12.99609375 645.334960938 -12.3291015625 654.001953125 -2.99609375 662.001953125 c 1
 19.00390625 659.334960938 48.3369140625 658.001953125 85.00390625 658.001953125 c 0
 122.336914062 658.001953125 156.669921875 659.334960938 188.002929688 662.001953125 c 1
 193.102539062 658.177734375 195.729492188 643.157226562 190.00390625 636.001953125 c 1
 177.00390625 634.001953125 l 2
 151.00390625 630.001953125 137.670898438 623.668945312 137.00390625 615.001953125 c 0
 143.661132812 584.134765625 143.661132812 584.134765625 258.502929688 245.501953125 c 0
 271.502929688 207.168945312 284.3359375 169.001953125 297.002929688 131.001953125 c 1
 305.561523438 151.54296875 411.774414062 434.751953125 458.001953125 576.000976562 c 0
 463.334960938 592.000976562 466.001953125 605.000976562 466.001953125 615.000976562 c 0
 466.001953125 624.333984375 453.334960938 630.666992188 428.001953125 634 c 2
 412.001953125 636 l 1
 404.001953125 645.333007812 404.668945312 654 414.001953125 662 c 1
 435.334960938 659.333007812 464.66796875 658 502.000976562 658 c 0
 534.66796875 658 563.334960938 659.333007812 588.001953125 662 c 0
 591.334960938 660 593.001953125 656 593.001953125 650 c 0
 593.001953125 644 592.001953125 639.333007812 590.001953125 636 c 1
 564.001953125 634 l 2
 545.334960938 632 530.66796875 620.666992188 520.000976562 600 c 0
 497.333984375 554.666992188 465.666992188 478 425 370 c 2
 379 248 l 1
 305.521484375 40.9130859375 294.23046875 2.51171875 290 -13 c 0
 288 -15 285 -16 281 -16 c 0
 276.333007812 -16 272 -15 268 -13 c 0
 259.333007812 27 246.333007812 71.3330078125 229 120 c 2
EndSplineSet
Validated: 524289
EndChar

StartChar: bracketleft
Encoding: 43 91 37
Width: 335
GlyphClass: 2
Flags: W
HStem: -147 21.999<241.364 301.56> 649 36<180.255 271.3> 659 22<235.7 300.691>
VStem: 118 53<-110.505 645.658>
LayerCount: 3
Fore
SplineSet
118 -149 m 1xd0
 118 685 l 1
 187 685 l 2xd0
 212.333007812 685 249 683.666992188 297 681 c 1
 305 676.333007812 305.333007812 669 298 659 c 1xb0
 209 649 l 1
 198.333007812 649 190 645.666992188 184 639 c 0
 175.333007812 630.333007812 171 578.666015625 171 483.999023438 c 2
 171 49.9990234375 l 2
 171 -44.0009765625 175.333007812 -95.66796875 184 -105.000976562 c 0
 190 -110.333984375 198.333007812 -113.333984375 209 -114.000976562 c 2
 298 -125.000976562 l 1
 304.985351562 -131.986328125 303.592773438 -144.36328125 297 -147 c 0
 247.666992188 -148.333007812 211 -149 187 -149 c 2
 118 -149 l 1xd0
EndSplineSet
Validated: 524289
EndChar

StartChar: backslash
Encoding: 44 92 38
Width: 342
GlyphClass: 2
Flags: W
VStem: 18 287
LayerCount: 3
Fore
SplineSet
18 685 m 1
 76 685 l 1
 305 -254 l 1
 247 -254 l 1
 18 685 l 1
EndSplineSet
Validated: 1
EndChar

StartChar: bracketright
Encoding: 45 93 39
Width: 335
GlyphClass: 2
Flags: W
HStem: -147.001 22<19.0088 79.6364> 649 36<49.7 140.745> 659 22<20.3086 85.3>
VStem: 150 53<-110.505 645.658>
LayerCount: 3
Fore
SplineSet
203 685 m 1xd0
 203 -149.000976562 l 1
 134 -149.000976562 l 2
 110 -149.000976562 73.3330078125 -148.333984375 24 -147.000976562 c 0
 20.6669921875 -145.000976562 19 -141.500976562 19 -136.500976562 c 0
 19 -131.500976562 20.3330078125 -127.66796875 23 -125.000976562 c 1
 112 -114.000976562 l 2
 122.666992188 -113.333984375 131 -110.333984375 137 -105.000976562 c 0
 145.666992188 -95.66796875 150 -44.0009765625 150 49.9990234375 c 2
 150 483.999023438 l 2
 150 578.666015625 145.666992188 630.333007812 137 639 c 0
 131 645.666992188 122.666992188 649 112 649 c 1xd0
 23 659 l 1
 15.6669921875 669 16 676.333007812 24 681 c 1xb0
 77.7021484375 683.826171875 110.15625 685 134 685 c 2
 203 685 l 1xd0
EndSplineSet
Validated: 524289
EndChar

StartChar: circumflex
Encoding: 46 94 40
Width: 500
GlyphClass: 2
Flags: W
HStem: 606 20G<216.733 283.215>
LayerCount: 3
Fore
SplineSet
450 244 m 1
 388 244 l 1
 250 555 l 1
 112 244 l 1
 49 244 l 1
 226 626 l 1
 274 626 l 1
 450 244 l 1
EndSplineSet
Validated: 1
EndChar

StartChar: underscore
Encoding: 47 95 41
Width: 500
GlyphClass: 2
Flags: W
HStem: -125 50<0 500>
LayerCount: 3
Fore
SplineSet
500 -75 m 1
 500 -125 l 1
 0 -125 l 1
 0 -75 l 1
 500 -75 l 1
EndSplineSet
Validated: 1
EndChar

StartChar: grave
Encoding: 48 96 42
Width: 360
GlyphClass: 2
Flags: W
HStem: 467 196
VStem: 63 155
LayerCount: 3
Fore
SplineSet
63 624 m 0
 63 638.973632812 97.79296875 663 116 663 c 0
 126 663 133 653 139 640 c 2
 218 479 l 1
 218 470 203 466 197 467 c 1
 80 594 l 2
 68 607 63 616 63 624 c 0
EndSplineSet
Validated: 524289
EndChar

StartChar: a
Encoding: 49 97 43
Width: 440
GlyphClass: 2
Flags: W
HStem: -15.1659 38.7213<327.439 402.157> -14.002 45.001<139.688 236.148 381.594 406.805> 371.039 36.4284<150.364 270.685>
VStem: 47.8325 76.1185<47.3016 127.708 256.561 317.571> 284.001 71.001<57.9612 187.969 230.672 360.254>
AnchorPoint: "above" 221 578 basechar 0
AnchorPoint: "below" 232 -184 basechar 0
LayerCount: 3
Back
SplineSet
206 -62 m 0
 230 -62 251.5 -68.6666666667 270.5 -82 c 128
 289.5 -95.3333333333 299.333333333 -117.333333333 300 -148 c 0
 300.666666667 -180.666666667 290.5 -208.833333333 269.5 -232.5 c 128
 248.5 -256.166666667 221.666666667 -273.333333333 189 -284 c 1
 179 -276.666666667 176.333333333 -269 181 -261 c 1
 230.333333333 -240.333333333 254.666666667 -212 254 -176 c 0
 253.333333333 -158 246.166666667 -144.833333333 232.5 -136.5 c 128
 218.833333333 -128.166666667 203 -126.333333333 185 -131 c 1
 167 -129.666666667 157.666666667 -120.666666667 157 -104 c 0
 157 -92.6666666667 160.666666667 -82.8333333333 168 -74.5 c 128
 175.333333333 -66.1666666667 188 -62 206 -62 c 0
220 -216 m 0
 182 -216 152.333333333 -206 131 -186 c 128
 109.666666667 -166 96 -131.666666667 90 -83 c 1
 96.6666666667 -77 103 -77 109 -83 c 1
 116.333333333 -110.333333333 128.166666667 -130.5 144.5 -143.5 c 128
 160.833333333 -156.5 185.666666667 -163 219 -163 c 0
 251 -163 274.833333333 -156.5 290.5 -143.5 c 128
 306.166666667 -130.5 319.666666667 -110.333333333 331 -83 c 1
 337.666666667 -77 344 -77 350 -83 c 1
 342 -126.333333333 326.666666667 -159.333333333 304 -182 c 128
 281.333333333 -204.666666667 253.333333333 -216 220 -216 c 0
186 578 m 2xf2
 267 542 l 2
 285 534.666666667 299 535.166666667 309 543.5 c 0
 319 551.833333333 330.666666667 568 344 592 c 0
 346 596 349.166666667 597.666666667 353.5 597 c 0
 357.833333333 596.333333333 360.333333333 593.333333333 361 588 c 0
 363 555.333333333 354.666666667 528.333333333 336 507 c 0
 324.666666667 494.333333333 310.666666667 487 294 485 c 0
 277.333333333 483 261.333333333 484.666666667 246 490 c 2
 167 523 l 2
 139.666666667 535 111.333333333 518.666666667 82 474 c 0
 80 470 76.8333333333 469 72.5 471 c 0
 68.1666666667 473 65.6666666667 475.666666667 65 479 c 0
 62.3333333333 501 75 527.333333333 103 558 c 0
 111 568.666666667 123.166666667 576.333333333 139.5 581 c 0
 155.833333333 585.666666667 171.333333333 584.666666667 186 578 c 2xf2
125 93 m 0
 122.333333333 79 127.5 65.1666666667 140.5 51.5 c 0
 153.5 37.8333333333 173 31 199 31 c 0
 218.333333333 31 241 41 267 61 c 0
 275 67.6666666667 280 73.5 282 78.5 c 0
 284 83.5 284.666666667 92 284 104 c 2
 284 177 l 2xf4
 284 179.666666667 283.666666667 181.833333333 283 183.5 c 0
 282.333333333 185.166666667 280.833333333 186.166666667 278.5 186.5 c 0
 276.166666667 186.833333333 274.333333333 187.333333333 273 188 c 0
 264.333333333 187.333333333 247.666666667 183 223 175 c 0
 162.333333333 151 129.666666667 123.666666667 125 93 c 0
355 287 m 2
 355 102 l 2
 355 65.3333333333 359 41.8333333333 367 31.5 c 0
 375 21.1666666667 388.333333333 21.6666666667 407 33 c 0
 412.333333333 36.3333333333 415.333333333 35.3333333333 416 30 c 0
 416.666666667 24.6666666667 414.166666667 18 408.5 10 c 0
 402.833333333 2 394.666666667 -3.66666666667 384 -7 c 0
 358 -16.3333333333 339.333333333 -17.6666666667 328 -11 c 0
 316.666666667 -4.33333333333 304.666666667 7 292 23 c 0
 286.666666667 29.6666666667 281 33 275 33 c 0
 269.666666667 33 258.333333333 25.6666666667 241 11 c 0
 219 -5.66666666667 191.666666667 -14 159 -14 c 0
 127 -14 101.333333333 -6.33333333333 82 9 c 0
 57.3333333333 31 46 54.6666666667 48 80 c 0
 55.3333333333 142.666666667 126.333333333 188.666666667 261 218 c 0
 263.666666667 218 268.166666667 219.166666667 274.5 221.5 c 0
 280.833333333 223.833333333 284.5 226.833333333 285.5 230.5 c 0
 286.5 234.166666667 287 240.666666667 287 250 c 2
 287 285 l 2
 287 318.333333333 282.166666667 341 272.5 353 c 0
 262.833333333 365 241 371 207 371 c 0
 178.333333333 371.666666667 156.833333333 364.666666667 142.5 350 c 0
 128.166666667 335.333333333 121 318.666666667 121 300 c 0
 121.666666667 295.333333333 123.166666667 289.5 125.5 282.5 c 0
 127.833333333 275.5 127.666666667 271 125 269 c 0
 107 256.333333333 87.6666666667 250 67 250 c 0
 57.6666666667 250 53 255 53 265 c 0
 53 279 57 294 65 310 c 0
 73 326 85.1666666667 341.833333333 101.5 357.5 c 0
 117.833333333 373.166666667 138 385.833333333 162 395.5 c 0
 186 405.166666667 213 409 243 407 c 0
 317 404.333333333 354.333333333 364.333333333 355 287 c 2
197 -62 m 0
 221 -62 242.5 -68.6666666667 261.5 -82 c 0
 280.5 -95.3333333333 290.333333333 -117.333333333 291 -148 c 0
 291.666666667 -180.666666667 281.5 -208.833333333 260.5 -232.5 c 0
 239.5 -256.166666667 212.666666667 -273.333333333 180 -284 c 1
 170 -276.666666667 167.333333333 -269 172 -261 c 1
 221.333333333 -240.333333333 245.666666667 -212 245 -176 c 0xf8
 244.333333333 -158 237.166666667 -144.833333333 223.5 -136.5 c 0
 209.833333333 -128.166666667 194 -126.333333333 176 -131 c 1
 158 -129.666666667 148.666666667 -120.666666667 148 -104 c 0
 148 -92.6666666667 151.666666667 -82.8333333333 159 -74.5 c 0
 166.333333333 -66.1666666667 179 -62 197 -62 c 0
232 -97 m 0xfd
 256.666992188 -97 277.330078125 -105.000976562 293.997070312 -121.000976562 c 0
 310.6640625 -137.000976562 318.997070312 -158.000976562 318.997070312 -184.000976562 c 0
 318.997070312 -208.000976562 310.330078125 -228.333984375 292.997070312 -245.000976562 c 0
 275.6640625 -261.66796875 255.331054688 -270.000976562 231.998046875 -270.000976562 c 0
 208.665039062 -270.000976562 188.33203125 -261.333984375 170.999023438 -244.000976562 c 0
 153.666015625 -226.66796875 144.999023438 -206.66796875 144.999023438 -184.000976562 c 0
 144.999023438 -159.333984375 153.33203125 -138.666992188 169.999023438 -122 c 0
 186.666015625 -105.333007812 207.333007812 -97 232 -97 c 0xfd
231.99609375 -125.000976562 m 0
 215.329101562 -125.000976562 201.329101562 -130.66796875 189.99609375 -142.000976562 c 0
 178.663085938 -153.333984375 172.99609375 -167.333984375 172.99609375 -184.000976562 c 0
 172.99609375 -199.333984375 178.99609375 -213.000976562 190.99609375 -225.000976562 c 0
 202.99609375 -237.000976562 216.663085938 -243.000976562 231.99609375 -243.000976562 c 0
 247.329101562 -243.000976562 260.99609375 -237.333984375 272.99609375 -226.000976562 c 0
 284.99609375 -214.66796875 290.99609375 -200.66796875 290.99609375 -184.000976562 c 0
 290.99609375 -166.000976562 285.329101562 -151.66796875 273.99609375 -141.000976562 c 0
 262.663085938 -130.333984375 248.663085938 -125.000976562 231.99609375 -125.000976562 c 0
225 -223 m 0
 208.333333333 -223 195 -217.5 185 -206.5 c 128
 175 -195.5 170 -181.666666667 170 -165 c 0
 170 -147 175.5 -133.166666667 186.5 -123.5 c 128
 197.5 -113.833333333 211.333333333 -109 228 -109 c 256
 244.666666667 -109 258.333333333 -114.333333333 269 -125 c 128
 279.666666667 -135.666666667 285 -148.333333333 285 -163 c 0
 285 -180.333333333 279 -194.666666667 267 -206 c 128
 255 -217.333333333 241 -223 225 -223 c 0
187 -104 m 2
 268 -138 l 2
 286 -145.333333333 300 -145 310 -137 c 128
 320 -129 331.666666667 -113 345 -89 c 0
 347 -85.6666666667 350.166666667 -84.3333333333 354.5 -85 c 128
 358.833333333 -85.6666666667 361.333333333 -88.3333333333 362 -93 c 0
 364 -125 355.666666667 -151.666666667 337 -173 c 0
 325 -187 310.333333333 -194.666666667 293 -196 c 128
 275.666666667 -197.333333333 260.333333333 -195.666666667 247 -191 c 2
 168 -157 l 2
 139.333333333 -145.666666667 111 -162.666666667 83 -208 c 0
 81 -210.666666667 78 -211.333333333 74 -210 c 128
 70 -208.666666667 67.3333333333 -206 66 -202 c 0
 63.3333333333 -180.666666667 76 -154.666666667 104 -124 c 0
 112 -113.333333333 124.166666667 -105.666666667 140.5 -101 c 128
 156.833333333 -96.3333333333 172.333333333 -97.3333333333 187 -104 c 2
EndSplineSet
Fore
SplineSet
127.213513947 273.758623253 m 0x78
 127.213513947 266.907056335 98.4689691126 249.997070312 67.0009765625 249.997070312 c 0
 57.66796875 249.997070312 53.0009765625 254.997070312 53.0009765625 264.997070312 c 0
 53.0009765625 316.674051922 117.379559925 407.46788743 228.977503015 407.46788743 c 0
 281.475008377 407.46788743 354.066452082 395.348547769 355.000976562 286.997070312 c 2
 355.001953125 101.99609375 l 2
 355.001953125 38.3355326375 367.406371116 23.5553867429 381.039859139 23.5553867429 c 0
 392.858237471 23.5553867429 405.60020415 34.6619715265 411.986054234 34.6619715265 c 0
 413.638943857 34.6619715265 416.16504461 34.0899905854 416.16504461 27.386617855 c 0
 416.16504461 3.59976839229 375.543068756 -15.1658988118 347.04477286 -15.1658988118 c 0xb8
 307.833933255 -15.1658988118 296.30709447 32.998046875 275.000976562 32.998046875 c 0
 255.673828125 32.998046875 236.959960938 -14.001953125 159.001953125 -14.001953125 c 0
 73.8776160516 -14.001953125 47.8324696424 42.9758879203 47.8324696424 75.5685718297 c 0
 47.8324696424 110.562119811 74.5755021428 177.390853869 261.001953125 217.998046875 c 0
 261.27734375 217.998046875 282.864257812 220.825195312 285.501953125 230.498046875 c 0
 286.501953125 234.165039062 287.001953125 240.665039062 287.001953125 249.998046875 c 2
 287.001953125 284.998046875 l 2
 287.001953125 355.51171875 269.528320312 370.998046875 207.001953125 370.998046875 c 0
 205.810023852 371.025776348 204.634511562 371.039453897 203.475191794 371.039453897 c 0
 151.232437968 371.039453897 121.841627925 340.116152193 121.841627925 304.479651107 c 0
 121.841627925 289.382572317 127.213513947 279.69279588 127.213513947 273.758623253 c 0x78
123.951006627 87.1774495622 m 0
 123.951006627 75.5678296352 134.167351164 30.9990234375 199.000976562 30.9990234375 c 0x78
 231.919921875 30.9990234375 276.0859375 63.7109375 282.000976562 78.4990234375 c 0
 284.000976562 83.4990234375 284.66796875 91.9990234375 284.000976562 103.999023438 c 2
 284.000976562 176.999023438 l 2
 284.000976562 185.161132812 281.193359375 186.115234375 278.500976562 186.5 c 0
 276.16796875 186.833007812 274.334960938 187.333007812 273.001953125 188 c 0
 235.275609753 185.096918755 123.951006627 141.715527551 123.951006627 87.1774495622 c 0
EndSplineSet
Validated: 1572865
EndChar

StartChar: b
Encoding: 50 98 44
Width: 515
GlyphClass: 2
Flags: W
HStem: -13.999 29.998<195.948 311.809> 363.999 43<183.121 307.371>
VStem: 75 74<54.4415 348.646 374.004 641.799> 381 84<111.541 284.568>
AnchorPoint: "below" 249 -184 basechar 0
LayerCount: 3
Back
SplineSet
266 -97 m 260
 290.666666667 -97 311.333333333 -105 328 -121 c 132
 344.666666667 -137 353 -158 353 -184 c 4
 353 -208 344.333333333 -228.333333333 327 -245 c 132
 309.666666667 -261.666666667 289.333333333 -270 266 -270 c 260
 242.666666667 -270 222.333333333 -261.333333333 205 -244 c 132
 187.666666667 -226.666666667 179 -206.666666667 179 -184 c 4
 179 -159.333333333 187.333333333 -138.666666667 204 -122 c 132
 220.666666667 -105.333333333 241.333333333 -97 266 -97 c 260
266 -125 m 260
 249.333333333 -125 235.333333333 -130.666666667 224 -142 c 132
 212.666666667 -153.333333333 207 -167.333333333 207 -184 c 4
 207 -199.333333333 213 -213 225 -225 c 132
 237 -237 250.666666667 -243 266 -243 c 260
 281.333333333 -243 295 -237.333333333 307 -226 c 132
 319 -214.666666667 325 -200.666666667 325 -184 c 4
 325 -166 319.333333333 -151.666666667 308 -141 c 132
 296.666666667 -130.333333333 282.666666667 -125 266 -125 c 260
-1 669 m 4
 42.3333333333 683.666666667 88 704 136 730 c 4
 138 731.333333333 142 730.666666667 148 728 c 132
 154 725.333333333 157 723 157 721 c 6
 149 604 l 5
 149 395 l 6
 149 381 152.333333333 374 159 374 c 5
 199.666666667 396 238 407 274 407 c 4
 312 407 345.333333333 398.333333333 374 381 c 132
 402.666666667 363.666666667 425 340.333333333 441 311 c 132
 457 281.666666667 465 248.333333333 465 211 c 4
 465 169 455.166666667 130.5 435.5 95.5 c 132
 415.833333333 60.5 388.666666667 33.5 354 14.5 c 132
 319.333333333 -4.5 279.666666667 -14 235 -14 c 4
 203 -14 174.666666667 -9.66666666667 150 -1 c 4
 141.333333333 1.66666666667 132.833333333 4.5 124.5 7.5 c 132
 116.166666667 10.5 110.333333333 12 107 12 c 4
 101.666666667 12.6666666667 93.3333333333 5 82 -11 c 4
 81.3333333333 -11.6666666667 80.3333333333 -12 79 -12 c 4
 74.3333333333 -12 71 -10 69 -6 c 5
 73 11.3333333333 75 42.3333333333 75 87 c 6
 75 600 l 6
 75 620.666666667 71 633.333333333 63 638 c 132
 55 642.666666667 39.3333333333 645.666666667 16 647 c 6
 -2 649 l 5
 -4 652.333333333 -5 656.166666667 -5 660.5 c 132
 -5 664.833333333 -3.66666666667 667.666666667 -1 669 c 4
147 291 m 6
 147 135 l 6
 147 99 156 70.3333333333 174 49 c 4
 192 27 217.333333333 16 250 16 c 4
 294 16 326.833333333 31.8333333333 348.5 63.5 c 132
 370.166666667 95.1666666667 381 134.666666667 381 182 c 4
 381 236 367.666666667 279.833333333 341 313.5 c 132
 314.333333333 347.166666667 277 364 229 364 c 4
 201 364 178.333333333 359 161 349 c 4
 151.666666667 341.666666667 147 322.333333333 147 291 c 6
EndSplineSet
Fore
SplineSet
381 181.999023438 m 0
 381 214.045898438 373.291015625 363.999023438 229 363.999023438 c 0
 201 363.999023438 178.333007812 358.999023438 161 348.999023438 c 0
 151.666992188 341.666015625 147 322.333007812 147 291 c 2
 147 134.999023438 l 2
 147 111.590820312 152.94140625 15.9990234375 250 15.9990234375 c 0
 294 15.9990234375 326.833007812 31.83203125 348.5 63.4990234375 c 0
 370.166992188 95.166015625 381 134.666015625 381 181.999023438 c 0
106.999023438 12.0009765625 m 0
 106.737211931 12.0337183294 106.474218427 12.0496780698 106.210183863 12.0496780698 c 0
 95.9608960962 12.0496780698 84.1429029661 -11.9990234375 79 -11.9990234375 c 0
 74.3330078125 -11.9990234375 71 -9.9990234375 69 -5.9990234375 c 0
 73 11.333984375 75 42.333984375 75 87.0009765625 c 2
 75 600.000976562 l 2
 75 636.657226562 67.099609375 644.08203125 16 647.000976562 c 1
 -2 649.000976562 l 1
 -4 652.333984375 -5 656.166992188 -5 660.5 c 0
 -5 664.833007812 -3.6669921875 667.666015625 -1 668.999023438 c 0
 42.3330078125 683.666015625 88 703.999023438 136 729.999023438 c 0
 140.205078125 732.801757812 157 725.052734375 157 720.999023438 c 2
 149 603.999023438 l 1
 149 394.999023438 l 2
 149 380.999023438 152.333007812 373.999023438 159 373.999023438 c 0
 199.666992188 395.999023438 238 406.999023438 274 406.999023438 c 0
 388.354492188 406.999023438 465 322.28125 465 211.000976562 c 0
 465 93.8720703125 383.720703125 -13.9990234375 234.998046875 -13.9990234375 c 0
 158.265625 -13.9990234375 124.840820312 12.0009765625 106.999023438 12.0009765625 c 0
EndSplineSet
Validated: 1572865
EndChar

StartChar: c
Encoding: 51 99 45
Width: 423
GlyphClass: 2
Flags: W
HStem: -14.999 57<187.756 321.381> 373.001 33.999<181.524 305.607>
VStem: 36 72.001<128.335 279.332>
LayerCount: 3
Back
SplineSet
278 407 m 0
 312 407 341.666666667 401.333333333 367 390 c 1
 377 381.333333333 382 368 382 350 c 0
 382 340.666666667 379.833333333 332.166666667 375.5 324.5 c 128
 371.166666667 316.833333333 366 313 360 313 c 0
 354.666666667 313 350 315.333333333 346 320 c 0
 318 355.333333333 284.666666667 373 246 373 c 0
 208.666666667 373 176.333333333 358.666666667 149 330 c 128
 121.666666667 301.333333333 108 262 108 212 c 0
 108 185.333333333 114.166666667 158.833333333 126.5 132.5 c 128
 138.833333333 106.166666667 157.166666667 84.5 181.5 67.5 c 128
 205.833333333 50.5 235 42 269 42 c 0
 315.666666667 42 352.666666667 62 380 102 c 0
 384 103.333333333 388 102.5 392 99.5 c 128
 396 96.5 398 92.6666666667 398 88 c 0
 382 52.6666666667 358.5 26.6666666667 327.5 10 c 128
 296.5 -6.66666666667 264.333333333 -15 231 -15 c 0
 175.666666667 -15 130 2.33333333333 94 37 c 0
 55.3333333333 73.6666666667 36 123 36 185 c 0
 36 244.333333333 57.1666666667 296.166666667 99.5 340.5 c 128
 141.833333333 384.833333333 201.333333333 407 278 407 c 0
234 -223 m 0
 217.333333333 -223 204 -217.5 194 -206.5 c 128
 184 -195.5 179 -181.666666667 179 -165 c 0
 179 -147 184.5 -133.166666667 195.5 -123.5 c 128
 206.5 -113.833333333 220.333333333 -109 237 -109 c 256
 253.666666667 -109 267.333333333 -114.333333333 278 -125 c 128
 288.666666667 -135.666666667 294 -148.333333333 294 -163 c 0
 294 -180.333333333 288 -194.666666667 276 -206 c 128
 264 -217.333333333 250 -223 234 -223 c 0
EndSplineSet
Fore
SplineSet
231 -14.9990234375 m 0
 122.79296875 -14.9990234375 36 57.8564453125 36 185.000976562 c 0
 36 244.333984375 57.1669921875 296.166992188 99.5 340.5 c 0
 141.833007812 384.833007812 201.333007812 407 278 407 c 0
 312 407 341.666992188 401.333984375 367 390.000976562 c 0
 377 381.333984375 382 368.000976562 382 350.000976562 c 0
 382 332.0625 372.6875 313.000976562 360.000976562 313.000976562 c 0
 340.611328125 313.000976562 320.111328125 373.000976562 246 373.000976562 c 0
 185.775390625 373.000976562 108.000976562 328.1796875 108.000976562 212.000976562 c 0
 108.000976562 141.48046875 156.014648438 42.0009765625 269 42.0009765625 c 0
 315.666992188 42.0009765625 352.666992188 62.0009765625 380 102.000976562 c 1
 387.9375 104.646484375 398 97.7119140625 398 88.0009765625 c 1
 382 52.66796875 358.5 26.66796875 327.5 10.0009765625 c 0
 296.5 -6.666015625 264.333007812 -14.9990234375 231 -14.9990234375 c 0
EndSplineSet
Validated: 524289
EndChar

StartChar: d
Encoding: 52 100 46
Width: 524
GlyphClass: 2
Flags: W
HStem: -14 48.0029<190.197 304.665> 8 32.4205<453.421 501.721> 376.003 30.9971<192.673 310.906> 649.004 20<267.047 287.999> 710.001 20G<386.999 417.999>
VStem: 35 81.998<116.663 278.714> 351.999 72<62.2888 344.711 398.003 640.354>
AnchorPoint: "below" 266 -184 basechar 0
LayerCount: 3
Back
SplineSet
266 -97 m 260
 290.666666667 -97 311.333333333 -105 328 -121 c 132
 344.666666667 -137 353 -158 353 -184 c 4
 353 -208 344.333333333 -228.333333333 327 -245 c 132
 309.666666667 -261.666666667 289.333333333 -270 266 -270 c 260
 242.666666667 -270 222.333333333 -261.333333333 205 -244 c 132
 187.666666667 -226.666666667 179 -206.666666667 179 -184 c 4
 179 -159.333333333 187.333333333 -138.666666667 204 -122 c 132
 220.666666667 -105.333333333 241.333333333 -97 266 -97 c 260
266 -125 m 260
 249.333333333 -125 235.333333333 -130.666666667 224 -142 c 132
 212.666666667 -153.333333333 207 -167.333333333 207 -184 c 4
 207 -199.333333333 213 -213 225 -225 c 132
 237 -237 250.666666667 -243 266 -243 c 260
 281.333333333 -243 295 -237.333333333 307 -226 c 132
 319 -214.666666667 325 -200.666666667 325 -184 c 4
 325 -166 319.333333333 -151.666666667 308 -141 c 132
 296.666666667 -130.333333333 282.666666667 -125 266 -125 c 260
350 600 m 6
 350 620.666666667 345.666666667 633.333333333 337 638 c 132
 328.333333333 642.666666667 312 645.666666667 288 647 c 6
 270 649 l 5
 268 652.333333333 267 656.166666667 267 660.5 c 132
 267 664.833333333 268.333333333 667.666666667 271 669 c 4
 316.333333333 684.333333333 363 704.666666667 411 730 c 5
 425 727.333333333 432 724.333333333 432 721 c 6
 424 646 l 5
 424 146 l 6
 424.666666667 128.666666667 425.333333333 110 426 90 c 132
 426.666666667 70 427.666666667 56.1666666667 429 48.5 c 132
 430.333333333 40.8333333333 433 35.6666666667 437 33 c 132
 441 30.3333333333 446.333333333 29 453 29 c 4
 457.666666667 29 472 32.6666666667 496 40 c 4
 498 41.3333333333 499.666666667 39.5 501 34.5 c 132
 502.333333333 29.5 502.333333333 24.3333333333 501 19 c 132
 499.666666667 13.6666666667 497.666666667 10 495 8 c 4
 446.333333333 2 402.333333333 -8.66666666667 363 -24 c 4
 355.666666667 -24 352 -21.3333333333 352 -16 c 6
 352 1 l 6
 352 19 351.333333333 29 350 31 c 6
 346 31 l 5
 300.666666667 1 258.666666667 -14 220 -14 c 4
 166 -14 121.666666667 4.66666666667 87 42 c 132
 52.3333333333 79.3333333333 35 124.333333333 35 177 c 4
 35 245.666666667 58 301.166666667 104 343.5 c 132
 150 385.833333333 207.666666667 407 277 407 c 4
 305 407 327.333333333 404 344 398 c 4
 348 398 350 402.666666667 350 412 c 6
 350 600 l 6
352 99 m 6
 352 295 l 6
 352 308.333333333 347.666666667 321.333333333 339 334 c 4
 319 362 291 376 255 376 c 4
 211.666666667 376 177.833333333 359.833333333 153.5 327.5 c 132
 129.166666667 295.166666667 117 256 117 210 c 4
 117 162 130.333333333 120.666666667 157 86 c 132
 183.666666667 51.3333333333 220 34 266 34 c 4
 298.666666667 34 324.333333333 43.3333333333 343 62 c 4
 349 68 352 80.3333333333 352 99 c 6
350 600 m 2
 350 620.666666667 345.666666667 633.333333333 337 638 c 128
 328.333333333 642.666666667 312 645.666666667 288 647 c 2
 270 649 l 1
 268 652.333333333 267 656.166666667 267 660.5 c 128
 267 664.833333333 268.333333333 667.666666667 271 669 c 0
 316.333333333 684.333333333 363 704.666666667 411 730 c 1
 425 727.333333333 432 724.333333333 432 721 c 2
 424 646 l 1
 424 146 l 2
 424.666666667 128.666666667 425.333333333 110 426 90 c 128
 426.666666667 70 427.666666667 56.1666666667 429 48.5 c 128
 430.333333333 40.8333333333 433 35.6666666667 437 33 c 128
 441 30.3333333333 446.333333333 29 453 29 c 0
 457.666666667 29 472 32.6666666667 496 40 c 0
 498 41.3333333333 499.666666667 39.5 501 34.5 c 128
 502.333333333 29.5 502.333333333 24.3333333333 501 19 c 128
 499.666666667 13.6666666667 497.666666667 10 495 8 c 0
 446.333333333 2 402.333333333 -8.66666666667 363 -24 c 0
 355.666666667 -24 352 -21.3333333333 352 -16 c 2
 352 1 l 2
 352 19 351.333333333 29 350 31 c 2
 346 31 l 1
 300.666666667 1 258.666666667 -14 220 -14 c 0
 166 -14 121.666666667 4.66666666667 87 42 c 128
 52.3333333333 79.3333333333 35 124.333333333 35 177 c 0
 35 245.666666667 58 301.166666667 104 343.5 c 128
 150 385.833333333 207.666666667 407 277 407 c 0
 305 407 327.333333333 404 344 398 c 0
 348 398 350 402.666666667 350 412 c 2
 350 600 l 2
352 99 m 2
 352 295 l 2
 352 308.333333333 347.666666667 321.333333333 339 334 c 0
 319 362 291 376 255 376 c 0
 211.666666667 376 177.833333333 359.833333333 153.5 327.5 c 128
 129.166666667 295.166666667 117 256 117 210 c 0
 117 162 130.333333333 120.666666667 157 86 c 128
 183.666666667 51.3333333333 220 34 266 34 c 0
 298.666666667 34 324.333333333 43.3333333333 343 62 c 0
 349 68 352 80.3333333333 352 99 c 2
266 -223 m 0
 249.333333333 -223 236 -217.5 226 -206.5 c 128
 216 -195.5 211 -181.666666667 211 -165 c 0
 211 -147 216.5 -133.166666667 227.5 -123.5 c 128
 238.5 -113.833333333 252.333333333 -109 269 -109 c 256
 285.666666667 -109 299.333333333 -114.333333333 310 -125 c 128
 320.666666667 -135.666666667 326 -148.333333333 326 -163 c 0
 326 -180.333333333 320 -194.666666667 308 -206 c 128
 296 -217.333333333 282 -223 266 -223 c 0
EndSplineSet
Fore
SplineSet
116.998046875 210.002929688 m 0xbe
 116.998046875 129.501953125 161.010742188 34.0029296875 265.998046875 34.0029296875 c 0
 298.665039062 34.0029296875 324.33203125 43.3359375 342.999023438 62.0029296875 c 0
 348.999023438 68.0029296875 351.999023438 80.3359375 351.999023438 99.0029296875 c 2
 351.997070312 295.002929688 l 2
 351.997070312 327.758789062 319.705078125 376.002929688 254.997070312 376.002929688 c 0
 154.482421875 376.002929688 116.998046875 284.564453125 116.998046875 210.002929688 c 0xbe
453 29 m 0
 461.568580643 29 496.784273184 40.4204787254 497.24118784 40.4204787254 c 0
 499.945076557 40.4204787254 501.837919067 34.1902309359 501.837919067 27.0298907519 c 0
 501.837919067 19.8316244197 499.924971829 11.6933867651 495 8 c 0x7e
 446.333007812 2 402.333007812 -8.6669921875 363 -24 c 0
 355.666992188 -24 352 -21.3330078125 352 -16 c 2
 352 1 l 2
 352 19 351.333007812 29 350 31 c 1
 346 31 l 1
 300.666992188 1 258.666992188 -14 220 -14 c 0
 105.098632812 -14 35 77.1953125 35 177 c 0
 35 322.029296875 144.655273438 407 277 407 c 0
 305 407 327.333007812 404 344 398 c 0
 348 398 350 402.666992188 350 412 c 2
 350 600 l 2
 350 636.145507812 341.615234375 644.026367188 287.999023438 647.00390625 c 1
 269.999023438 649.00390625 l 1
 267.999023438 652.336914062 266.999023438 656.169921875 266.999023438 660.502929688 c 0
 266.999023438 664.8359375 268.33203125 667.668945312 270.999023438 669.001953125 c 0
 316.33203125 684.334960938 362.999023438 704.66796875 410.999023438 730.000976562 c 1
 424.999023438 727.333984375 431.999023438 724.333984375 431.999023438 721.000976562 c 2
 423.999023438 646.000976562 l 1
 423.999023438 146.000976562 l 1
 428.119140625 38.9208984375 428.119140625 38.9208984375 437 33 c 0
 441 30.3330078125 446.333007812 29 453 29 c 0
EndSplineSet
Validated: 1572865
EndChar

StartChar: e
Encoding: 53 101 47
Width: 414
GlyphClass: 2
Flags: W
HStem: -15 57.001<175.277 303.954> 237.003 31<112.448 299.602> 377.003 29.9971<174.84 278.278>
VStem: 32.999 68<119.004 262.775> 305.998 74.6384<253.824 341.183>
AnchorPoint: "above" 232 579 basechar 0
AnchorPoint: "below" 213 -184 basechar 0
LayerCount: 3
Back
SplineSet
199 578 m 6
 280 542 l 6
 298 534.666666667 312 535.166666667 322 543.5 c 132
 332 551.833333333 343.666666667 568 357 592 c 4
 359 596 362.166666667 597.666666667 366.5 597 c 132
 370.833333333 596.333333333 373.333333333 593.333333333 374 588 c 4
 376 555.333333333 367.666666667 528.333333333 349 507 c 4
 337.666666667 494.333333333 323.666666667 487 307 485 c 132
 290.333333333 483 274.333333333 484.666666667 259 490 c 6
 180 523 l 6
 152.666666667 535 124.333333333 518.666666667 95 474 c 4
 93 470 89.8333333333 469 85.5 471 c 132
 81.1666666667 473 78.6666666667 475.666666667 78 479 c 4
 75.3333333333 501 88 527.333333333 116 558 c 4
 124 568.666666667 136.166666667 576.333333333 152.5 581 c 132
 168.833333333 585.666666667 184.333333333 584.666666667 199 578 c 6
208 -216 m 0
 170 -216 140.333333333 -206 119 -186 c 128
 97.6666666667 -166 84 -131.666666667 78 -83 c 1
 84.6666666667 -77 91 -77 97 -83 c 1
 104.333333333 -110.333333333 116.166666667 -130.5 132.5 -143.5 c 128
 148.833333333 -156.5 173.666666667 -163 207 -163 c 0
 239 -163 262.833333333 -156.5 278.5 -143.5 c 128
 294.166666667 -130.5 307.666666667 -110.333333333 319 -83 c 1
 325.666666667 -77 332 -77 338 -83 c 1
 330 -126.333333333 314.666666667 -159.333333333 292 -182 c 128
 269.333333333 -204.666666667 241.333333333 -216 208 -216 c 0
326 237 m 2
 127.998046875 237.002929688 l 2
 114.665039062 237.002929688 106.83203125 235.669921875 104.499023438 233.002929688 c 0
 102.166015625 230.3359375 100.999023438 222.668945312 100.999023438 210.001953125 c 0
 100.999023438 159.334960938 115.499023438 118.66796875 144.499023438 88.0009765625 c 0
 173.499023438 57.333984375 214.33203125 42.0009765625 266.999023438 42.0009765625 c 0
 302.999023438 42.0009765625 333.666015625 58.0009765625 358.999023438 90.0009765625 c 1
 369.666015625 93.333984375 375.666015625 89.6669921875 376.999023438 79 c 1
 362.999023438 49 340.499023438 25.8330078125 309.499023438 9.5 c 0
 278.499023438 -6.8330078125 248.666015625 -15 219.999023438 -15 c 0
 157.999023438 -15 109.666015625 7 74.9990234375 51 c 0
 46.9990234375 87.6669921875 32.9990234375 131.333984375 32.9990234375 182.000976562 c 0
 32.9990234375 245.333984375 51.83203125 298.666992188 89.4990234375 342 c 0
 127.166015625 385.333007812 175.333007812 407 234 407 c 0
 279.333007812 407 314 394.666992188 338 370 c 0
 362 345.333007812 376 312.333007812 380 271 c 0
 380.666992188 257.666992188 380.666992188 249 380 245 c 0
 378.666992188 239.666992188 360.666992188 237 326 237 c 2
118.998046875 268.002929688 m 2
 189.998046875 268.001953125 l 2
 255.331054688 268.001953125 291.998046875 271.001953125 299.998046875 277.001953125 c 0
 303.998046875 279.668945312 305.998046875 292.001953125 305.998046875 314.001953125 c 0
 305.998046875 330.668945312 298.831054688 345.3359375 284.498046875 358.002929688 c 0
 270.165039062 370.669921875 249.665039062 377.002929688 222.998046875 377.002929688 c 0
 195.665039062 377.002929688 170.665039062 364.502929688 147.998046875 339.502929688 c 0
 125.331054688 314.502929688 113.331054688 292.002929688 111.998046875 272.002929688 c 0
 111.998046875 269.3359375 114.331054688 268.002929688 118.998046875 268.002929688 c 2
208.998046875 -222.998046875 m 0
 192.331054688 -222.998046875 178.997070312 -217.498046875 168.997070312 -206.498046875 c 0
 158.997070312 -195.498046875 153.997070312 -181.665039062 153.997070312 -164.998046875 c 0
 153.997070312 -146.998046875 159.497070312 -133.165039062 170.497070312 -123.498046875 c 0
 181.497070312 -113.831054688 195.330078125 -108.998046875 211.997070312 -108.998046875 c 0
 228.6640625 -108.998046875 242.331054688 -114.331054688 252.998046875 -124.998046875 c 0
 263.665039062 -135.665039062 268.998046875 -148.33203125 268.998046875 -162.999023438 c 0
 268.998046875 -180.33203125 262.998046875 -194.665039062 250.998046875 -205.998046875 c 0
 238.998046875 -217.331054688 224.998046875 -222.998046875 208.998046875 -222.998046875 c 0
182.998046875 -103.998046875 m 2
 263.997070312 -137.997070312 l 2
 281.997070312 -145.330078125 295.997070312 -144.997070312 305.997070312 -136.997070312 c 0
 315.997070312 -128.997070312 327.6640625 -112.997070312 340.997070312 -88.9970703125 c 0
 342.997070312 -85.6640625 346.1640625 -84.3310546875 350.497070312 -84.998046875 c 0
 354.830078125 -85.6650390625 357.330078125 -88.33203125 357.997070312 -92.9990234375 c 0
 359.997070312 -124.999023438 351.6640625 -151.666015625 332.997070312 -172.999023438 c 0
 320.997070312 -186.999023438 306.330078125 -194.666015625 288.997070312 -195.999023438 c 0
 271.6640625 -197.33203125 256.331054688 -195.665039062 242.998046875 -190.998046875 c 2
 163.998046875 -156.998046875 l 2
 135.331054688 -145.665039062 106.998046875 -162.665039062 78.998046875 -207.998046875 c 0
 76.998046875 -210.665039062 73.998046875 -211.33203125 69.998046875 -209.999023438 c 0
 65.998046875 -208.666015625 63.3310546875 -205.999023438 61.998046875 -201.999023438 c 0
 59.3310546875 -180.666015625 71.998046875 -154.666015625 99.998046875 -123.999023438 c 0
 107.998046875 -113.33203125 120.165039062 -105.665039062 136.498046875 -100.998046875 c 0
 152.831054688 -96.3310546875 168.331054688 -97.3310546875 182.998046875 -103.998046875 c 2
209.998046875 -59.998046875 m 1
 339.998046875 -275.998046875 l 1
 75.998046875 -275.998046875 l 1
 209.998046875 -59.998046875 l 1
208.998046875 -133.998046875 m 1
 135.998046875 -242.998046875 l 1
 279.998046875 -242.998046875 l 1
 208.998046875 -133.998046875 l 1
117.998046875 -193.998046875 m 0
 104.665039062 -193.998046875 93.498046875 -190.166015625 84.498046875 -182.499023438 c 0
 75.498046875 -174.83203125 70.998046875 -163.665039062 70.998046875 -148.998046875 c 0
 70.3310546875 -134.998046875 74.498046875 -123.498046875 83.498046875 -114.498046875 c 0
 92.498046875 -105.498046875 103.998046875 -100.998046875 117.998046875 -100.998046875 c 0
 131.998046875 -100.998046875 143.165039062 -105.498046875 151.498046875 -114.498046875 c 0
 159.831054688 -123.498046875 163.998046875 -133.998046875 163.998046875 -145.998046875 c 0xf6
 163.998046875 -159.998046875 159.831054688 -171.498046875 151.498046875 -180.498046875 c 0
 143.165039062 -189.498046875 131.998046875 -193.998046875 117.998046875 -193.998046875 c 0
305.998046875 -193.999023438 m 0
 292.665039062 -193.999023438 281.331054688 -190.165039062 271.998046875 -182.498046875 c 0
 262.665039062 -174.831054688 257.998046875 -163.6640625 257.998046875 -148.997070312 c 0
 257.998046875 -134.997070312 262.498046875 -123.497070312 271.498046875 -114.497070312 c 0
 280.498046875 -105.497070312 291.998046875 -100.997070312 305.998046875 -100.997070312 c 0
 319.998046875 -100.997070312 330.998046875 -105.330078125 338.998046875 -113.997070312 c 0
 346.998046875 -122.6640625 350.998046875 -133.331054688 350.998046875 -145.998046875 c 0
 350.998046875 -160.665039062 346.998046875 -172.33203125 338.998046875 -180.999023438 c 0
 330.998046875 -189.666015625 319.998046875 -193.999023438 305.998046875 -193.999023438 c 0
212.998046875 -96.998046875 m 0
 237.665039062 -96.998046875 258.328125 -104.999023438 274.995117188 -120.999023438 c 0
 291.662109375 -136.999023438 299.995117188 -157.999023438 299.995117188 -183.999023438 c 0
 299.995117188 -207.999023438 291.328125 -228.33203125 273.995117188 -244.999023438 c 0
 256.662109375 -261.666015625 236.329101562 -269.999023438 212.99609375 -269.999023438 c 0
 189.663085938 -269.999023438 169.330078125 -261.33203125 151.997070312 -243.999023438 c 0
 134.6640625 -226.666015625 125.997070312 -206.666015625 125.997070312 -183.999023438 c 0
 125.997070312 -159.33203125 134.330078125 -138.665039062 150.997070312 -121.998046875 c 0
 167.6640625 -105.331054688 188.331054688 -96.998046875 212.998046875 -96.998046875 c 0
212.994140625 -124.999023438 m 0
 196.327148438 -124.999023438 182.327148438 -130.666015625 170.994140625 -141.999023438 c 0
 159.661132812 -153.33203125 153.994140625 -167.33203125 153.994140625 -183.999023438 c 0
 153.994140625 -199.33203125 159.994140625 -212.999023438 171.994140625 -224.999023438 c 0
 183.994140625 -236.999023438 197.661132812 -242.999023438 212.994140625 -242.999023438 c 0
 228.327148438 -242.999023438 241.994140625 -237.33203125 253.994140625 -225.999023438 c 0
 265.994140625 -214.666015625 271.994140625 -200.666015625 271.994140625 -183.999023438 c 0
 271.994140625 -165.999023438 266.327148438 -151.666015625 254.994140625 -140.999023438 c 0
 243.661132812 -130.33203125 229.661132812 -124.999023438 212.994140625 -124.999023438 c 0
193.998046875 578.001953125 m 2
 274.997070312 542.000976562 l 2
 292.997070312 534.66796875 306.997070312 535.16796875 316.997070312 543.500976562 c 0
 326.997070312 551.833984375 338.6640625 568.000976562 351.997070312 592.000976562 c 0
 353.997070312 596.000976562 357.1640625 597.66796875 361.497070312 597.000976562 c 0
 365.830078125 596.333984375 368.330078125 593.333984375 368.997070312 588.000976562 c 0
 370.997070312 555.333984375 362.6640625 528.333984375 343.997070312 507.000976562 c 0
 332.6640625 494.333984375 318.6640625 487.000976562 301.997070312 485.000976562 c 0
 285.330078125 483.000976562 269.330078125 484.66796875 253.997070312 490.000976562 c 2
 174.997070312 523.000976562 l 2
 147.6640625 535.000976562 119.331054688 518.66796875 89.998046875 474.000976562 c 0
 87.998046875 470.000976562 84.8310546875 469.000976562 80.498046875 471.000976562 c 0
 76.1650390625 473.000976562 73.6650390625 475.66796875 72.998046875 479.000976562 c 0
 70.3310546875 501.000976562 82.998046875 527.333984375 110.998046875 558.000976562 c 0
 118.998046875 568.66796875 131.165039062 576.334960938 147.498046875 581.001953125 c 0
 163.831054688 585.668945312 179.331054688 584.668945312 193.998046875 578.001953125 c 2
194.998046875 -61.998046875 m 0
 218.998046875 -61.998046875 240.5 -68.6611328125 259.5 -81.994140625 c 0
 278.5 -95.3271484375 288.333007812 -117.327148438 289 -147.994140625 c 0
 289.666992188 -180.661132812 279.5 -208.828125 258.5 -232.495117188 c 0
 237.5 -256.162109375 210.666992188 -273.329101562 178 -283.99609375 c 1
 168 -276.663085938 165.333007812 -268.99609375 170 -260.99609375 c 1
 219.333007812 -240.329101562 243.666015625 -211.99609375 242.999023438 -175.99609375 c 0
 242.33203125 -157.99609375 235.165039062 -144.829101562 221.498046875 -136.49609375 c 0
 207.831054688 -128.163085938 191.998046875 -126.330078125 173.998046875 -130.997070312 c 1
 155.998046875 -129.6640625 146.665039062 -120.6640625 145.998046875 -103.997070312 c 0
 145.998046875 -92.6640625 149.665039062 -82.8310546875 156.998046875 -74.498046875 c 0
 164.331054688 -66.1650390625 176.998046875 -61.998046875 194.998046875 -61.998046875 c 0
183 578.005859375 m 2
 263.999023438 542.004882812 l 2
 281.999023438 534.671875 295.999023438 535.171875 305.999023438 543.504882812 c 0
 315.999023438 551.837890625 327.666015625 568.004882812 340.999023438 592.004882812 c 0
 342.999023438 596.004882812 346.166015625 597.671875 350.499023438 597.004882812 c 0
 354.83203125 596.337890625 357.33203125 593.337890625 357.999023438 588.004882812 c 0
 359.999023438 555.337890625 351.666015625 528.337890625 332.999023438 507.004882812 c 0
 321.666015625 494.337890625 307.666015625 487.004882812 290.999023438 485.004882812 c 0
 274.33203125 483.004882812 258.33203125 484.671875 242.999023438 490.004882812 c 2
 163.999023438 523.004882812 l 2
 136.666015625 535.004882812 108.333007812 518.671875 79 474.004882812 c 0
 77 470.004882812 73.8330078125 469.004882812 69.5 471.004882812 c 0
 65.1669921875 473.004882812 62.6669921875 475.671875 62 479.004882812 c 0
 59.3330078125 501.004882812 72 527.337890625 100 558.004882812 c 0
 108 568.671875 120.166992188 576.338867188 136.5 581.005859375 c 0
 152.833007812 585.672851562 168.333007812 584.672851562 183 578.005859375 c 2
218 -223 m 0
 201.333333333 -223 188 -217.5 178 -206.5 c 128
 168 -195.5 163 -181.666666667 163 -165 c 0
 163 -147 168.5 -133.166666667 179.5 -123.5 c 128
 190.5 -113.833333333 204.333333333 -109 221 -109 c 256
 237.666666667 -109 251.333333333 -114.333333333 262 -125 c 128
 272.666666667 -135.666666667 278 -148.333333333 278 -163 c 0
 278 -180.333333333 272 -194.666666667 260 -206 c 128
 248 -217.333333333 234 -223 218 -223 c 0
EndSplineSet
Fore
SplineSet
222.998046875 377.002929688 m 0
 160.642578125 377.002929688 114.193359375 304.938476562 111.998046875 272.002929688 c 0
 111.998046875 269.3359375 114.331054688 268.002929688 118.998046875 268.002929688 c 2
 189.998046875 268.001953125 l 2
 255.331054688 268.001953125 291.998046875 271.001953125 299.998046875 277.001953125 c 0
 303.998046875 279.668945312 305.998046875 292.001953125 305.998046875 314.001953125 c 0
 305.998046875 335.986328125 289.260742188 377.002929688 222.998046875 377.002929688 c 0
32.9990234375 182.000976562 m 0
 32.9990234375 304.787109375 111.438476562 407 234 407 c 0
 365.925110287 407 380.636492062 295.160622472 380.636492062 256.677957718 c 0
 380.636492062 250.969940104 380.312828506 246.875835773 380 245 c 0
 378.666992188 239.666992188 360.666992188 237 326 237 c 2
 127.998046875 237.002929688 l 2
 102.756835938 237.002929688 100.999023438 234.952148438 100.999023438 210.001953125 c 0
 100.999023438 174.059570312 111.57421875 42.0009765625 266.999023438 42.0009765625 c 0
 302.999023438 42.0009765625 333.666015625 58.0009765625 358.999023438 90.0009765625 c 1
 369.666015625 93.333984375 375.666015625 89.6669921875 376.999023438 79 c 1
 342.49609375 5.0654296875 258.051757812 -15 219.999023438 -15 c 0
 91.4677734375 -15 32.9990234375 83.541015625 32.9990234375 182.000976562 c 0
EndSplineSet
Validated: 1572865
EndChar

StartChar: f
Encoding: 54 102 48
Width: 305
GlyphClass: 2
Flags: W
HStem: -3.00488 25.002<22.3811 57.001 180.335 254.71> 350.996 42.0029<169.055 268.431> 350.998 19<19.1016 22.001> 690.935 22.8692<193.931 238.021>
VStem: 95.001 74.001<28.1247 350.993 393.279 640.535> 243.52 49.5818<636.266 689.463>
LayerCount: 3
Back
SplineSet
114 -270 m 5x8c
 114 -65 l 5
 164 -65 l 5
 164 -270 l 5
 114 -270 l 5x8c
179 351 m 5xb4
 186.001953125 350.997070312 l 5
 177.334960938 350.997070312 172.334960938 349.6640625 171.001953125 346.997070312 c 4
 169.668945312 344.330078125 169.001953125 335.997070312 169.001953125 321.997070312 c 6
 169.001953125 110.997070312 l 6
 169.001953125 75.6640625 171.001953125 52.6640625 175.001953125 41.9970703125 c 4
 179.001953125 31.330078125 189.668945312 25.6630859375 207.001953125 24.99609375 c 6
 251.001953125 21.99609375 l 6
 255.001953125 19.99609375 256.668945312 15.8291015625 256.001953125 9.49609375 c 4
 255.334960938 3.1630859375 253.001953125 -1.00390625 249.001953125 -3.00390625 c 4
 196.334960938 -1.00390625 157.334960938 -0.00390625 132.001953125 -0.00390625 c 4
 100.668945312 -0.00390625 66.001953125 -1.00390625 28.001953125 -3.00390625 c 4
 24.001953125 -0.3369140625 21.6689453125 3.830078125 21.001953125 9.4970703125 c 4
 20.3349609375 15.1640625 22.001953125 19.3310546875 26.001953125 21.998046875 c 6
 57.001953125 24.998046875 l 6
 75.001953125 26.998046875 85.8349609375 32.498046875 89.501953125 41.498046875 c 4
 93.1689453125 50.498046875 95.001953125 73.6650390625 95.001953125 110.998046875 c 6
 95.001953125 321.998046875 l 6
 95.001953125 335.998046875 94.1689453125 344.331054688 92.501953125 346.998046875 c 4
 90.8349609375 349.665039062 85.001953125 350.998046875 75.001953125 350.998046875 c 6
 25.001953125 350.998046875 l 5
 17.6689453125 355.665039062 16.6689453125 361.998046875 22.001953125 369.998046875 c 5xd4
 80.001953125 390.998046875 l 6
 91.3349609375 396.998046875 97.001953125 403.665039062 97.001953125 410.998046875 c 4
 97.001953125 440.331054688 97.1689453125 470.998046875 97.501953125 502.998046875 c 4
 97.8349609375 534.998046875 99.66796875 563.498046875 103.000976562 588.498046875 c 4
 106.333984375 613.498046875 113.000976562 635.331054688 123.000976562 653.998046875 c 4
 143.66796875 689.998046875 172.000976562 709.665039062 208.000976562 712.998046875 c 4
 252.000976562 716.998046875 279.000976562 707.331054688 289.000976562 683.998046875 c 4
 295.000976562 668.665039062 294.000976562 656.33203125 286.000976562 646.999023438 c 4
 278.000976562 637.666015625 268.333984375 633.333007812 257.000976562 634 c 4
 245.66796875 634.666992188 241.000976562 639 243.000976562 647 c 4
 246.333984375 666.333007812 241.666992188 679.833007812 229 687.5 c 4
 216.333007812 695.166992188 202 690 186 672 c 4
 181.333007812 667.333007812 177.5 657.833007812 174.5 643.5 c 4
 171.5 629.166992188 169.833007812 612.666992188 169.5 594 c 4
 169.166992188 575.333007812 169 553.5 169 528.5 c 6
 169 449 l 5
 169 421 l 6
 169 407.666992188 169.666992188 399.666992188 171 397 c 4
 172.333007812 394.333007812 177.333007812 393 186 393 c 6
 262 393 l 5
 268 389 270 381.5 268 370.5 c 4
 266 359.5 262.333007812 353 257 351 c 6
 179 351 l 5xb4
136 -223 m 0xca
 119.333007812 -223 105.999023438 -217.5 95.9990234375 -206.5 c 0
 85.9990234375 -195.5 80.9990234375 -181.666992188 80.9990234375 -165 c 0
 80.9990234375 -147 86.4990234375 -133.166992188 97.4990234375 -123.5 c 0
 108.499023438 -113.833007812 122.33203125 -109 138.999023438 -109 c 0
 155.666015625 -109 169.333007812 -114.333007812 180 -125 c 0
 190.666992188 -135.666992188 196 -148.333984375 196 -163.000976562 c 0
 196 -180.333984375 190 -194.666992188 178 -206 c 0
 166 -217.333007812 152 -223 136 -223 c 0xca
129.001953125 -223.002929688 m 0
 112.334960938 -223.002929688 99.0009765625 -217.502929688 89.0009765625 -206.502929688 c 0
 79.0009765625 -195.502929688 74.0009765625 -181.669921875 74.0009765625 -165.002929688 c 0
 74.0009765625 -147.002929688 79.5009765625 -133.169921875 90.5009765625 -123.502929688 c 0
 101.500976562 -113.8359375 115.333984375 -109.002929688 132.000976562 -109.002929688 c 0
 148.66796875 -109.002929688 162.334960938 -114.3359375 173.001953125 -125.002929688 c 0
 183.668945312 -135.669921875 189.001953125 -148.336914062 189.001953125 -163.00390625 c 0
 189.001953125 -180.336914062 183.001953125 -194.669921875 171.001953125 -206.002929688 c 0
 159.001953125 -217.3359375 145.001953125 -223.002929688 129.001953125 -223.002929688 c 0
EndSplineSet
Fore
SplineSet
243.519985636 661.811628995 m 0xbc
 243.519985636 684.830563411 224.066772781 690.935208399 217.203056981 690.935208399 c 0
 207.621671154 690.935208399 197.220764436 684.62335999 186 672 c 0
 169 655 169 596.512695312 169 528.5 c 2
 169 421 l 2
 169 394.232421875 170.000976562 392.999023438 186 392.999023438 c 2
 262 392.999023438 l 1
 266.861175978 389.758361553 268.812296265 383.579752509 268.812296265 376.920548802 c 0
 268.812296265 365.826225314 263.396764671 353.397962755 257 350.999023438 c 1
 186.001953125 350.99609375 l 2xdc
 169.963867188 350.99609375 169.001953125 349.9453125 169.001953125 321.99609375 c 2
 169.001953125 110.99609375 l 2
 169.001953125 37.0361328125 175.28515625 26.2158203125 207.001953125 24.9951171875 c 2
 251.001953125 21.9951171875 l 1
 259.366210938 17.8134765625 257.03515625 1.01171875 249.001953125 -3.0048828125 c 1
 196.334960938 -1.0048828125 157.334960938 -0.0048828125 132.001953125 -0.0048828125 c 0
 100.668945312 -0.0048828125 66.001953125 -1.0048828125 28.001953125 -3.0048828125 c 1
 20.212890625 2.1884765625 17.5341796875 16.3515625 26.0009765625 21.9970703125 c 1
 57.0009765625 24.9970703125 l 2
 90.669921875 28.73828125 95.0009765625 35.9296875 95.0009765625 110.998046875 c 2
 95.0009765625 321.998046875 l 2
 95.0009765625 349.647460938 93.75 350.998046875 75.0009765625 350.998046875 c 2
 25.0009765625 350.998046875 l 1
 17.66796875 355.665039062 16.66796875 361.998046875 22.0009765625 369.998046875 c 1
 80.0009765625 390.998046875 l 1
 91.333984375 396.998046875 97.0009765625 403.665039062 97.0009765625 410.998046875 c 0
 97.0009765625 551.758789062 97.90625 607.15625 123 653.998046875 c 0
 154.923015184 709.60500391 197.832164478 713.804449328 224.971361549 713.804449328 c 0
 274.591047204 713.804449328 293.101754169 691.083542606 293.101754169 669.879425294 c 0
 293.101754169 651.329205482 278.93466167 633.939854129 259.035718868 633.939854129 c 0
 243.009743352 633.939854129 242.727837676 642.44139618 242.727837676 647.21927852 c 0
 242.727837676 651.540973458 243.519985636 656.580147109 243.519985636 661.811628995 c 0xbc
EndSplineSet
Validated: 524289
EndChar

StartChar: h
Encoding: 55 104 49
Width: 530
GlyphClass: 2
Flags: W
HStem: -3.00293 25.002<13.3811 50.001 200.002 232.71 286.381 318.001 468.002 506.71> 360.996 45.9961<214.441 324.735> 709.992 20G<126.67 156.004>
VStem: 88.001 74.0029<28.4861 335.082 355.089 641.513> 356.001 74.002<28.6019 328.355>
AnchorPoint: "below" 258 -184 basechar 0
LayerCount: 3
Back
SplineSet
88 600 m 6
 88 620.666992188 83.6708984375 633.327148438 75.00390625 637.994140625 c 4
 66.3369140625 642.661132812 50.669921875 645.661132812 28.0029296875 646.994140625 c 6
 10.0029296875 648.994140625 l 6
 8.0029296875 652.327148438 7.0029296875 656.16015625 7.0029296875 660.493164062 c 4
 7.0029296875 664.826171875 8.3359375 667.659179688 11.0029296875 668.9921875 c 4
 58.3359375 685.659179688 104.3359375 705.9921875 149.002929688 729.9921875 c 5
 163.002929688 727.325195312 170.002929688 724.325195312 170.002929688 720.9921875 c 6
 162.002929688 645.9921875 l 5
 162.002929688 373.9921875 l 6
 162.002929688 363.325195312 163.3359375 356.9921875 166.002929688 354.9921875 c 4
 210.669921875 389.659179688 255.669921875 406.9921875 301.002929688 406.9921875 c 4
 346.3359375 406.9921875 379.168945312 395.325195312 399.501953125 371.9921875 c 4
 419.834960938 348.659179688 430.001953125 317.326171875 430.001953125 277.993164062 c 6
 430.001953125 110.993164062 l 6
 430.001953125 83.66015625 430.668945312 64.8271484375 432.001953125 54.494140625 c 4
 433.334960938 44.1611328125 436.66796875 36.994140625 442.000976562 32.994140625 c 4
 447.333984375 28.994140625 456.000976562 26.3271484375 468.000976562 24.994140625 c 6
 503.000976562 21.994140625 l 6
 507.000976562 19.994140625 508.66796875 15.8271484375 508.000976562 9.494140625 c 4
 507.333984375 3.1611328125 505.000976562 -1.005859375 501.000976562 -3.005859375 c 4
 457.000976562 -1.005859375 421.000976562 -0.005859375 393.000976562 -0.005859375 c 4
 361.000976562 -0.005859375 327.333984375 -1.005859375 292.000976562 -3.005859375 c 4
 288.000976562 -0.3388671875 285.66796875 3.828125 285.000976562 9.4951171875 c 4
 284.333984375 15.162109375 286.000976562 19.3291015625 290.000976562 21.99609375 c 6
 318.000976562 24.99609375 l 6
 336.000976562 27.6630859375 346.833984375 33.330078125 350.500976562 41.9970703125 c 4
 354.16796875 50.6640625 356.000976562 73.6640625 356.000976562 110.997070312 c 6
 356.000976562 253.997070312 l 6
 356.000976562 287.330078125 348.000976562 313.497070312 332.000976562 332.497070312 c 4
 316.000976562 351.497070312 292.333984375 360.997070312 261.000976562 360.997070312 c 4
 230.333984375 360.997070312 204.333984375 351.997070312 183.000976562 333.997070312 c 4
 174.333984375 327.330078125 168.666992188 320.830078125 166 314.497070312 c 4
 163.333007812 308.1640625 162 296.331054688 162 278.998046875 c 6
 162 110.998046875 l 6
 162 74.998046875 164 52.1650390625 168 42.498046875 c 4
 172 32.8310546875 182.666992188 26.998046875 200 24.998046875 c 6
 229 21.998046875 l 6
 233 19.998046875 234.666992188 15.8310546875 234 9.498046875 c 4
 233.333007812 3.1650390625 231 -1.001953125 227 -3.001953125 c 4
 189 -1.001953125 155 -0.001953125 125 -0.001953125 c 4
 94.3330078125 -0.001953125 59 -1.001953125 19 -3.001953125 c 4
 15 -0.3349609375 12.6669921875 3.83203125 12 9.4990234375 c 4
 11.3330078125 15.166015625 13 19.3330078125 17 22 c 6
 50 25 l 6
 68 27 78.8330078125 32.5 82.5 41.5 c 4
 86.1669921875 50.5 88 73.6669921875 88 111 c 6
 88 600 l 6
243.00390625 -270.006835938 m 5
 243.00390625 -65.0068359375 l 5
 293.00390625 -65.0068359375 l 5
 293.00390625 -270.006835938 l 5
 243.00390625 -270.006835938 l 5
88 600 m 2
 88 620.666992188 83.6708984375 633.327148438 75.00390625 637.994140625 c 0
 66.3369140625 642.661132812 50.669921875 645.661132812 28.0029296875 646.994140625 c 2
 10.0029296875 648.994140625 l 2
 8.0029296875 652.327148438 7.0029296875 656.16015625 7.0029296875 660.493164062 c 0
 7.0029296875 664.826171875 8.3359375 667.659179688 11.0029296875 668.9921875 c 0
 58.3359375 685.659179688 104.3359375 705.9921875 149.002929688 729.9921875 c 1
 163.002929688 727.325195312 170.002929688 724.325195312 170.002929688 720.9921875 c 2
 162.002929688 645.9921875 l 1
 162.002929688 373.9921875 l 2
 162.002929688 363.325195312 163.3359375 356.9921875 166.002929688 354.9921875 c 0
 210.669921875 389.659179688 255.669921875 406.9921875 301.002929688 406.9921875 c 0
 346.3359375 406.9921875 379.168945312 395.325195312 399.501953125 371.9921875 c 0
 419.834960938 348.659179688 430.001953125 317.326171875 430.001953125 277.993164062 c 2
 430.001953125 110.993164062 l 2
 430.001953125 83.66015625 430.668945312 64.8271484375 432.001953125 54.494140625 c 0
 433.334960938 44.1611328125 436.66796875 36.994140625 442.000976562 32.994140625 c 0
 447.333984375 28.994140625 456.000976562 26.3271484375 468.000976562 24.994140625 c 2
 503.000976562 21.994140625 l 2
 507.000976562 19.994140625 508.66796875 15.8271484375 508.000976562 9.494140625 c 0
 507.333984375 3.1611328125 505.000976562 -1.005859375 501.000976562 -3.005859375 c 0
 457.000976562 -1.005859375 421.000976562 -0.005859375 393.000976562 -0.005859375 c 0
 361.000976562 -0.005859375 327.333984375 -1.005859375 292.000976562 -3.005859375 c 0
 288.000976562 -0.3388671875 285.66796875 3.828125 285.000976562 9.4951171875 c 0
 284.333984375 15.162109375 286.000976562 19.3291015625 290.000976562 21.99609375 c 2
 318.000976562 24.99609375 l 2
 336.000976562 27.6630859375 346.833984375 33.330078125 350.500976562 41.9970703125 c 0
 354.16796875 50.6640625 356.000976562 73.6640625 356.000976562 110.997070312 c 2
 356.000976562 253.997070312 l 2
 356.000976562 287.330078125 348.000976562 313.497070312 332.000976562 332.497070312 c 0
 316.000976562 351.497070312 292.333984375 360.997070312 261.000976562 360.997070312 c 0
 230.333984375 360.997070312 204.333984375 351.997070312 183.000976562 333.997070312 c 0
 174.333984375 327.330078125 168.666992188 320.830078125 166 314.497070312 c 0
 163.333007812 308.1640625 162 296.331054688 162 278.998046875 c 2
 162 110.998046875 l 2
 162 74.998046875 164 52.1650390625 168 42.498046875 c 0
 172 32.8310546875 182.666992188 26.998046875 200 24.998046875 c 2
 229 21.998046875 l 2
 233 19.998046875 234.666992188 15.8310546875 234 9.498046875 c 0
 233.333007812 3.1650390625 231 -1.001953125 227 -3.001953125 c 0
 189 -1.001953125 155 -0.001953125 125 -0.001953125 c 0
 94.3330078125 -0.001953125 59 -1.001953125 19 -3.001953125 c 0
 15 -0.3349609375 12.6669921875 3.83203125 12 9.4990234375 c 0
 11.3330078125 15.166015625 13 19.3330078125 17 22 c 2
 50 25 l 2
 68 27 78.8330078125 32.5 82.5 41.5 c 0
 86.1669921875 50.5 88 73.6669921875 88 111 c 2
 88 600 l 2
260.00390625 -223.006835938 m 0
 243.336914062 -223.006835938 230.002929688 -217.506835938 220.002929688 -206.506835938 c 0
 210.002929688 -195.506835938 205.002929688 -181.673828125 205.002929688 -165.006835938 c 0
 205.002929688 -147.006835938 210.502929688 -133.173828125 221.502929688 -123.506835938 c 0
 232.502929688 -113.83984375 246.3359375 -109.006835938 263.002929688 -109.006835938 c 0
 279.669921875 -109.006835938 293.336914062 -114.33984375 304.00390625 -125.006835938 c 0
 314.670898438 -135.673828125 320.00390625 -148.340820312 320.00390625 -163.0078125 c 0
 320.00390625 -180.340820312 314.00390625 -194.673828125 302.00390625 -206.006835938 c 0
 290.00390625 -217.33984375 276.00390625 -223.006835938 260.00390625 -223.006835938 c 0
EndSplineSet
Fore
SplineSet
356.000976562 253.997070312 m 2
 356.000976562 297.19921875 341.409179688 360.99609375 261.002929688 360.99609375 c 0
 199.78515625 360.99609375 169.724609375 323.3359375 166.001953125 314.49609375 c 0
 163.334960938 308.163085938 162.001953125 296.330078125 162.001953125 278.997070312 c 2
 162.001953125 110.997070312 l 2
 162.001953125 38.3125 167.416992188 28.7568359375 200.001953125 24.9970703125 c 2
 229.001953125 21.9970703125 l 1
 237.366210938 17.8154296875 235.03515625 1.013671875 227.001953125 -3.0029296875 c 1
 189.001953125 -1.0029296875 155.001953125 -0.0029296875 125.001953125 -0.0029296875 c 0
 94.3349609375 -0.0029296875 59.001953125 -1.0029296875 19.001953125 -3.0029296875 c 1
 11.212890625 2.1904296875 8.5341796875 16.353515625 17.0009765625 21.9990234375 c 1
 50.0009765625 24.9990234375 l 2
 83.669921875 28.740234375 88.0009765625 35.931640625 88.0009765625 111 c 2
 88.0009765625 600 l 2
 88.0009765625 635.6171875 79.75 643.951171875 28.00390625 646.994140625 c 1
 10.00390625 648.994140625 l 1
 8.00390625 652.327148438 7.00390625 656.16015625 7.00390625 660.493164062 c 0
 7.00390625 664.826171875 8.3369140625 667.659179688 11.00390625 668.9921875 c 0
 58.3369140625 685.659179688 104.336914062 705.9921875 149.00390625 729.9921875 c 1
 163.00390625 727.325195312 170.00390625 724.325195312 170.00390625 720.9921875 c 2
 162.00390625 645.9921875 l 1
 162.00390625 373.9921875 l 2
 162.00390625 363.325195312 163.336914062 356.9921875 166.00390625 354.9921875 c 0
 210.670898438 389.659179688 255.670898438 406.9921875 301.00390625 406.9921875 c 0
 364.932617188 406.9921875 430.002929688 381.556640625 430.002929688 277.993164062 c 2
 430.002929688 110.993164062 l 2
 430.002929688 38.4521484375 431.71875 29.0244140625 468.001953125 24.994140625 c 2
 503.001953125 21.994140625 l 1
 511.366210938 17.8125 509.03515625 1.0107421875 501.001953125 -3.005859375 c 1
 457.001953125 -1.005859375 421.001953125 -0.005859375 393.001953125 -0.005859375 c 0
 361.001953125 -0.005859375 327.334960938 -1.005859375 292.001953125 -3.005859375 c 1
 284.212890625 2.1875 281.534179688 16.3505859375 290.000976562 21.99609375 c 1
 318.000976562 24.99609375 l 1
 351.900390625 30.0185546875 356.000976562 36.6552734375 356.000976562 110.997070312 c 2
 356.000976562 253.997070312 l 2
EndSplineSet
Validated: 1572865
EndChar

StartChar: i
Encoding: 56 105 50
Width: 272
GlyphClass: 2
Flags: W
HStem: -3.00488 25.002<27.3801 60 210.001 242.709> 355.998 16<39.0088 70.826> 501.993 114.002<87.3893 179.471>
VStem: 75.001 115.001<513.476 603.241> 98 74.001<28.4841 346.288>
AnchorPoint: "below" 135 -184 basechar 0
LayerCount: 3
Back
SplineSet
172 356 m 5
 172 111 l 6
 172 75 174 52.1666666667 178 42.5 c 132
 182 32.8333333333 192.666666667 27 210 25 c 6
 239 22 l 6
 243 20 244.666666667 15.8333333333 244 9.5 c 132
 243.333333333 3.16666666667 241 -1 237 -3 c 4
 199 -1 165 0 135 0 c 4
 103 0 69 -1 33 -3 c 5
 29 -0.333333333333 26.6666666667 3.83333333333 26 9.5 c 132
 25.3333333333 15.1666666667 27 19.3333333333 31 22 c 6
 60 25 l 6
 78 27 88.8333333333 32.5 92.5 41.5 c 132
 96.1666666667 50.5 98 73.6666666667 98 111 c 6
 98 287 l 6
 98 313 95.6666666667 329.333333333 91 336 c 132
 86.3333333333 342.666666667 73 348.666666667 51 354 c 6
 42 356 l 6
 40 358 39 360.833333333 39 364.5 c 132
 39 368.166666667 40.3333333333 370.666666667 43 372 c 4
 97 380.666666667 137.333333333 400.333333333 164 431 c 5
 172 429.666666667 176 427.333333333 176 424 c 6
 172 356 l 5
135 616 m 4
 152.333333333 616 165.833333333 610.666666667 175.5 600 c 132
 185.166666667 589.333333333 190 575.333333333 190 558 c 4
 190 540 184.333333333 526.166666667 173 516.5 c 132
 161.666666667 506.833333333 148 502 132 502 c 4
 115.333333333 502 101.666666667 507.333333333 91 518 c 132
 80.3333333333 528.666666667 75 541.333333333 75 556 c 4
 75 574.666666667 81 589.333333333 93 600 c 132
 105 610.666666667 119 616 135 616 c 4
99 -104 m 6
 180 -138 l 6
 198 -145.333333333 212 -145 222 -137 c 132
 232 -129 243.666666667 -113 257 -89 c 4
 259 -85.6666666667 262.166666667 -84.3333333333 266.5 -85 c 132
 270.833333333 -85.6666666667 273.333333333 -88.3333333333 274 -93 c 4
 276 -125 267.666666667 -151.666666667 249 -173 c 4
 237 -187 222.333333333 -194.666666667 205 -196 c 132
 187.666666667 -197.333333333 172.333333333 -195.666666667 159 -191 c 6
 80 -157 l 6
 51.3333333333 -145.666666667 23 -162.666666667 -5 -208 c 4
 -7 -210.666666667 -10 -211.333333333 -14 -210 c 132
 -18 -208.666666667 -20.6666666667 -206 -22 -202 c 4
 -24.6666666667 -180.666666667 -12 -154.666666667 16 -124 c 4
 24 -113.333333333 36.1666666667 -105.666666667 52.5 -101 c 132
 68.8333333333 -96.3333333333 84.3333333333 -97.3333333333 99 -104 c 6
104.000976562 -120.005859375 m 2
 185 -154.004882812 l 2
 193.385639543 -157.421102828 200.646524623 -159.45339675 207.407224694 -159.45339675 c 0
 225.259297622 -159.45339675 239.623786873 -145.283049796 262 -105.004882812 c 0
 262.058947839 -104.906646008 266.891749452 -100.172117138 271.431736144 -100.172117138 c 0
 275.4749082 -100.172117138 279.285844818 -103.927135417 279.285844818 -118.055991944 c 0
 279.285844818 -174.941258567 244.625029158 -212.996290792 197.460418547 -212.996290792 c 0xbc
 186.85547134 -212.996290792 175.618365084 -211.072328264 164.000976562 -207.005859375 c 2
 85.0009765625 -173.005859375 l 2
 79.2676769323 -170.739296874 73.5477362165 -169.606015624 67.8411466033 -169.606015624 c 0
 45.0142964156 -169.606015624 22.4010730708 -187.739296874 0.0009765625 -224.005859375 c 0
 -1.65286448843 -226.211249956 -3.88209596336 -227.31170289 -6.18597963517 -227.31170289 c 0
 -11.4831775801 -227.31170289 -17.1750271569 -221.494117282 -17.1750271569 -209.913458005 c 0
 -17.1750271569 -195.501611962 -8.35995089355 -172.164383541 21.0009765625 -140.006835938 c 0
 31.1218002521 -126.511992534 53.0116795962 -114.179634188 76.8318355109 -114.179634188 c 0x7c
 85.7896519889 -114.179634188 95.0204508753 -115.923693528 104.000976562 -120.005859375 c 2
135 -97 m 256
 159.666666667 -97 180.333333333 -105 197 -121 c 128
 213.666666667 -137 222 -158 222 -184 c 0
 222 -208 213.333333333 -228.333333333 196 -245 c 128
 178.666666667 -261.666666667 158.333333333 -270 135 -270 c 256
 111.666666667 -270 91.3333333333 -261.333333333 74 -244 c 128
 56.6666666667 -226.666666667 48 -206.666666667 48 -184 c 0
 48 -159.333333333 56.3333333333 -138.666666667 73 -122 c 128
 89.6666666667 -105.333333333 110.333333333 -97 135 -97 c 256
135 -125 m 256
 118.333333333 -125 104.333333333 -130.666666667 93 -142 c 128
 81.6666666667 -153.333333333 76 -167.333333333 76 -184 c 0
 76 -199.333333333 82 -213 94 -225 c 128
 106 -237 119.666666667 -243 135 -243 c 256
 150.333333333 -243 164 -237.333333333 176 -226 c 128
 188 -214.666666667 194 -200.666666667 194 -184 c 0
 194 -166 188.333333333 -151.666666667 177 -141 c 128
 165.666666667 -130.333333333 151.666666667 -125 135 -125 c 256
EndSplineSet
Fore
SplineSet
75.0009765625 555.994140625 m 0xf0
 75.0009765625 599.641601562 109.6484375 615.995117188 135.000976562 615.995117188 c 0
 173.223632812 615.995117188 190.001953125 588.991210938 190.001953125 557.993164062 c 0
 190.001953125 514.155273438 154.861328125 501.993164062 132.001953125 501.993164062 c 0
 96.0341796875 501.993164062 75.0009765625 528.739257812 75.0009765625 555.994140625 c 0xf0
172 356 m 1
 172.000976562 110.995117188 l 2
 172.000976562 38.310546875 177.416015625 28.7548828125 210.000976562 24.9951171875 c 2
 239.000976562 21.9951171875 l 1
 247.365234375 17.8134765625 245.034179688 1.01171875 237.000976562 -3.0048828125 c 1
 199.000976562 -1.0048828125 165.000976562 -0.0048828125 135.000976562 -0.0048828125 c 0
 103.000976562 -0.0048828125 69.0009765625 -1.0048828125 33.0009765625 -3.0048828125 c 1
 25.2119140625 2.1884765625 22.533203125 16.3515625 31 21.9970703125 c 1
 60 24.9970703125 l 2
 93.6689453125 28.73828125 98 35.9296875 98 110.998046875 c 2
 98 286.998046875 l 2xe8
 98 340.344726562 93.046875 344.654296875 42 355.998046875 c 0
 40 357.998046875 39 360.831054688 39 364.498046875 c 0
 39 368.165039062 40.3330078125 370.665039062 43 371.998046875 c 0
 97 380.665039062 137.333007812 400.33203125 164 430.999023438 c 1
 172 429.666015625 176 427.333007812 176 424 c 2
 172 356 l 1
EndSplineSet
Validated: 1572865
EndChar

StartChar: j
Encoding: 57 106 51
Width: 268
GlyphClass: 2
Flags: W
HStem: -269.595 29.5407<19.0461 87.7966> 355.998 16<40.0088 70.6325> 501.995 114.002<89.3864 181.468>
VStem: 76.998 115.001<513.478 603.243> 100 73.998<-204.767 345.609>
LayerCount: 3
Fore
SplineSet
76.998046875 555.99609375 m 0xf0
 76.998046875 599.643554688 111.645507812 615.997070312 136.998046875 615.997070312 c 0
 175.220703125 615.997070312 191.999023438 588.993164062 191.999023438 557.995117188 c 0
 191.999023438 514.157226562 156.858398438 501.995117188 133.999023438 501.995117188 c 0
 98.03125 501.995117188 76.998046875 528.741210938 76.998046875 555.99609375 c 0xf0
-51.0288597528 -197.599894624 m 0
 -51.0288597528 -194.386769207 -50.2470111321 -155.941905792 -12.8316751429 -155.941905792 c 0
 32.7294647718 -155.941905792 -3.43094661629 -212.43142871 27.9990234375 -236.00390625 c 0
 31.5989663075 -238.703863403 36.6837961298 -240.053797486 43.2536018894 -240.053797486 c 0
 51.2835961751 -240.053797486 61.5320158638 -238.037112913 73.9990234375 -234.00390625 c 0
 92.5400390625 -229.368164062 101 -212.607421875 101 -150.501953125 c 0
 101 -122.834960938 100.666992188 -94.66796875 100 -66.0009765625 c 2
 100 286.999023438 l 2
 100 339.333984375 93.0380859375 344.87890625 43 355.998046875 c 0
 41 357.998046875 40 360.831054688 40 364.498046875 c 0
 40 368.165039062 41.3330078125 370.665039062 44 371.998046875 c 0
 98 380.665039062 138.333007812 400.33203125 165 430.999023438 c 1
 173 429.666015625 177 427.333007812 177 424 c 2
 174 356 l 1
 173.998046875 -108.005859375 l 2xe8
 173.998046875 -219.09594934 112.625154686 -269.594547113 50.3967947664 -269.594547113 c 0
 8.44376381665 -269.594547113 -51.0288597528 -240.920724576 -51.0288597528 -197.599894624 c 0
EndSplineSet
Validated: 524289
EndChar

StartChar: k
Encoding: 58 107 52
Width: 497
GlyphClass: 2
Flags: W
HStem: -3 25<15.0234 50 200 235.708 282.176 310.999 482 506.687> 201.001 26.0039<162.834 210.68> 369.004 24<263.002 302> 376.002 25.002<430.001 473.964> 710.005 20G<126.667 156>
VStem: 88 74<28.489 200.999 227.006 641.528>
LayerCount: 3
Back
SplineSet
88 600 m 6
 88 620.666992188 83.66796875 633.33984375 75.0009765625 638.006835938 c 4
 66.333984375 642.673828125 50.6669921875 645.673828125 28 647.006835938 c 6
 10 649.006835938 l 6
 8 652.33984375 7 656.172851562 7 660.505859375 c 4
 7 664.838867188 8.3330078125 667.671875 11 669.004882812 c 4
 58.3330078125 685.671875 104.333007812 706.004882812 149 730.004882812 c 5
 163 727.337890625 170 724.337890625 170 721.004882812 c 6
 162 646.004882812 l 5
 162 241.004882812 l 6
 162 235.004882812 163 231.171875 165 229.504882812 c 4
 167 227.837890625 172 227.004882812 180 227.004882812 c 4
 201.333007812 227.004882812 224 240.004882812 248 266.004882812 c 6
 289 309.004882812 l 6
 312.333007812 334.337890625 324 349.670898438 324 355.00390625 c 4
 324 359.670898438 316.666992188 363.00390625 302 365.00390625 c 6
 270 369.00390625 l 6
 265.333007812 370.336914062 263 374.336914062 263 381.00390625 c 4
 263 387.670898438 265.333007812 391.670898438 270 393.00390625 c 6
 301 393.00390625 l 6
 355.666992188 393.00390625 411.333984375 395.670898438 468.000976562 401.00390625 c 4
 472.000976562 400.336914062 474.000976562 396.669921875 474.000976562 390.002929688 c 4
 474.000976562 383.3359375 472.66796875 378.668945312 470.000976562 376.001953125 c 6
 430.000976562 370.001953125 l 6
 412.66796875 366.668945312 391.66796875 355.001953125 367.000976562 335.001953125 c 4
 347.000976562 319.668945312 316.66796875 291.668945312 276.000976562 251.001953125 c 4
 266.000976562 241.668945312 263.66796875 234.001953125 269.000976562 228.001953125 c 4
 283.66796875 208.668945312 306.000976562 182.001953125 336.000976562 148.001953125 c 4
 383.333984375 94.6689453125 414.666992188 60.6689453125 430 46.001953125 c 4
 442 35.3349609375 459.333007812 28.001953125 482 24.001953125 c 6
 504 22.001953125 l 6
 507.333007812 20.6689453125 508.666015625 16.6689453125 507.999023438 10.001953125 c 4
 507.33203125 3.3349609375 505.33203125 -0.998046875 501.999023438 -2.998046875 c 4
 465.33203125 -0.998046875 430.999023438 0.001953125 398.999023438 0.001953125 c 4
 361.666015625 0.001953125 324.333007812 -0.998046875 287 -2.998046875 c 4
 283.666992188 -0.998046875 281.666992188 3.1689453125 281 9.501953125 c 4
 280.333007812 15.8349609375 281.666015625 20.001953125 284.999023438 22.001953125 c 6
 310.999023438 25.001953125 l 6
 327.666015625 27.001953125 335.999023438 30.3349609375 335.999023438 35.001953125 c 4
 335.999023438 40.3349609375 330.33203125 49.66796875 318.999023438 63.0009765625 c 6
 211.999023438 187.000976562 l 6
 202.666015625 196.333984375 192.333007812 201.000976562 181 201.000976562 c 4
 171.666992188 201.000976562 166.166992188 199.333984375 164.5 196.000976562 c 4
 162.833007812 192.66796875 162 183.000976562 162 167.000976562 c 6
 162 111.000976562 l 6
 162 75.0009765625 164 52.16796875 168 42.5009765625 c 4
 172 32.833984375 182.666992188 27.0009765625 200 25.0009765625 c 6
 232 22.0009765625 l 6
 236 20.0009765625 237.666992188 15.833984375 237 9.5009765625 c 4
 236.333007812 3.16796875 234 -0.9990234375 230 -2.9990234375 c 4
 189.333007812 -0.9990234375 154.333007812 0.0009765625 125 0.0009765625 c 4
 93.6669921875 0.0009765625 59 -0.9990234375 21 -2.9990234375 c 4
 17 -0.33203125 15 4.16796875 15 10.5009765625 c 4
 15 16.833984375 16.6669921875 20.6669921875 20 22 c 6
 50 25 l 6
 68 27 78.8330078125 32.5 82.5 41.5 c 4
 86.1669921875 50.5 88 73.6669921875 88 111 c 6
 88 600 l 6
256.000976562 -222.994140625 m 4
 239.333984375 -222.994140625 226 -217.494140625 216 -206.494140625 c 4
 206 -195.494140625 201 -181.661132812 201 -164.994140625 c 4
 201 -146.994140625 206.5 -133.161132812 217.5 -123.494140625 c 4
 228.5 -113.827148438 242.333007812 -108.994140625 259 -108.994140625 c 4
 275.666992188 -108.994140625 289.333984375 -114.327148438 300.000976562 -124.994140625 c 4
 310.66796875 -135.661132812 316.000976562 -148.328125 316.000976562 -162.995117188 c 4
 316.000976562 -180.328125 310.000976562 -194.661132812 298.000976562 -205.994140625 c 4
 286.000976562 -217.327148438 272.000976562 -222.994140625 256.000976562 -222.994140625 c 4
246 -216 m 0
 208 -216 178.333333333 -206 157 -186 c 128
 135.666666667 -166 122 -131.666666667 116 -83 c 1
 122.666666667 -77 129 -77 135 -83 c 1
 142.333333333 -110.333333333 154.166666667 -130.5 170.5 -143.5 c 128
 186.833333333 -156.5 211.666666667 -163 245 -163 c 0
 277 -163 300.833333333 -156.5 316.5 -143.5 c 128
 332.166666667 -130.5 345.666666667 -110.333333333 357 -83 c 1
 363.666666667 -77 370 -77 376 -83 c 1
 368 -126.333333333 352.666666667 -159.333333333 330 -182 c 128
 307.333333333 -204.666666667 279.333333333 -216 246 -216 c 0
88 600 m 2
 88 620.666666667 83.6666666667 633.333333333 75 638 c 128
 66.3333333333 642.666666667 50.6666666667 645.666666667 28 647 c 2
 10 649 l 1
 8 652.333333333 7 656.166666667 7 660.5 c 128
 7 664.833333333 8.33333333333 667.666666667 11 669 c 0
 58.3333333333 685.666666667 104.333333333 706 149 730 c 1
 163 727.333333333 170 724.333333333 170 721 c 2
 162 646 l 1
 162 241 l 2
 162 235 163 231.166666667 165 229.5 c 128
 167 227.833333333 172 227 180 227 c 0
 201.333333333 227 224 240 248 266 c 2
 289 309 l 2
 312.333333333 334.333333333 324 349.666666667 324 355 c 0
 324 359.666666667 316.666666667 363 302 365 c 2
 270 369 l 2
 265.333333333 370.333333333 263 374.333333333 263 381 c 128
 263 387.666666667 265.333333333 391.666666667 270 393 c 2
 301 393 l 2
 355.666666667 393 411.333333333 395.666666667 468 401 c 0
 472 400.333333333 474 396.666666667 474 390 c 128
 474 383.333333333 472.666666667 378.666666667 470 376 c 2
 430 370 l 2
 412.666666667 366.666666667 391.666666667 355 367 335 c 0
 347 319.666666667 316.666666667 291.666666667 276 251 c 0
 266 241.666666667 263.666666667 234 269 228 c 0
 283.666666667 208.666666667 306 182 336 148 c 0
 383.333333333 94.6666666667 414.666666667 60.6666666667 430 46 c 0
 442 35.3333333333 459.333333333 28 482 24 c 2
 504 22 l 2
 507.333333333 20.6666666667 508.666666667 16.6666666667 508 10 c 128
 507.333333333 3.33333333333 505.333333333 -1 502 -3 c 0
 465.333333333 -1 431 0 399 0 c 0
 361.666666667 0 324.333333333 -1 287 -3 c 0
 283.666666667 -1 281.666666667 3.16666666667 281 9.5 c 128
 280.333333333 15.8333333333 281.666666667 20 285 22 c 2
 311 25 l 2
 327.666666667 27 336 30.3333333333 336 35 c 0
 336 40.3333333333 330.333333333 49.6666666667 319 63 c 2
 212 187 l 2
 202.666666667 196.333333333 192.333333333 201 181 201 c 0
 171.666666667 201 166.166666667 199.333333333 164.5 196 c 128
 162.833333333 192.666666667 162 183 162 167 c 2
 162 111 l 2
 162 75 164 52.1666666667 168 42.5 c 128
 172 32.8333333333 182.666666667 27 200 25 c 2
 232 22 l 2
 236 20 237.666666667 15.8333333333 237 9.5 c 128
 236.333333333 3.16666666667 234 -1 230 -3 c 0
 189.333333333 -1 154.333333333 0 125 0 c 0
 93.6666666667 0 59 -1 21 -3 c 1
 17 -0.333333333333 15 4.16666666667 15 10.5 c 128
 15 16.8333333333 16.6666666667 20.6666666667 20 22 c 2
 50 25 l 2
 68 27 78.8333333333 32.5 82.5 41.5 c 128
 86.1666666667 50.5 88 73.6666666667 88 111 c 2
 88 600 l 2
88 600 m 2
 88 620.666666667 83.6666666667 633.333333333 75 638 c 128
 66.3333333333 642.666666667 50.6666666667 645.666666667 28 647 c 2
 10 649 l 1
 8 652.333333333 7 656.166666667 7 660.5 c 128
 7 664.833333333 8.33333333333 667.666666667 11 669 c 0
 58.3333333333 685.666666667 104.333333333 706 149 730 c 1
 163 727.333333333 170 724.333333333 170 721 c 2
 162 646 l 1
 162 241 l 2
 162 235 163 231.166666667 165 229.5 c 128
 167 227.833333333 172 227 180 227 c 0
 201.333333333 227 224 240 248 266 c 2
 289 309 l 2
 312.333333333 334.333333333 324 349.666666667 324 355 c 0
 324 359.666666667 316.666666667 363 302 365 c 2
 270 369 l 2
 265.333333333 370.333333333 263 374.333333333 263 381 c 128
 263 387.666666667 265.333333333 391.666666667 270 393 c 2
 301 393 l 2
 355.666666667 393 411.333333333 395.666666667 468 401 c 0
 472 400.333333333 474 396.666666667 474 390 c 128
 474 383.333333333 472.666666667 378.666666667 470 376 c 2
 430 370 l 2
 412.666666667 366.666666667 391.666666667 355 367 335 c 0
 347 319.666666667 316.666666667 291.666666667 276 251 c 0
 266 241.666666667 263.666666667 234 269 228 c 0
 283.666666667 208.666666667 306 182 336 148 c 0
 383.333333333 94.6666666667 414.666666667 60.6666666667 430 46 c 0
 442 35.3333333333 459.333333333 28 482 24 c 2
 504 22 l 2
 507.333333333 20.6666666667 508.666666667 16.6666666667 508 10 c 128
 507.333333333 3.33333333333 505.333333333 -1 502 -3 c 0
 465.333333333 -1 431 0 399 0 c 0
 361.666666667 0 324.333333333 -1 287 -3 c 0
 283.666666667 -1 281.666666667 3.16666666667 281 9.5 c 128
 280.333333333 15.8333333333 281.666666667 20 285 22 c 2
 311 25 l 2
 327.666666667 27 336 30.3333333333 336 35 c 0
 336 40.3333333333 330.333333333 49.6666666667 319 63 c 2
 212 187 l 2
 202.666666667 196.333333333 192.333333333 201 181 201 c 0
 171.666666667 201 166.166666667 199.333333333 164.5 196 c 128
 162.833333333 192.666666667 162 183 162 167 c 2
 162 111 l 2
 162 75 164 52.1666666667 168 42.5 c 128
 172 32.8333333333 182.666666667 27 200 25 c 2
 232 22 l 2
 236 20 237.666666667 15.8333333333 237 9.5 c 128
 236.333333333 3.16666666667 234 -1 230 -3 c 0
 189.333333333 -1 154.333333333 0 125 0 c 0
 93.6666666667 0 59 -1 21 -3 c 1
 17 -0.333333333333 15 4.16666666667 15 10.5 c 128
 15 16.8333333333 16.6666666667 20.6666666667 20 22 c 2
 50 25 l 2
 68 27 78.8333333333 32.5 82.5 41.5 c 128
 86.1666666667 50.5 88 73.6666666667 88 111 c 2
 88 600 l 2
250 -216 m 0
 212 -216 182.333333333 -206 161 -186 c 128
 139.666666667 -166 126 -131.666666667 120 -83 c 1
 126.666666667 -77 133 -77 139 -83 c 1
 146.333333333 -110.333333333 158.166666667 -130.5 174.5 -143.5 c 128
 190.833333333 -156.5 215.666666667 -163 249 -163 c 0
 281 -163 304.833333333 -156.5 320.5 -143.5 c 128
 336.166666667 -130.5 349.666666667 -110.333333333 361 -83 c 1
 367.666666667 -77 374 -77 380 -83 c 1
 372 -126.333333333 356.666666667 -159.333333333 334 -182 c 128
 311.333333333 -204.666666667 283.333333333 -216 250 -216 c 0
EndSplineSet
Fore
SplineSet
181 201.000976562 m 0xdc
 163.608398438 201.000976562 162 199.006835938 162 167 c 2
 162 111 l 2
 162 38.3154296875 167.415039062 28.759765625 200 25 c 2
 232 22 l 1
 240.364257812 17.818359375 238.033203125 1.0166015625 230 -3 c 1
 189.333007812 -1 154.333007812 0 125 0 c 0
 93.6669921875 0 59 -1 21 -3 c 0
 17 -0.3330078125 15 4.1669921875 15 10.5 c 0
 15 16.8330078125 16.6669921875 20.666015625 20 21.9990234375 c 2
 50 24.9990234375 l 2
 83.6689453125 28.740234375 88 35.931640625 88 111 c 2
 88 600 l 2
 88 635.639648438 79.7294921875 643.96484375 28 647.006835938 c 1
 10 649.006835938 l 1
 8 652.33984375 7 656.172851562 7 660.505859375 c 0
 7 664.838867188 8.3330078125 667.671875 11 669.004882812 c 0
 58.3330078125 685.671875 104.333007812 706.004882812 149 730.004882812 c 1
 163 727.337890625 170 724.337890625 170 721.004882812 c 2
 162 646.004882812 l 1
 162 241.004882812 l 2
 162 229.134765625 164.541015625 227.004882812 180 227.004882812 c 0
 201.333007812 227.004882812 224 240.004882812 248 266.004882812 c 2
 289 309.004882812 l 2
 312.333007812 334.337890625 324 349.670898438 324 355.00390625 c 0
 324 359.670898438 316.666992188 363.00390625 302 365.00390625 c 2
 270 369.00390625 l 2
 265.333007812 370.336914062 263 374.336914062 263 381.00390625 c 0
 263 387.670898438 265.333007812 391.670898438 270 393.00390625 c 1
 301 393.00390625 l 2xec
 355.666992188 393.00390625 411.333984375 395.670898438 468.000976562 401.00390625 c 0
 472.000976562 400.336914062 474.000976562 396.669921875 474.000976562 390.002929688 c 0
 474.000976562 383.3359375 472.66796875 378.668945312 470.000976562 376.001953125 c 1
 430.000976562 370.001953125 l 1
 396.096679688 363.482421875 351.872070312 326.873046875 276.000976562 251.001953125 c 0
 266.000976562 241.668945312 263.66796875 234.001953125 269.000976562 228.001953125 c 0
 308.037109375 176.546875 407.278320312 67.736328125 430 46.001953125 c 0
 442 35.3349609375 459.333007812 28.001953125 482 24.001953125 c 1
 504 22.001953125 l 1
 510.961914062 19.2177734375 508.7421875 1.048828125 501.999023438 -2.998046875 c 1
 465.33203125 -0.998046875 430.999023438 0.001953125 398.999023438 0.001953125 c 0
 361.666015625 0.001953125 324.333007812 -0.998046875 287 -2.998046875 c 1
 280.340820312 0.998046875 278.001953125 17.8037109375 284.999023438 22.001953125 c 1
 310.999023438 25.001953125 l 2
 327.666015625 27.001953125 335.999023438 30.3349609375 335.999023438 35.001953125 c 0
 335.999023438 40.3349609375 330.33203125 49.66796875 318.999023438 63.0009765625 c 2
 211.999023438 187.000976562 l 2
 202.666015625 196.333984375 192.333007812 201.000976562 181 201.000976562 c 0xdc
EndSplineSet
Validated: 524289
EndChar

StartChar: l
Encoding: 59 108 53
Width: 262
GlyphClass: 2
Flags: W
HStem: -3.00293 25.002<15.3801 50 200.001 235.709> 648.999 20<7.04882 28.001> 709.997 20G<126.667 156.001>
VStem: 88 74.001<28.4861 642.074>
LayerCount: 3
Back
SplineSet
96 -120 m 2
 176.999023438 -153.999023438 l 2
 194.999023438 -161.33203125 208.999023438 -160.999023438 218.999023438 -152.999023438 c 0
 228.999023438 -144.999023438 240.666015625 -128.999023438 253.999023438 -104.999023438 c 0
 255.999023438 -101.666015625 259.166015625 -100.333007812 263.499023438 -101 c 0
 267.83203125 -101.666992188 270.33203125 -104.333984375 270.999023438 -109.000976562 c 0
 272.999023438 -141.000976562 264.666015625 -167.66796875 245.999023438 -189.000976562 c 0
 233.999023438 -203.000976562 219.33203125 -210.66796875 201.999023438 -212.000976562 c 0
 184.666015625 -213.333984375 169.333007812 -211.666992188 156 -207 c 2
 77 -173 l 2
 48.3330078125 -161.666992188 20 -178.666992188 -8 -224 c 0
 -10 -226.666992188 -13 -227.333984375 -17 -226.000976562 c 0
 -21 -224.66796875 -23.6669921875 -222.000976562 -25 -218.000976562 c 0
 -27.6669921875 -196.66796875 -15 -170.66796875 13 -140.000976562 c 0
 21 -129.333984375 33.1669921875 -121.666992188 49.5 -117 c 0
 65.8330078125 -112.333007812 81.3330078125 -113.333007812 96 -120 c 2
49 -194 m 0xf4
 35.6669921875 -194 24.5 -190.16796875 15.5 -182.500976562 c 0
 6.5 -174.833984375 2 -163.666992188 2 -149 c 0
 1.3330078125 -135 5.5 -123.5 14.5 -114.5 c 0
 23.5 -105.5 35 -101 49 -101 c 0
 63 -101 74.1669921875 -105.5 82.5 -114.5 c 0
 90.8330078125 -123.5 95 -134 95 -146 c 0
 95 -160 90.8330078125 -171.5 82.5 -180.5 c 0
 74.1669921875 -189.5 63 -194 49 -194 c 0xf4
224 -194.000976562 m 0
 210.666992188 -194.000976562 199.333007812 -190.166992188 190 -182.5 c 0
 180.666992188 -174.833007812 176 -163.666015625 176 -148.999023438 c 0
 176 -134.999023438 180.5 -123.499023438 189.5 -114.499023438 c 0
 198.5 -105.499023438 210 -100.999023438 224 -100.999023438 c 0
 238 -100.999023438 249 -105.33203125 257 -113.999023438 c 0
 265 -122.666015625 269 -133.333007812 269 -146 c 0
 269 -160.666992188 265 -172.333984375 257 -181.000976562 c 0
 249 -189.66796875 238 -194.000976562 224 -194.000976562 c 0
96.9990234375 -62 m 0
 120.999023438 -62 142.500976562 -68.6630859375 161.500976562 -81.99609375 c 0
 180.500976562 -95.3291015625 190.333984375 -117.329101562 191.000976562 -147.99609375 c 0
 191.66796875 -180.663085938 181.500976562 -208.830078125 160.500976562 -232.497070312 c 0
 139.500976562 -256.1640625 112.66796875 -273.331054688 80.0009765625 -283.998046875 c 1
 70.0009765625 -276.665039062 67.333984375 -268.998046875 72.0009765625 -260.998046875 c 1
 121.333984375 -240.331054688 145.666992188 -211.998046875 145 -175.998046875 c 0xe8
 144.333007812 -157.998046875 137.166015625 -144.831054688 123.499023438 -136.498046875 c 0
 109.83203125 -128.165039062 93.9990234375 -126.33203125 75.9990234375 -130.999023438 c 1
 57.9990234375 -129.666015625 48.666015625 -120.666015625 47.9990234375 -103.999023438 c 0
 47.9990234375 -92.666015625 51.666015625 -82.8330078125 58.9990234375 -74.5 c 0
 66.33203125 -66.1669921875 78.9990234375 -62 96.9990234375 -62 c 0
124 -97 m 256
 148.666666667 -97 169.333333333 -105 186 -121 c 128
 202.666666667 -137 211 -158 211 -184 c 0
 211 -208 202.333333333 -228.333333333 185 -245 c 128
 167.666666667 -261.666666667 147.333333333 -270 124 -270 c 256
 100.666666667 -270 80.3333333333 -261.333333333 63 -244 c 128
 45.6666666667 -226.666666667 37 -206.666666667 37 -184 c 0
 37 -159.333333333 45.3333333333 -138.666666667 62 -122 c 128
 78.6666666667 -105.333333333 99.3333333333 -97 124 -97 c 256
124 -125 m 256
 107.333333333 -125 93.3333333333 -130.666666667 82 -142 c 128
 70.6666666667 -153.333333333 65 -167.333333333 65 -184 c 0
 65 -199.333333333 71 -213 83 -225 c 128
 95 -237 108.666666667 -243 124 -243 c 256
 139.333333333 -243 153 -237.333333333 165 -226 c 128
 177 -214.666666667 183 -200.666666667 183 -184 c 0
 183 -166 177.333333333 -151.666666667 166 -141 c 128
 154.666666667 -130.333333333 140.666666667 -125 124 -125 c 256
88 600 m 2
 88 620.666666667 83.8333333333 633.5 75.5 638.5 c 128
 67.1666666667 643.5 51.3333333333 646.666666667 28 648 c 2
 10 649 l 1
 8 652.333333333 7 656.166666667 7 660.5 c 128
 7 664.833333333 8.33333333333 667.666666667 11 669 c 0
 58.3333333333 685.666666667 104.333333333 706 149 730 c 1
 163 727.333333333 170 724.333333333 170 721 c 2
 162 624 l 1
 162 111 l 2
 162 75 164 52.1666666667 168 42.5 c 128
 172 32.8333333333 182.666666667 27 200 25 c 2
 232 22 l 2
 236 20 237.666666667 15.8333333333 237 9.5 c 128
 236.333333333 3.16666666667 234 -1 230 -3 c 0
 189.333333333 -1 154.333333333 0 125 0 c 0
 93.6666666667 0 59 -1 21 -3 c 1
 17 -0.333333333333 14.6666666667 3.83333333333 14 9.5 c 128
 13.3333333333 15.1666666667 15 19.3333333333 19 22 c 2
 50 25 l 2
 68 27 78.8333333333 32.5 82.5 41.5 c 128
 86.1666666667 50.5 88 73.6666666667 88 111 c 2
 88 600 l 2
124 -97 m 256
 148.666666667 -97 169.333333333 -105 186 -121 c 128
 202.666666667 -137 211 -158 211 -184 c 0
 211 -208 202.333333333 -228.333333333 185 -245 c 128
 167.666666667 -261.666666667 147.333333333 -270 124 -270 c 256
 100.666666667 -270 80.3333333333 -261.333333333 63 -244 c 128
 45.6666666667 -226.666666667 37 -206.666666667 37 -184 c 0
 37 -159.333333333 45.3333333333 -138.666666667 62 -122 c 128
 78.6666666667 -105.333333333 99.3333333333 -97 124 -97 c 256
124 -125 m 256
 107.333333333 -125 93.3333333333 -130.666666667 82 -142 c 128
 70.6666666667 -153.333333333 65 -167.333333333 65 -184 c 0
 65 -199.333333333 71 -213 83 -225 c 128
 95 -237 108.666666667 -243 124 -243 c 256
 139.333333333 -243 153 -237.333333333 165 -226 c 128
 177 -214.666666667 183 -200.666666667 183 -184 c 0
 183 -166 177.333333333 -151.666666667 166 -141 c 128
 154.666666667 -130.333333333 140.666666667 -125 124 -125 c 256
88 600 m 2
 88 620.666666667 83.8333333333 633.5 75.5 638.5 c 128
 67.1666666667 643.5 51.3333333333 646.666666667 28 648 c 2
 10 649 l 1
 8 652.333333333 7 656.166666667 7 660.5 c 128
 7 664.833333333 8.33333333333 667.666666667 11 669 c 0
 58.3333333333 685.666666667 104.333333333 706 149 730 c 1
 163 727.333333333 170 724.333333333 170 721 c 2
 162 624 l 1
 162 111 l 2
 162 75 164 52.1666666667 168 42.5 c 128
 172 32.8333333333 182.666666667 27 200 25 c 2
 232 22 l 2
 236 20 237.666666667 15.8333333333 237 9.5 c 128
 236.333333333 3.16666666667 234 -1 230 -3 c 0
 189.333333333 -1 154.333333333 0 125 0 c 0
 93.6666666667 0 59 -1 21 -3 c 1
 17 -0.333333333333 14.6666666667 3.83333333333 14 9.5 c 128
 13.3333333333 15.1666666667 15 19.3333333333 19 22 c 2
 50 25 l 2
 68 27 78.8333333333 32.5 82.5 41.5 c 128
 86.1666666667 50.5 88 73.6666666667 88 111 c 2
 88 600 l 2
EndSplineSet
Fore
SplineSet
88 600 m 2
 88 636.520507812 79.4287109375 645.060546875 28.0009765625 647.999023438 c 2
 10.0009765625 648.999023438 l 1
 8.0009765625 652.33203125 7.0009765625 656.165039062 7.0009765625 660.498046875 c 0
 7.0009765625 664.831054688 8.333984375 667.6640625 11.0009765625 668.997070312 c 0
 58.333984375 685.6640625 104.333984375 705.997070312 149.000976562 729.997070312 c 1
 163.000976562 727.330078125 170.000976562 724.330078125 170.000976562 720.997070312 c 2
 162.000976562 623.997070312 l 1
 162.000976562 110.997070312 l 2
 162.000976562 38.3125 167.416015625 28.7568359375 200.000976562 24.9970703125 c 2
 232.000976562 21.9970703125 l 1
 240.365234375 17.8154296875 238.034179688 1.013671875 230.000976562 -3.0029296875 c 1
 189.333984375 -1.0029296875 154.333984375 -0.0029296875 125.000976562 -0.0029296875 c 0
 93.66796875 -0.0029296875 59.0009765625 -1.0029296875 21.0009765625 -3.0029296875 c 1
 13.2119140625 2.1904296875 10.533203125 16.353515625 19 21.9990234375 c 1
 50 24.9990234375 l 2
 83.6689453125 28.740234375 88 35.931640625 88 111 c 2
 88 600 l 2
EndSplineSet
Validated: 524289
EndChar

StartChar: m
Encoding: 60 109 54
Width: 802
GlyphClass: 2
Flags: W
HStem: -3.00488 25.002<24.382 60.002 210.003 239.711 295.38 325 475.001 507.709 560.381 590.001 740.002 775.71> 355.998 16<39.0107 70.8279> 358.996 47.9951<231.907 335.475 497.567 599.642>
VStem: 98.002 74.001<28.7162 330.408> 363 74.001<28.4822 331.289> 628.001 74.001<28.4802 330.569>
AnchorPoint: "below" 399 -184 basechar 0
AnchorPoint: "above" 397 579 basechar 0
LayerCount: 3
Back
SplineSet
376 -270 m 1
 376 -65 l 1
 426 -65 l 1
 426 -270 l 1
 376 -270 l 1
172 367 m 2
 172 359.666666667 175.666666667 356 183 356 c 1
 231 390 275.333333333 407 316 407 c 0
 358.666666667 407 394 387.666666667 422 349 c 1
 428.666666667 347 437 349.333333333 447 356 c 0
 495.666666667 390 541 407 583 407 c 0
 621.666666667 407 651.166666667 395.5 671.5 372.5 c 128
 691.833333333 349.5 702 320 702 284 c 2
 702 111 l 2
 702 75 704 52.1666666667 708 42.5 c 128
 712 32.8333333333 722.666666667 27 740 25 c 2
 772 22 l 2
 776 20 777.666666667 15.8333333333 777 9.5 c 128
 776.333333333 3.16666666667 774 -1 770 -3 c 0
 729.333333333 -1 694.333333333 0 665 0 c 0
 635 0 602 -1 566 -3 c 1
 562 -0.333333333333 559.666666667 3.83333333333 559 9.5 c 128
 558.333333333 15.1666666667 560 19.3333333333 564 22 c 2
 590 25 l 2
 608 27.6666666667 618.833333333 33.3333333333 622.5 42 c 128
 626.166666667 50.6666666667 628 73.6666666667 628 111 c 2
 628 256 l 2
 628 324.666666667 597 359 535 359 c 0
 497.666666667 359 470 347.333333333 452 324 c 0
 442 311.333333333 437 291.666666667 437 265 c 2
 437 111 l 2
 437 75 439 52.1666666667 443 42.5 c 128
 447 32.8333333333 457.666666667 27 475 25 c 2
 504 22 l 2
 508 20 509.666666667 15.8333333333 509 9.5 c 128
 508.333333333 3.16666666667 506 -1 502 -3 c 0
 464 -1 430 0 400 0 c 256
 370 0 337 -1 301 -3 c 1
 297 -0.333333333333 294.666666667 3.83333333333 294 9.5 c 128
 293.333333333 15.1666666667 295 19.3333333333 299 22 c 2
 325 25 l 2
 343 27.6666666667 353.833333333 33.3333333333 357.5 42 c 128
 361.166666667 50.6666666667 363 73.6666666667 363 111 c 2
 363 256 l 2
 363 324.666666667 332.333333333 359 271 359 c 0
 235 359 207 347 187 323 c 0
 177 311 172 292.333333333 172 267 c 2
 172 111 l 2
 172 84.3333333333 172.666666667 65.8333333333 174 55.5 c 128
 175.333333333 45.1666666667 178.5 38 183.5 34 c 128
 188.5 30 197.333333333 27 210 25 c 2
 236 22 l 2
 240 20 241.666666667 15.8333333333 241 9.5 c 128
 240.333333333 3.16666666667 238 -1 234 -3 c 0
 199.333333333 -1 166.333333333 0 135 0 c 0
 104.333333333 0 69.3333333333 -1 30 -3 c 1
 26 -0.333333333333 23.6666666667 3.83333333333 23 9.5 c 128
 22.3333333333 15.1666666667 24 19.3333333333 28 22 c 2
 60 25 l 2
 78 27 88.8333333333 32.5 92.5 41.5 c 128
 96.1666666667 50.5 98 73.6666666667 98 111 c 2
 98 287 l 2
 98 313 95.6666666667 329.333333333 91 336 c 128
 86.3333333333 342.666666667 73 348.666666667 51 354 c 2
 42 356 l 2
 40 358 39 360.833333333 39 364.5 c 128
 39 368.166666667 40.3333333333 370.666666667 43 372 c 0
 97 380.666666667 137.333333333 400.333333333 164 431 c 1
 169.333333333 429.666666667 172 427.333333333 172 424 c 2
 172 367 l 2
397 666 m 256
 421.666666667 666 442.333333333 657.666666667 459 641 c 128
 475.666666667 624.333333333 484 603.666666667 484 579 c 0
 484 553.666666667 475.333333333 532.666666667 458 516 c 128
 440.666666667 499.333333333 420.333333333 491 397 491 c 256
 373.666666667 491 353.333333333 499.666666667 336 517 c 128
 318.666666667 534.333333333 310 555 310 579 c 0
 310 602.333333333 318.333333333 622.666666667 335 640 c 128
 351.666666667 657.333333333 372.333333333 666 397 666 c 256
397 637 m 256
 380.333333333 637 366.333333333 631.333333333 355 620 c 128
 343.666666667 608.666666667 338 595 338 579 c 0
 338 563.666666667 344 550 356 538 c 128
 368 526 381.666666667 520 397 520 c 256
 412.333333333 520 426 525.666666667 438 537 c 128
 450 548.333333333 456 562.333333333 456 579 c 0
 456 596.333333333 450.333333333 610.333333333 439 621 c 128
 427.666666667 631.666666667 413.666666667 637 397 637 c 256
393 607 m 0
 431.666666667 607 461.5 596.833333333 482.5 576.5 c 128
 503.5 556.166666667 517 521.333333333 523 472 c 1
 517 466.666666667 510.666666667 466.666666667 504 472 c 1
 496.666666667 501.333333333 484.833333333 522 468.5 534 c 128
 452.166666667 546 427.333333333 552 394 552 c 0
 361.333333333 552 337.666666667 546 323 534 c 128
 308.333333333 522 294.666666667 501.333333333 282 472 c 1
 276 466.666666667 269.666666667 466.666666667 263 472 c 1
 279.666666667 562 323 607 393 607 c 0
172 367 m 2
 172 359.666666667 175.666666667 356 183 356 c 1
 231 390 275.333333333 407 316 407 c 0
 358.666666667 407 394 387.666666667 422 349 c 1
 428.666666667 347 437 349.333333333 447 356 c 0
 495.666666667 390 541 407 583 407 c 0
 621.666666667 407 651.166666667 395.5 671.5 372.5 c 128
 691.833333333 349.5 702 320 702 284 c 2
 702 111 l 2
 702 75 704 52.1666666667 708 42.5 c 128
 712 32.8333333333 722.666666667 27 740 25 c 2
 772 22 l 2
 776 20 777.666666667 15.8333333333 777 9.5 c 128
 776.333333333 3.16666666667 774 -1 770 -3 c 0
 729.333333333 -1 694.333333333 0 665 0 c 0
 635 0 602 -1 566 -3 c 1
 562 -0.333333333333 559.666666667 3.83333333333 559 9.5 c 128
 558.333333333 15.1666666667 560 19.3333333333 564 22 c 2
 590 25 l 2
 608 27.6666666667 618.833333333 33.3333333333 622.5 42 c 128
 626.166666667 50.6666666667 628 73.6666666667 628 111 c 2
 628 256 l 2
 628 324.666666667 597 359 535 359 c 0
 497.666666667 359 470 347.333333333 452 324 c 0
 442 311.333333333 437 291.666666667 437 265 c 2
 437 111 l 2
 437 75 439 52.1666666667 443 42.5 c 128
 447 32.8333333333 457.666666667 27 475 25 c 2
 504 22 l 2
 508 20 509.666666667 15.8333333333 509 9.5 c 128
 508.333333333 3.16666666667 506 -1 502 -3 c 0
 464 -1 430 0 400 0 c 256
 370 0 337 -1 301 -3 c 1
 297 -0.333333333333 294.666666667 3.83333333333 294 9.5 c 128
 293.333333333 15.1666666667 295 19.3333333333 299 22 c 2
 325 25 l 2
 343 27.6666666667 353.833333333 33.3333333333 357.5 42 c 128
 361.166666667 50.6666666667 363 73.6666666667 363 111 c 2
 363 256 l 2
 363 324.666666667 332.333333333 359 271 359 c 0
 235 359 207 347 187 323 c 0
 177 311 172 292.333333333 172 267 c 2
 172 111 l 2
 172 84.3333333333 172.666666667 65.8333333333 174 55.5 c 128
 175.333333333 45.1666666667 178.5 38 183.5 34 c 128
 188.5 30 197.333333333 27 210 25 c 2
 236 22 l 2
 240 20 241.666666667 15.8333333333 241 9.5 c 128
 240.333333333 3.16666666667 238 -1 234 -3 c 0
 199.333333333 -1 166.333333333 0 135 0 c 0
 104.333333333 0 69.3333333333 -1 30 -3 c 1
 26 -0.333333333333 23.6666666667 3.83333333333 23 9.5 c 128
 22.3333333333 15.1666666667 24 19.3333333333 28 22 c 2
 60 25 l 2
 78 27 88.8333333333 32.5 92.5 41.5 c 128
 96.1666666667 50.5 98 73.6666666667 98 111 c 2
 98 287 l 2
 98 313 95.6666666667 329.333333333 91 336 c 128
 86.3333333333 342.666666667 73 348.666666667 51 354 c 2
 42 356 l 2
 40 358 39 360.833333333 39 364.5 c 128
 39 368.166666667 40.3333333333 370.666666667 43 372 c 0
 97 380.666666667 137.333333333 400.333333333 164 431 c 1
 169.333333333 429.666666667 172 427.333333333 172 424 c 2
 172 367 l 2
376 -270 m 1
 376 -65 l 1
 426 -65 l 1
 426 -270 l 1
 376 -270 l 1
172 367 m 2
 172 359.666992188 175.666992188 355.991210938 183 355.991210938 c 1
 231 389.991210938 275.333007812 406.991210938 316 406.991210938 c 0
 358.666992188 406.991210938 394 387.658203125 422 348.991210938 c 1
 428.666992188 346.991210938 437 349.32421875 447 355.991210938 c 0
 495.666992188 389.991210938 541 406.991210938 583 406.991210938 c 0
 621.666992188 406.991210938 651.166992188 395.491210938 671.5 372.491210938 c 0
 691.833007812 349.491210938 702 319.991210938 702 283.991210938 c 2
 702 110.991210938 l 2
 702 74.9912109375 704 52.158203125 708 42.4912109375 c 0
 712 32.82421875 722.666992188 26.9912109375 740 24.9912109375 c 2
 772 21.9912109375 l 2
 776 19.9912109375 777.666992188 15.82421875 777 9.4912109375 c 0
 776.333007812 3.158203125 774 -1.0087890625 770 -3.0087890625 c 0
 729.333007812 -1.0087890625 694.333007812 -0.0087890625 665 -0.0087890625 c 0
 635 -0.0087890625 602 -1.0087890625 566 -3.0087890625 c 0
 562 -0.341796875 559.666992188 3.8251953125 559 9.4921875 c 0
 558.333007812 15.1591796875 560 19.326171875 564 21.9931640625 c 2
 590 24.9931640625 l 2
 608 27.66015625 618.833007812 33.3271484375 622.5 41.994140625 c 0
 626.166992188 50.6611328125 628 73.6611328125 628 110.994140625 c 2
 628 255.994140625 l 2
 628 324.661132812 597 358.994140625 535 358.994140625 c 0
 497.666992188 358.994140625 470 347.327148438 452 323.994140625 c 0
 442 311.327148438 437 291.66015625 437 264.993164062 c 2
 437 110.993164062 l 2
 437 74.9931640625 439 52.16015625 443 42.4931640625 c 0
 447 32.826171875 457.666992188 26.9931640625 475 24.9931640625 c 2
 504 21.9931640625 l 2
 508 19.9931640625 509.666992188 15.826171875 509 9.4931640625 c 0
 508.333007812 3.16015625 506 -1.0068359375 502 -3.0068359375 c 0
 464 -1.0068359375 430 -0.0068359375 400 -0.0068359375 c 0
 370 -0.0068359375 337 -1.0068359375 301 -3.0068359375 c 0
 297 -0.33984375 294.666992188 3.8271484375 294 9.494140625 c 0
 293.333007812 15.1611328125 295 19.328125 299 21.9951171875 c 2
 325 24.9951171875 l 2
 343 27.662109375 353.833007812 33.3291015625 357.5 41.99609375 c 0
 361.166992188 50.6630859375 363 73.6630859375 363 110.99609375 c 2
 363 255.99609375 l 2
 363 324.663085938 332.333007812 358.99609375 271 358.99609375 c 0
 235 358.99609375 207 346.99609375 187 322.99609375 c 0
 177 310.99609375 172 292.329101562 172 266.99609375 c 2
 172 110.99609375 l 2
 172 84.3291015625 172.666992188 65.8291015625 174 55.49609375 c 0
 175.333007812 45.1630859375 178.5 37.99609375 183.5 33.99609375 c 0
 188.5 29.99609375 197.333007812 26.99609375 210 24.99609375 c 2
 236 21.99609375 l 2
 240 19.99609375 241.666992188 15.8291015625 241 9.49609375 c 0
 240.333007812 3.1630859375 238 -1.00390625 234 -3.00390625 c 0
 199.333007812 -1.00390625 166.333007812 -0.00390625 135 -0.00390625 c 0
 104.333007812 -0.00390625 69.3330078125 -1.00390625 30 -3.00390625 c 0
 26 -0.3369140625 23.6669921875 3.830078125 23 9.4970703125 c 0
 22.3330078125 15.1640625 24 19.3310546875 28 21.998046875 c 2
 60 24.998046875 l 2
 78 26.998046875 88.8330078125 32.498046875 92.5 41.498046875 c 0
 96.1669921875 50.498046875 98 73.6650390625 98 110.998046875 c 2
 98 286.998046875 l 2
 98 312.998046875 95.6669921875 329.331054688 91 335.998046875 c 0
 86.3330078125 342.665039062 73 348.665039062 51 353.998046875 c 2
 42 355.998046875 l 2
 40 357.998046875 39 360.831054688 39 364.498046875 c 0
 39 368.165039062 40.3330078125 370.665039062 43 371.998046875 c 0
 97 380.665039062 137.333007812 400.33203125 164 430.999023438 c 1
 169.333007812 429.666015625 172 427.333007812 172 424 c 2
 172 367 l 2
379 680.991210938 m 0
 403 680.991210938 424.5 674.325195312 443.5 660.9921875 c 0
 462.5 647.659179688 472.333007812 625.659179688 473 594.9921875 c 0
 473.666992188 562.325195312 463.833984375 534.325195312 443.500976562 510.9921875 c 0
 423.16796875 487.659179688 396.000976562 470.659179688 362.000976562 459.9921875 c 1
 351.333984375 466.659179688 348.666992188 473.9921875 354 481.9921875 c 1
 403.333007812 503.9921875 427.666015625 532.325195312 426.999023438 566.9921875 c 0
 425.666015625 586.325195312 418.333007812 599.825195312 405 607.4921875 c 0
 391.666992188 615.159179688 376 616.659179688 358 611.9921875 c 1
 340 613.325195312 330.666992188 622.325195312 330 638.9921875 c 0
 330 650.325195312 333.666992188 660.158203125 341 668.491210938 c 0
 348.333007812 676.82421875 361 680.991210938 379 680.991210938 c 0
400 -97 m 256
 424.666666667 -97 445.333333333 -105 462 -121 c 128
 478.666666667 -137 487 -158 487 -184 c 0
 487 -208 478.333333333 -228.333333333 461 -245 c 128
 443.666666667 -261.666666667 423.333333333 -270 400 -270 c 256
 376.666666667 -270 356.333333333 -261.333333333 339 -244 c 128
 321.666666667 -226.666666667 313 -206.666666667 313 -184 c 0
 313 -159.333333333 321.333333333 -138.666666667 338 -122 c 128
 354.666666667 -105.333333333 375.333333333 -97 400 -97 c 256
400 -125 m 256
 383.333333333 -125 369.333333333 -130.666666667 358 -142 c 128
 346.666666667 -153.333333333 341 -167.333333333 341 -184 c 0
 341 -199.333333333 347 -213 359 -225 c 128
 371 -237 384.666666667 -243 400 -243 c 256
 415.333333333 -243 429 -237.333333333 441 -226 c 128
 453 -214.666666667 459 -200.666666667 459 -184 c 0
 459 -166 453.333333333 -151.666666667 442 -141 c 128
 430.666666667 -130.333333333 416.666666667 -125 400 -125 c 256
172 367 m 2
 172 359.666666667 175.666666667 356 183 356 c 1
 231 390 275.333333333 407 316 407 c 0
 358.666666667 407 394 387.666666667 422 349 c 1
 428.666666667 347 437 349.333333333 447 356 c 0
 495.666666667 390 541 407 583 407 c 0
 621.666666667 407 651.166666667 395.5 671.5 372.5 c 128
 691.833333333 349.5 702 320 702 284 c 2
 702 111 l 2
 702 75 704 52.1666666667 708 42.5 c 128
 712 32.8333333333 722.666666667 27 740 25 c 2
 772 22 l 2
 776 20 777.666666667 15.8333333333 777 9.5 c 128
 776.333333333 3.16666666667 774 -1 770 -3 c 0
 729.333333333 -1 694.333333333 0 665 0 c 0
 635 0 602 -1 566 -3 c 1
 562 -0.333333333333 559.666666667 3.83333333333 559 9.5 c 128
 558.333333333 15.1666666667 560 19.3333333333 564 22 c 2
 590 25 l 2
 608 27.6666666667 618.833333333 33.3333333333 622.5 42 c 128
 626.166666667 50.6666666667 628 73.6666666667 628 111 c 2
 628 256 l 2
 628 324.666666667 597 359 535 359 c 0
 497.666666667 359 470 347.333333333 452 324 c 0
 442 311.333333333 437 291.666666667 437 265 c 2
 437 111 l 2
 437 75 439 52.1666666667 443 42.5 c 128
 447 32.8333333333 457.666666667 27 475 25 c 2
 504 22 l 2
 508 20 509.666666667 15.8333333333 509 9.5 c 128
 508.333333333 3.16666666667 506 -1 502 -3 c 0
 464 -1 430 0 400 0 c 256
 370 0 337 -1 301 -3 c 1
 297 -0.333333333333 294.666666667 3.83333333333 294 9.5 c 128
 293.333333333 15.1666666667 295 19.3333333333 299 22 c 2
 325 25 l 2
 343 27.6666666667 353.833333333 33.3333333333 357.5 42 c 128
 361.166666667 50.6666666667 363 73.6666666667 363 111 c 2
 363 256 l 2
 363 324.666666667 332.333333333 359 271 359 c 0
 235 359 207 347 187 323 c 0
 177 311 172 292.333333333 172 267 c 2
 172 111 l 2
 172 84.3333333333 172.666666667 65.8333333333 174 55.5 c 128
 175.333333333 45.1666666667 178.5 38 183.5 34 c 128
 188.5 30 197.333333333 27 210 25 c 2
 236 22 l 2
 240 20 241.666666667 15.8333333333 241 9.5 c 128
 240.333333333 3.16666666667 238 -1 234 -3 c 0
 199.333333333 -1 166.333333333 0 135 0 c 0
 104.333333333 0 69.3333333333 -1 30 -3 c 1
 26 -0.333333333333 23.6666666667 3.83333333333 23 9.5 c 128
 22.3333333333 15.1666666667 24 19.3333333333 28 22 c 2
 60 25 l 2
 78 27 88.8333333333 32.5 92.5 41.5 c 128
 96.1666666667 50.5 98 73.6666666667 98 111 c 2
 98 287 l 2
 98 313 95.6666666667 329.333333333 91 336 c 128
 86.3333333333 342.666666667 73 348.666666667 51 354 c 2
 42 356 l 2
 40 358 39 360.833333333 39 364.5 c 128
 39 368.166666667 40.3333333333 370.666666667 43 372 c 0
 97 380.666666667 137.333333333 400.333333333 164 431 c 1
 169.333333333 429.666666667 172 427.333333333 172 424 c 2
 172 367 l 2
EndSplineSet
Fore
SplineSet
271 358.99609375 m 0xbc
 240.831054688 358.99609375 172.002929688 349.909179688 172.002929688 266.995117188 c 2
 172.002929688 110.995117188 l 2
 172.002929688 37.34765625 174.26171875 30.638671875 210.002929688 24.9951171875 c 1
 236.002929688 21.9951171875 l 1
 244.3671875 17.8134765625 242.036132812 1.01171875 234.002929688 -3.0048828125 c 1
 199.3359375 -1.0048828125 166.3359375 -0.0048828125 135.002929688 -0.0048828125 c 0
 104.3359375 -0.0048828125 69.3359375 -1.0048828125 30.0029296875 -3.0048828125 c 1
 22.2138671875 2.1884765625 19.53515625 16.3515625 28.001953125 21.9970703125 c 1
 60.001953125 24.9970703125 l 2
 93.6708984375 28.73828125 98.001953125 35.9296875 98.001953125 110.998046875 c 2
 98.001953125 286.998046875 l 2
 98.001953125 340.344726562 93.048828125 344.654296875 42.001953125 355.998046875 c 0
 40.001953125 357.998046875 39.001953125 360.831054688 39.001953125 364.498046875 c 0
 39.001953125 368.165039062 40.3349609375 370.665039062 43.001953125 371.998046875 c 0xdc
 97.001953125 380.665039062 137.334960938 400.33203125 164.001953125 430.999023438 c 1
 169.334960938 429.666015625 172.001953125 427.333007812 172.001953125 424 c 2
 172.001953125 367 l 2
 172.001953125 359.666992188 175.668945312 355.991210938 183.001953125 355.991210938 c 1
 231.001953125 389.991210938 275.334960938 406.991210938 316.001953125 406.991210938 c 0
 358.668945312 406.991210938 394.001953125 387.658203125 422.001953125 348.991210938 c 0
 423.151795198 348.646258316 424.374671902 348.482449535 425.671293639 348.482449535 c 0
 450.176319219 348.482449535 501.021388919 406.991210938 583.001953125 406.991210938 c 0
 607.833984375 406.991210938 702.001953125 399.383789062 702.001953125 283.991210938 c 2
 702.001953125 110.991210938 l 2
 702.001953125 38.306640625 707.416992188 28.7509765625 740.001953125 24.9912109375 c 2
 772.001953125 21.9912109375 l 1
 780.366210938 17.8095703125 778.03515625 1.0078125 770.001953125 -3.0087890625 c 1
 729.334960938 -1.0087890625 694.334960938 -0.0087890625 665.001953125 -0.0087890625 c 0
 635.001953125 -0.0087890625 602.001953125 -1.0087890625 566.001953125 -3.0087890625 c 1
 558.212890625 2.1845703125 555.534179688 16.34765625 564.000976562 21.9931640625 c 1
 590.000976562 24.9931640625 l 1
 623.900390625 30.015625 628.000976562 36.65234375 628.000976562 110.994140625 c 2
 628.000976562 255.994140625 l 2
 628.000976562 324.661132812 597.000976562 358.994140625 535.000976562 358.994140625 c 0
 486.184570312 358.994140625 437.000976562 340.306640625 437.000976562 264.993164062 c 2
 437.000976562 110.993164062 l 2
 437.000976562 38.30859375 442.416015625 28.7529296875 475.000976562 24.9931640625 c 2
 504.000976562 21.9931640625 l 1
 512.365234375 17.8115234375 510.034179688 1.009765625 502.000976562 -3.0068359375 c 1
 464.000976562 -1.0068359375 430.000976562 -0.0068359375 400.000976562 -0.0068359375 c 0
 370.000976562 -0.0068359375 337.000976562 -1.0068359375 301.000976562 -3.0068359375 c 1
 293.211914062 2.1865234375 290.533203125 16.349609375 299 21.9951171875 c 1
 325 24.9951171875 l 1
 358.899414062 30.017578125 363 36.654296875 363 110.99609375 c 2
 363 255.99609375 l 2
 363 324.663085938 332.333007812 358.99609375 271 358.99609375 c 0xbc
EndSplineSet
Validated: 1572865
EndChar

StartChar: n
Encoding: 61 110 55
Width: 540
GlyphClass: 2
Flags: W
HStem: -3.00488 25.002<27.3801 60 210.001 239.709 297.38 320 478.001 511.709> 355.998 16<39.0088 70.826> 358.995 47.999<235.434 339.062>
VStem: 98 74.001<28.7162 331.233> 366 74.001<30.2896 328.854>
AnchorPoint: "below" 271 -184 basechar 0
AnchorPoint: "above" 276 579 basechar 0
LayerCount: 3
Back
SplineSet
248 -270 m 5
 248 -65 l 5
 298 -65 l 5
 298 -270 l 5
 248 -270 l 5
172 367 m 6
 172 359.666666667 175.666666667 356 183 356 c 5
 209.666666667 372.666666667 233.666666667 385.333333333 255 394 c 132
 276.333333333 402.666666667 299 407 323 407 c 4
 362.333333333 407 391.666666667 395.666666667 411 373 c 132
 430.333333333 350.333333333 440 320.666666667 440 284 c 6
 440 111 l 6
 440 75 442 52.1666666667 446 42.5 c 132
 450 32.8333333333 460.666666667 27 478 25 c 6
 508 22 l 6
 512 20 513.666666667 15.8333333333 513 9.5 c 132
 512.333333333 3.16666666667 510 -1 506 -3 c 4
 468 -1 434 0 404 0 c 4
 372 0 338.333333333 -1 303 -3 c 5
 299 -0.333333333333 296.666666667 3.83333333333 296 9.5 c 132
 295.333333333 15.1666666667 297 19.3333333333 301 22 c 6
 320 25 l 6
 342 27.6666666667 355.166666667 33.3333333333 359.5 42 c 132
 363.833333333 50.6666666667 366 73.6666666667 366 111 c 6
 366 260 l 6
 366 326 334.666666667 359 272 359 c 4
 232.666666667 359 204.333333333 347.333333333 187 324 c 4
 177 312 172 292.333333333 172 265 c 6
 172 111 l 6
 172 84.3333333333 172.666666667 65.8333333333 174 55.5 c 132
 175.333333333 45.1666666667 178.5 38 183.5 34 c 132
 188.5 30 197.333333333 27 210 25 c 6
 236 22 l 6
 240 20 241.666666667 15.8333333333 241 9.5 c 132
 240.333333333 3.16666666667 238 -1 234 -3 c 4
 199.333333333 -1 166.333333333 0 135 0 c 4
 103 0 69 -1 33 -3 c 5
 29 -0.333333333333 26.6666666667 3.83333333333 26 9.5 c 132
 25.3333333333 15.1666666667 27 19.3333333333 31 22 c 6
 60 25 l 6
 78 27 88.8333333333 32.5 92.5 41.5 c 132
 96.1666666667 50.5 98 73.6666666667 98 111 c 6
 98 287 l 6
 98 313 95.6666666667 329.333333333 91 336 c 132
 86.3333333333 342.666666667 73 348.666666667 51 354 c 6
 42 356 l 6
 40 358 39 360.833333333 39 364.5 c 132
 39 368.166666667 40.3333333333 370.666666667 43 372 c 4
 97 380.666666667 137.333333333 400.333333333 164 431 c 5
 169.333333333 429.666666667 172 427.333333333 172 424 c 6
 172 367 l 6
276 666 m 260
 300.666666667 666 321.333333333 657.666666667 338 641 c 132
 354.666666667 624.333333333 363 603.666666667 363 579 c 4
 363 553.666666667 354.333333333 532.666666667 337 516 c 132
 319.666666667 499.333333333 299.333333333 491 276 491 c 260
 252.666666667 491 232.333333333 499.666666667 215 517 c 132
 197.666666667 534.333333333 189 555 189 579 c 4
 189 602.333333333 197.333333333 622.666666667 214 640 c 132
 230.666666667 657.333333333 251.333333333 666 276 666 c 260
276 637 m 260
 259.333333333 637 245.333333333 631.333333333 234 620 c 132
 222.666666667 608.666666667 217 595 217 579 c 4
 217 563.666666667 223 550 235 538 c 132
 247 526 260.666666667 520 276 520 c 260
 291.333333333 520 305 525.666666667 317 537 c 132
 329 548.333333333 335 562.333333333 335 579 c 4
 335 596.333333333 329.333333333 610.333333333 318 621 c 132
 306.666666667 631.666666667 292.666666667 637 276 637 c 260
248 -270 m 1
 248 -65 l 1
 298 -65 l 1
 298 -270 l 1
 248 -270 l 1
172 367 m 2
 172 359.666992188 175.666992188 355.993164062 183 355.993164062 c 0
 209.666992188 372.66015625 233.666992188 385.327148438 255 393.994140625 c 0
 276.333007812 402.661132812 299 406.994140625 323 406.994140625 c 0
 362.333007812 406.994140625 391.666015625 395.661132812 410.999023438 372.994140625 c 0
 430.33203125 350.327148438 439.999023438 320.66015625 439.999023438 283.993164062 c 2
 439.999023438 110.993164062 l 2
 439.999023438 74.9931640625 441.999023438 52.16015625 445.999023438 42.4931640625 c 0
 449.999023438 32.826171875 460.666015625 26.9931640625 477.999023438 24.9931640625 c 2
 507.999023438 21.9931640625 l 2
 511.999023438 19.9931640625 513.666015625 15.826171875 512.999023438 9.4931640625 c 0
 512.33203125 3.16015625 509.999023438 -1.0068359375 505.999023438 -3.0068359375 c 0
 467.999023438 -1.0068359375 433.999023438 -0.0068359375 403.999023438 -0.0068359375 c 0
 371.999023438 -0.0068359375 338.33203125 -1.0068359375 302.999023438 -3.0068359375 c 0
 298.999023438 -0.33984375 296.666015625 3.8271484375 295.999023438 9.494140625 c 0
 295.33203125 15.1611328125 296.999023438 19.328125 300.999023438 21.9951171875 c 2
 319.999023438 24.9951171875 l 2
 341.999023438 27.662109375 355.166015625 33.3291015625 359.499023438 41.99609375 c 0
 363.83203125 50.6630859375 365.999023438 73.6630859375 365.999023438 110.99609375 c 2
 365.999023438 259.99609375 l 2
 365.999023438 325.99609375 334.666015625 358.99609375 271.999023438 358.99609375 c 0
 232.666015625 358.99609375 204.333007812 347.329101562 187 323.99609375 c 0
 177 311.99609375 172 292.329101562 172 264.99609375 c 2
 172 110.99609375 l 2
 172 84.3291015625 172.666992188 65.8291015625 174 55.49609375 c 0
 175.333007812 45.1630859375 178.5 37.99609375 183.5 33.99609375 c 0
 188.5 29.99609375 197.333007812 26.99609375 210 24.99609375 c 2
 236 21.99609375 l 2
 240 19.99609375 241.666992188 15.8291015625 241 9.49609375 c 0
 240.333007812 3.1630859375 238 -1.00390625 234 -3.00390625 c 0
 199.333007812 -1.00390625 166.333007812 -0.00390625 135 -0.00390625 c 0
 103 -0.00390625 69 -1.00390625 33 -3.00390625 c 0
 29 -0.3369140625 26.6669921875 3.830078125 26 9.4970703125 c 0
 25.3330078125 15.1640625 27 19.3310546875 31 21.998046875 c 2
 60 24.998046875 l 2
 78 26.998046875 88.8330078125 32.498046875 92.5 41.498046875 c 0
 96.1669921875 50.498046875 98 73.6650390625 98 110.998046875 c 2
 98 286.998046875 l 2
 98 312.998046875 95.6669921875 329.331054688 91 335.998046875 c 0
 86.3330078125 342.665039062 73 348.665039062 51 353.998046875 c 2
 42 355.998046875 l 2
 40 357.998046875 39 360.831054688 39 364.498046875 c 0
 39 368.165039062 40.3330078125 370.665039062 43 371.998046875 c 0
 97 380.665039062 137.333007812 400.33203125 164 430.999023438 c 1
 169.333007812 429.666015625 172 427.333007812 172 424 c 2
 172 367 l 2
245 680.993164062 m 0
 269 680.993164062 290.5 674.327148438 309.5 660.994140625 c 0
 328.5 647.661132812 338.333007812 625.661132812 339 594.994140625 c 0
 339.666992188 562.327148438 329.833984375 534.327148438 309.500976562 510.994140625 c 0
 289.16796875 487.661132812 262.000976562 470.661132812 228.000976562 459.994140625 c 1
 217.333984375 466.661132812 214.666992188 473.994140625 220 481.994140625 c 1
 269.333007812 503.994140625 293.666015625 532.327148438 292.999023438 566.994140625 c 0
 291.666015625 586.327148438 284.333007812 599.827148438 271 607.494140625 c 0
 257.666992188 615.161132812 242 616.661132812 224 611.994140625 c 1
 206 613.327148438 196.666992188 622.327148438 196 638.994140625 c 0
 196 650.327148438 199.666992188 660.16015625 207 668.493164062 c 0
 214.333007812 676.826171875 227 680.993164062 245 680.993164062 c 0
183 356 m 1
 209.666666667 372.666666667 233.666666667 385.333333333 255 394 c 128
 276.333333333 402.666666667 299 407 323 407 c 0
 362.333333333 407 391.666666667 395.666666667 411 373 c 128
 430.333333333 350.333333333 440 320.666666667 440 284 c 2
 440 111 l 2
 440 75 442 52.1666666667 446 42.5 c 128
 450 32.8333333333 460.666666667 27 478 25 c 2
 500 22 l 2
 504 20 505.666666667 15.8333333333 505 9.5 c 128
 504.333333333 3.16666666667 502 -1 498 -3 c 0
 468 -1 436.666666667 0 404 0 c 0
 369.333333333 0 338.333333333 -1 311 -3 c 1
 307 -0.333333333333 304.666666667 3.83333333333 304 9.5 c 128
 303.333333333 15.1666666667 305 19.3333333333 309 22 c 2
 328 25 l 2
 346 27.6666666667 356.833333333 33.3333333333 360.5 42 c 128
 364.166666667 50.6666666667 366 73.6666666667 366 111 c 2
 366 260 l 2
 366 326 334.666666667 359 272 359 c 0
 232.666666667 359 204.333333333 347.333333333 187 324 c 0
 177 312 172 292.333333333 172 265 c 2
 172 111 l 2
 172 84.3333333333 172.666666667 65.8333333333 174 55.5 c 128
 175.333333333 45.1666666667 178.5 38 183.5 34 c 128
 188.5 30 197.333333333 27 210 25 c 2
 228 22 l 2
 232 20 233.666666667 15.8333333333 233 9.5 c 128
 232.333333333 3.16666666667 230 -1 226 -3 c 0
 199.333333333 -1 169 0 135 0 c 0
 100.333333333 0 69 -1 41 -3 c 1
 37 -0.333333333333 34.6666666667 3.83333333333 34 9.5 c 128
 33.3333333333 15.1666666667 35 19.3333333333 39 22 c 2
 60 25 l 2
 78 27 88.8333333333 32.5 92.5 41.5 c 128
 96.1666666667 50.5 98 73.6666666667 98 111 c 2
 98 287 l 2
 98 313 95.6666666667 329.333333333 91 336 c 128
 86.3333333333 342.666666667 73 348.666666667 51 354 c 2
 42 356 l 2
 40 358 39 360.833333333 39 364.5 c 128
 39 368.166666667 40.3333333333 370.666666667 43 372 c 0
 97 380.666666667 137.333333333 400.333333333 164 431 c 1
 169.333333333 429.666666667 172 427.333333333 172 424 c 2
 172 367 l 2
 172 359.666666667 175.666666667 356 183 356 c 1
271 -97 m 256
 295.666666667 -97 316.333333333 -105 333 -121 c 128
 349.666666667 -137 358 -158 358 -184 c 0
 358 -208 349.333333333 -228.333333333 332 -245 c 128
 314.666666667 -261.666666667 294.333333333 -270 271 -270 c 256
 247.666666667 -270 227.333333333 -261.333333333 210 -244 c 128
 192.666666667 -226.666666667 184 -206.666666667 184 -184 c 0
 184 -159.333333333 192.333333333 -138.666666667 209 -122 c 128
 225.666666667 -105.333333333 246.333333333 -97 271 -97 c 256
271 -125 m 256
 254.333333333 -125 240.333333333 -130.666666667 229 -142 c 128
 217.666666667 -153.333333333 212 -167.333333333 212 -184 c 0
 212 -199.333333333 218 -213 230 -225 c 128
 242 -237 255.666666667 -243 271 -243 c 256
 286.333333333 -243 300 -237.333333333 312 -226 c 128
 324 -214.666666667 330 -200.666666667 330 -184 c 0
 330 -166 324.333333333 -151.666666667 313 -141 c 128
 301.666666667 -130.333333333 287.666666667 -125 271 -125 c 256
EndSplineSet
Fore
SplineSet
323 406.994140625 m 0xb8
 360.009765625 406.994140625 440.000976562 394.241210938 440.000976562 283.9921875 c 2
 440.000976562 110.9921875 l 2
 440.000976562 38.3076171875 445.416015625 28.751953125 478.000976562 24.9921875 c 2
 508.000976562 21.9921875 l 1
 516.365234375 17.810546875 514.034179688 1.0087890625 506.000976562 -3.0078125 c 1
 468.000976562 -1.0078125 434.000976562 -0.0078125 404.000976562 -0.0078125 c 0
 372.000976562 -0.0078125 338.333984375 -1.0078125 303.000976562 -3.0078125 c 1
 295.211914062 2.185546875 292.533203125 16.3486328125 301 21.994140625 c 1
 320 24.994140625 l 1
 361.401367188 30.0126953125 366 36.6513671875 366 110.995117188 c 2
 366 259.995117188 l 2
 366 325.995117188 334.666992188 358.995117188 272 358.995117188 c 0xb8
 232.666992188 358.995117188 204.333984375 347.328125 187.000976562 323.995117188 c 0
 177.000976562 311.995117188 172.000976562 292.328125 172.000976562 264.995117188 c 2
 172.000976562 110.995117188 l 2
 172.000976562 37.34765625 174.259765625 30.638671875 210.000976562 24.9951171875 c 1
 236.000976562 21.9951171875 l 1
 244.365234375 17.8134765625 242.034179688 1.01171875 234.000976562 -3.0048828125 c 1
 199.333984375 -1.0048828125 166.333984375 -0.0048828125 135.000976562 -0.0048828125 c 0
 103.000976562 -0.0048828125 69.0009765625 -1.0048828125 33.0009765625 -3.0048828125 c 1
 25.2119140625 2.1884765625 22.533203125 16.3515625 31 21.9970703125 c 1
 60 24.9970703125 l 2
 93.6689453125 28.73828125 98 35.9296875 98 110.998046875 c 2
 98 286.998046875 l 2
 98 340.344726562 93.046875 344.654296875 42 355.998046875 c 0
 40 357.998046875 39 360.831054688 39 364.498046875 c 0
 39 368.165039062 40.3330078125 370.665039062 43 371.998046875 c 0xd8
 97 380.665039062 137.333007812 400.33203125 164 430.999023438 c 1
 169.333007812 429.666015625 172 427.333007812 172 424 c 2
 172 367 l 2
 172 359.666992188 175.666992188 355.993164062 183 355.993164062 c 0
 254.7265625 400.822265625 289.420898438 406.994140625 323 406.994140625 c 0xb8
EndSplineSet
Validated: 1572865
EndChar

StartChar: o
Encoding: 62 111 56
Width: 501
GlyphClass: 2
Flags: W
HStem: -15 31<197.207 303.768> 377.001 29.999<185.806 289.123>
VStem: 35.001 85.999<96.3139 288.315> 365.001 86<100.411 295.349>
LayerCount: 3
Back
SplineSet
221 578 m 6
 302 542 l 6
 320 534.666666667 334 535.166666667 344 543.5 c 132
 354 551.833333333 365.666666667 568 379 592 c 4
 381 596 384.166666667 597.666666667 388.5 597 c 132
 392.833333333 596.333333333 395.333333333 593.333333333 396 588 c 4
 398 555.333333333 389.666666667 528.333333333 371 507 c 4
 359.666666667 494.333333333 345.666666667 487 329 485 c 132
 312.333333333 483 296.333333333 484.666666667 281 490 c 6
 202 523 l 6
 174.666666667 535 146.333333333 518.666666667 117 474 c 4
 115 470 111.833333333 469 107.5 471 c 132
 103.166666667 473 100.666666667 475.666666667 100 479 c 4
 97.3333333333 501 110 527.333333333 138 558 c 4
 146 568.666666667 158.166666667 576.333333333 174.5 581 c 132
 190.833333333 585.666666667 206.333333333 584.666666667 221 578 c 6
248 407 m 0
 285.333007812 407 319.500976562 398.333007812 350.500976562 381 c 0
 381.500976562 363.666992188 406.000976562 339.333984375 424.000976562 308.000976562 c 0
 442.000976562 276.66796875 451.000976562 241.000976562 451.000976562 201.000976562 c 0
 451.000976562 138.333984375 431.333984375 86.6669921875 392.000976562 46 c 0
 352.66796875 5.3330078125 302.000976562 -15 240.000976562 -15 c 0
 182.000976562 -15 133.333984375 4.3330078125 94.0009765625 43 c 0
 54.66796875 81.6669921875 35.0009765625 131 35.0009765625 191 c 0
 35.0009765625 233 44.5009765625 270.166992188 63.5009765625 302.5 c 0
 82.5009765625 334.833007812 108.16796875 360.333007812 140.500976562 379 c 0
 172.833984375 397.666992188 208.666992188 407 248 407 c 0
365.000976562 185 m 0
 365.000976562 214.333007812 360.66796875 244.000976562 352.000976562 274.000976562 c 0
 343.333984375 304.000976562 329.166992188 328.66796875 309.5 348.000976562 c 0
 289.833007812 367.333984375 265.333007812 377.000976562 236 377.000976562 c 0
 202 377.000976562 174.333007812 361.833984375 153 331.500976562 c 0
 131.666992188 301.16796875 121 259.000976562 121 205.000976562 c 0
 121 154.333984375 132.333007812 110.166992188 155 72.5 c 0
 177.666992188 34.8330078125 209.333984375 16 250.000976562 16 c 0
 290.66796875 16 320.000976562 32.6669921875 338.000976562 66 c 0
 356.000976562 99.3330078125 365.000976562 139 365.000976562 185 c 0
226.000976562 -61.9990234375 m 0
 250.000976562 -61.9990234375 271.502929688 -68.662109375 290.502929688 -81.9951171875 c 0
 309.502929688 -95.328125 319.3359375 -117.328125 320.002929688 -147.995117188 c 0
 320.669921875 -180.662109375 310.502929688 -208.829101562 289.502929688 -232.49609375 c 0
 268.502929688 -256.163085938 241.669921875 -273.330078125 209.002929688 -283.997070312 c 1
 199.002929688 -276.6640625 196.3359375 -268.997070312 201.002929688 -260.997070312 c 1
 250.3359375 -240.330078125 274.668945312 -211.997070312 274.001953125 -175.997070312 c 0
 273.334960938 -157.997070312 266.16796875 -144.830078125 252.500976562 -136.497070312 c 0
 238.833984375 -128.1640625 223.000976562 -126.331054688 205.000976562 -130.998046875 c 1
 187.000976562 -129.665039062 177.66796875 -120.665039062 177.000976562 -103.998046875 c 0
 177.000976562 -92.6650390625 180.66796875 -82.83203125 188.000976562 -74.4990234375 c 0
 195.333984375 -66.166015625 208.000976562 -61.9990234375 226.000976562 -61.9990234375 c 0
224.002929688 578.004882812 m 2
 305.001953125 542.00390625 l 2
 323.001953125 534.670898438 337.001953125 535.170898438 347.001953125 543.50390625 c 0
 357.001953125 551.836914062 368.668945312 568.00390625 382.001953125 592.00390625 c 0
 384.001953125 596.00390625 387.168945312 597.670898438 391.501953125 597.00390625 c 0
 395.834960938 596.336914062 398.334960938 593.336914062 399.001953125 588.00390625 c 0
 401.001953125 555.336914062 392.668945312 528.336914062 374.001953125 507.00390625 c 0
 362.668945312 494.336914062 348.668945312 487.00390625 332.001953125 485.00390625 c 0
 315.334960938 483.00390625 299.334960938 484.670898438 284.001953125 490.00390625 c 2
 205.001953125 523.00390625 l 2
 177.668945312 535.00390625 149.3359375 518.670898438 120.002929688 474.00390625 c 0
 118.002929688 470.00390625 114.8359375 469.00390625 110.502929688 471.00390625 c 0
 106.169921875 473.00390625 103.669921875 475.670898438 103.002929688 479.00390625 c 0
 100.3359375 501.00390625 113.002929688 527.336914062 141.002929688 558.00390625 c 0
 149.002929688 568.670898438 161.169921875 576.337890625 177.502929688 581.004882812 c 0
 193.8359375 585.671875 209.3359375 584.671875 224.002929688 578.004882812 c 2
223 -62 m 0
 247 -62 268.5 -68.6666666667 287.5 -82 c 0
 306.5 -95.3333333333 316.333333333 -117.333333333 317 -148 c 0
 317.666666667 -180.666666667 307.5 -208.833333333 286.5 -232.5 c 0
 265.5 -256.166666667 238.666666667 -273.333333333 206 -284 c 1
 196 -276.666666667 193.333333333 -269 198 -261 c 1
 247.333333333 -240.333333333 271.666666667 -212 271 -176 c 0
 270.333333333 -158 263.166666667 -144.833333333 249.5 -136.5 c 0
 235.833333333 -128.166666667 220 -126.333333333 202 -131 c 1
 184 -129.666666667 174.666666667 -120.666666667 174 -104 c 0
 174 -92.6666666667 177.666666667 -82.8333333333 185 -74.5 c 0
 192.333333333 -66.1666666667 205 -62 223 -62 c 0
248.000976562 -222.999023438 m 0
 231.333984375 -222.999023438 218 -217.499023438 208 -206.499023438 c 0
 198 -195.499023438 193 -181.666015625 193 -164.999023438 c 0
 193 -146.999023438 198.5 -133.166015625 209.5 -123.499023438 c 0
 220.5 -113.83203125 234.333007812 -108.999023438 251 -108.999023438 c 0
 267.666992188 -108.999023438 281.333984375 -114.33203125 292.000976562 -124.999023438 c 0
 302.66796875 -135.666015625 308.000976562 -148.333007812 308.000976562 -163 c 0
 308.000976562 -180.333007812 302.000976562 -194.666015625 290.000976562 -205.999023438 c 0
 278.000976562 -217.33203125 264.000976562 -222.999023438 248.000976562 -222.999023438 c 0
244.000976562 -59.9990234375 m 1
 374.000976562 -275.999023438 l 1
 110.000976562 -275.999023438 l 1
 244.000976562 -59.9990234375 l 1
243.000976562 -133.999023438 m 1
 170.000976562 -242.999023438 l 1
 314.000976562 -242.999023438 l 1
 243.000976562 -133.999023438 l 1
159.000976562 -193.999023438 m 0
 145.66796875 -193.999023438 134.500976562 -190.166992188 125.500976562 -182.5 c 0
 116.500976562 -174.833007812 112.000976562 -163.666015625 112.000976562 -148.999023438 c 0
 111.333984375 -134.999023438 115.500976562 -123.499023438 124.500976562 -114.499023438 c 0
 133.500976562 -105.499023438 145.000976562 -100.999023438 159.000976562 -100.999023438 c 0
 173.000976562 -100.999023438 184.16796875 -105.499023438 192.500976562 -114.499023438 c 0
 200.833984375 -123.499023438 205.000976562 -133.999023438 205.000976562 -145.999023438 c 0xe8
 205.000976562 -159.999023438 200.833984375 -171.499023438 192.500976562 -180.499023438 c 0
 184.16796875 -189.499023438 173.000976562 -193.999023438 159.000976562 -193.999023438 c 0
347.000976562 -194 m 0
 333.66796875 -194 322.333984375 -190.166015625 313.000976562 -182.499023438 c 0
 303.66796875 -174.83203125 299.000976562 -163.665039062 299.000976562 -148.998046875 c 0
 299.000976562 -134.998046875 303.500976562 -123.498046875 312.500976562 -114.498046875 c 0
 321.500976562 -105.498046875 333.000976562 -100.998046875 347.000976562 -100.998046875 c 0
 361.000976562 -100.998046875 372.000976562 -105.331054688 380.000976562 -113.998046875 c 0
 388.000976562 -122.665039062 392.000976562 -133.33203125 392.000976562 -145.999023438 c 0xe4
 392.000976562 -160.666015625 388.000976562 -172.333007812 380.000976562 -181 c 0
 372.000976562 -189.666992188 361.000976562 -194 347.000976562 -194 c 0
222.000976562 578.000976562 m 2
 303 542 l 2
 321 534.666992188 335 535.166992188 345 543.5 c 0
 355 551.833007812 366.666992188 568 380 592 c 0
 382 596 385.166992188 597.666992188 389.5 597 c 0
 393.833007812 596.333007812 396.333007812 593.333007812 397 588 c 0xe8
 399 555.333007812 390.666992188 528.333007812 372 507 c 0
 360.666992188 494.333007812 346.666992188 487 330 485 c 0
 313.333007812 483 297.333007812 484.666992188 282 490 c 2
 203 523 l 2
 175.666992188 535 147.333984375 518.666992188 118.000976562 474 c 0
 116.000976562 470 112.833984375 469 108.500976562 471 c 0
 104.16796875 473 101.66796875 475.666992188 101.000976562 479 c 0
 98.333984375 501 111.000976562 527.333007812 139.000976562 558 c 0
 147.000976562 568.666992188 159.16796875 576.333984375 175.500976562 581.000976562 c 0
 191.833984375 585.66796875 207.333984375 584.66796875 222.000976562 578.000976562 c 2
247 -97 m 256
 271.666666667 -97 292.333333333 -105 309 -121 c 128
 325.666666667 -137 334 -158 334 -184 c 0
 334 -208 325.333333333 -228.333333333 308 -245 c 128
 290.666666667 -261.666666667 270.333333333 -270 247 -270 c 256
 223.666666667 -270 203.333333333 -261.333333333 186 -244 c 128
 168.666666667 -226.666666667 160 -206.666666667 160 -184 c 0
 160 -159.333333333 168.333333333 -138.666666667 185 -122 c 128
 201.666666667 -105.333333333 222.333333333 -97 247 -97 c 256
247 -125 m 256
 230.333333333 -125 216.333333333 -130.666666667 205 -142 c 128
 193.666666667 -153.333333333 188 -167.333333333 188 -184 c 0
 188 -199.333333333 194 -213 206 -225 c 128
 218 -237 231.666666667 -243 247 -243 c 256
 262.333333333 -243 276 -237.333333333 288 -226 c 128
 300 -214.666666667 306 -200.666666667 306 -184 c 0
 306 -166 300.333333333 -151.666666667 289 -141 c 128
 277.666666667 -130.333333333 263.666666667 -125 247 -125 c 256
214 -104 m 2
 295 -138 l 2
 313 -145.333333333 327 -145 337 -137 c 128
 347 -129 358.666666667 -113 372 -89 c 0
 374 -85.6666666667 377.166666667 -84.3333333333 381.5 -85 c 128
 385.833333333 -85.6666666667 388.333333333 -88.3333333333 389 -93 c 0
 391 -125 382.666666667 -151.666666667 364 -173 c 0
 352 -187 337.333333333 -194.666666667 320 -196 c 128
 302.666666667 -197.333333333 287.333333333 -195.666666667 274 -191 c 2
 195 -157 l 2
 166.333333333 -145.666666667 138 -162.666666667 110 -208 c 0
 108 -210.666666667 105 -211.333333333 101 -210 c 128
 97 -208.666666667 94.3333333333 -206 93 -202 c 0
 90.3333333333 -180.666666667 103 -154.666666667 131 -124 c 0
 139 -113.333333333 151.166666667 -105.666666667 167.5 -101 c 128
 183.833333333 -96.3333333333 199.333333333 -97.3333333333 214 -104 c 2
EndSplineSet
Fore
SplineSet
250.000976562 16 m 0
 354.962890625 16 365.000976562 138.236328125 365.000976562 185 c 0
 365.000976562 254.388671875 338.629882812 377.000976562 236 377.000976562 c 0
 176.3359375 377.000976562 121 325.569335938 121 205.000976562 c 0
 121 126.94140625 153.923828125 16 250.000976562 16 c 0
35.0009765625 191 m 0
 35.0009765625 322.243164062 134.69921875 407 248 407 c 0
 359.469726562 407 451.000976562 325.409179688 451.000976562 201.000976562 c 0
 451.000976562 76.697265625 366.788085938 -15 240.000976562 -15 c 0
 126.877929688 -15 35.0009765625 66.279296875 35.0009765625 191 c 0
EndSplineSet
Validated: 524289
EndChar

StartChar: p
Encoding: 63 112 57
Width: 522
GlyphClass: 2
Flags: W
HStem: -257.005 25.002<14.3801 47 197.001 247.709> -14.0049 33.001<197.553 320.536> 355.998 16<26.0088 57.826> 358.997 47.999<218.269 328.743>
VStem: 85 74.001<-224.084 -11.073 47.9773 339.694> 390.999 81.001<120.79 290.536>
AnchorPoint: "above" 259 574 basechar 0
LayerCount: 3
Back
SplineSet
158 374 m 6
 158 364.666992188 160.666992188 359.997070312 166 359.997070312 c 4
 170 361.997070312 180 367.1640625 196 375.497070312 c 4
 212 383.830078125 230.166992188 391.163085938 250.5 397.49609375 c 4
 270.833007812 403.829101562 289.333007812 406.99609375 306 406.99609375 c 4
 355.333007812 406.99609375 395.333007812 389.663085938 426 354.99609375 c 4
 456.666992188 320.329101562 472 276.99609375 472 224.99609375 c 4
 472 154.99609375 449 97.6630859375 403 52.99609375 c 4
 357 8.3291015625 298.666992188 -14.00390625 228 -14.00390625 c 4
 209.333007812 -14.00390625 191 -13.00390625 173 -11.00390625 c 4
 163.666992188 -12.3369140625 159 -21.3369140625 159 -38.00390625 c 6
 159 -143.00390625 l 6
 159 -169.670898438 159.666992188 -188.00390625 161 -198.00390625 c 4
 162.333007812 -208.00390625 165.5 -215.00390625 170.5 -219.00390625 c 4
 175.5 -223.00390625 184.333007812 -226.00390625 197 -228.00390625 c 6
 244 -232.00390625 l 6
 248 -234.00390625 249.666992188 -238.170898438 249 -244.50390625 c 4
 248.333007812 -250.836914062 246 -255.00390625 242 -257.00390625 c 4
 186 -255.00390625 146 -254.00390625 122 -254.00390625 c 4
 90 -254.00390625 56 -255.00390625 20 -257.00390625 c 4
 16 -254.336914062 13.6669921875 -250.169921875 13 -244.502929688 c 4
 12.3330078125 -238.8359375 14 -234.668945312 18 -232.001953125 c 6
 47 -229.001953125 l 6
 65 -227.001953125 75.8330078125 -221.501953125 79.5 -212.501953125 c 4
 83.1669921875 -203.501953125 85 -180.334960938 85 -143.001953125 c 6
 85 286.998046875 l 6
 85 312.998046875 82.6669921875 329.331054688 78 335.998046875 c 4
 73.3330078125 342.665039062 60 348.665039062 38 353.998046875 c 6
 29 355.998046875 l 6
 27 357.998046875 26 360.831054688 26 364.498046875 c 4
 26 368.165039062 27.3330078125 370.665039062 30 371.998046875 c 4
 84 380.665039062 124.333007812 400.33203125 151 430.999023438 c 5
 156.333007812 429.666015625 159 427.333007812 159 424 c 6
 158 374 l 6
157 271.997070312 m 6
 156.998046875 100.997070312 l 6
 156.998046875 86.330078125 159.498046875 74.9970703125 164.498046875 66.9970703125 c 4
 169.498046875 58.9970703125 177.665039062 50.330078125 188.998046875 40.9970703125 c 4
 208.331054688 26.330078125 232.331054688 18.9970703125 260.998046875 18.9970703125 c 4
 301.665039062 18.9970703125 333.498046875 35.4970703125 356.498046875 68.4970703125 c 4
 379.498046875 101.497070312 390.998046875 144.6640625 390.998046875 197.997070312 c 4
 390.998046875 241.997070312 379.331054688 279.830078125 355.998046875 311.497070312 c 4
 332.665039062 343.1640625 299.33203125 358.997070312 255.999023438 358.997070312 c 4
 216.666015625 358.997070312 188.333007812 349.6640625 171 330.997070312 c 4
 161.666992188 319.6640625 157 299.997070312 157 271.997070312 c 6
246.998046875 497.997070312 m 4
 230.331054688 497.997070312 216.997070312 503.6640625 206.997070312 514.997070312 c 4
 196.997070312 526.330078125 191.997070312 539.997070312 191.997070312 555.997070312 c 4
 191.997070312 573.997070312 197.497070312 587.830078125 208.497070312 597.497070312 c 4
 219.497070312 607.1640625 233.330078125 611.997070312 249.997070312 611.997070312 c 4
 266.6640625 611.997070312 280.331054688 606.6640625 290.998046875 595.997070312 c 4
 301.665039062 585.330078125 306.998046875 572.663085938 306.998046875 557.99609375 c 4
 306.998046875 540.663085938 300.998046875 526.330078125 288.998046875 514.997070312 c 4
 276.998046875 503.6640625 262.998046875 497.997070312 246.998046875 497.997070312 c 4
EndSplineSet
Fore
SplineSet
390.999023438 197.99609375 m 0xdc
 390.999023438 261.01171875 361.301757812 358.997070312 256 358.997070312 c 0
 216.666992188 358.997070312 188.333984375 349.6640625 171.000976562 330.997070312 c 0
 161.66796875 319.6640625 157.000976562 299.997070312 157.000976562 271.997070312 c 2
 156.999023438 100.997070312 l 2
 156.999023438 76.640625 162.110351562 63.1396484375 188.999023438 40.99609375 c 0
 208.33203125 26.3291015625 232.33203125 18.99609375 260.999023438 18.99609375 c 0
 301.666015625 18.99609375 333.499023438 35.49609375 356.499023438 68.49609375 c 0
 379.499023438 101.49609375 390.999023438 144.663085938 390.999023438 197.99609375 c 0xdc
472 224.99609375 m 0
 472 82.119140625 368.4921875 -14.0048828125 228.000976562 -14.0048828125 c 0
 209.333984375 -14.0048828125 191.000976562 -13.0048828125 173.000976562 -11.0048828125 c 0
 163.66796875 -12.337890625 159.000976562 -21.337890625 159.000976562 -38.0048828125 c 2
 159.000976562 -143.004882812 l 2
 159.000976562 -215.249023438 161.040039062 -222.327148438 197.000976562 -228.004882812 c 1
 244.000976562 -232.004882812 l 1
 252.365234375 -236.186523438 250.034179688 -252.98828125 242.000976562 -257.004882812 c 1
 186.000976562 -255.004882812 146.000976562 -254.004882812 122.000976562 -254.004882812 c 0
 90.0009765625 -254.004882812 56.0009765625 -255.004882812 20.0009765625 -257.004882812 c 1
 12.2119140625 -251.811523438 9.533203125 -237.6484375 18 -232.002929688 c 1
 47 -229.002929688 l 2
 80.6689453125 -225.26171875 85 -218.0703125 85 -143.001953125 c 2
 85 286.998046875 l 2
 85 340.344726562 80.046875 344.654296875 29 355.998046875 c 0
 27 357.998046875 26 360.831054688 26 364.498046875 c 0
 26 368.165039062 27.3330078125 370.665039062 30 371.998046875 c 0xec
 84 380.665039062 124.333007812 400.33203125 151 430.999023438 c 1
 156.333007812 429.666015625 159 427.333007812 159 424 c 2
 158 374 l 2
 158 364.666992188 160.666992188 359.997070312 166 359.997070312 c 0
 227.517578125 390.755859375 259.998046875 406.99609375 306 406.99609375 c 0
 409.806640625 406.99609375 472 324.760742188 472 224.99609375 c 0
EndSplineSet
Validated: 1572865
EndChar

StartChar: q
Encoding: 64 113 58
Width: 512
GlyphClass: 2
Flags: W
HStem: -257.003 25.002<268.378 310.998 460.999 501.707> -14 39.998<202.611 330.099> 375.998 31.002<191.871 311.138>
VStem: 34.998 84<112.856 282.315> 350.999 72.002<-223.352 10.9941 33.5556 347.372>
LayerCount: 3
Back
SplineSet
423 277 m 6
 423 -143 l 6
 423 -178.333333333 425 -200.5 429 -209.5 c 132
 433 -218.5 443.666666667 -224.666666667 461 -228 c 6
 498 -232 l 6
 502 -234 503.666666667 -238.166666667 503 -244.5 c 132
 502.333333333 -250.833333333 500 -255 496 -257 c 4
 450 -255 413.333333333 -254 386 -254 c 4
 357.333333333 -254 320 -255 274 -257 c 5
 270 -254.333333333 267.666666667 -250.166666667 267 -244.5 c 132
 266.333333333 -238.833333333 268 -234.666666667 272 -232 c 6
 311 -229 l 6
 329 -227 339.833333333 -221.5 343.5 -212.5 c 132
 347.166666667 -203.5 349 -180.333333333 349 -143 c 6
 349 -13 l 6
 349 3 346 11 340 11 c 5
 311.333333333 -5.66666666667 277.333333333 -14 238 -14 c 4
 171.333333333 -14 120.833333333 6.83333333333 86.5 48.5 c 132
 52.1666666667 90.1666666667 35 134.666666667 35 182 c 4
 35 228.666666667 45.8333333333 269 67.5 303 c 132
 89.1666666667 337 118.333333333 362.833333333 155 380.5 c 132
 191.666666667 398.166666667 231.666666667 407 275 407 c 4
 307 407 334.666666667 403.666666667 358 397 c 4
 375.333333333 392.333333333 387 390 393 390 c 260
 399 390 409.333333333 397.666666667 424 413 c 5
 428.666666667 413 432.333333333 410 435 404 c 5
 427 385.333333333 423 343 423 277 c 6
351 82 m 6
 351 230 l 6
 351 286 348 319.666666667 342 331 c 4
 334.666666667 344.333333333 322.666666667 355.166666667 306 363.5 c 132
 289.333333333 371.833333333 270.666666667 376 250 376 c 4
 211.333333333 376 179.833333333 360.5 155.5 329.5 c 132
 131.166666667 298.5 119 259.666666667 119 213 c 4
 119 158.333333333 133.833333333 113.5 163.5 78.5 c 132
 193.166666667 43.5 231 26 277 26 c 4
 311.666666667 26 333.333333333 31.3333333333 342 42 c 4
 348 49.3333333333 351 62.6666666667 351 82 c 6
277 498 m 4
 260.333333333 498 247 503.666666667 237 515 c 132
 227 526.333333333 222 540 222 556 c 4
 222 574 227.5 587.833333333 238.5 597.5 c 132
 249.5 607.166666667 263.333333333 612 280 612 c 260
 296.666666667 612 310.333333333 606.666666667 321 596 c 132
 331.666666667 585.333333333 337 572.666666667 337 558 c 4
 337 540.666666667 331 526.333333333 319 515 c 132
 307 503.666666667 293 498 277 498 c 4
EndSplineSet
Fore
SplineSet
276.998046875 25.998046875 m 0
 343.864257812 25.998046875 350.999023438 43.4609375 350.999023438 81.9970703125 c 2
 350.999023438 229.999023438 l 2
 350.999023438 324.155273438 346.333984375 343.33203125 305.999023438 363.498046875 c 0
 289.33203125 371.831054688 270.665039062 375.998046875 249.998046875 375.998046875 c 0
 169.631835938 375.998046875 118.998046875 303.904296875 118.998046875 212.998046875 c 0
 118.998046875 101.961914062 185.084960938 25.998046875 276.998046875 25.998046875 c 0
274.999023438 407 m 0
 347.368164062 407 370.533203125 389.999023438 393 389.999023438 c 0
 399 389.999023438 409.333007812 397.666015625 424 412.999023438 c 0
 428.666992188 412.999023438 432.333984375 409.999023438 435.000976562 403.999023438 c 1
 427.000976562 385.33203125 423.000976562 342.999023438 423.000976562 276.999023438 c 2
 422.999023438 -143.002929688 l 2
 422.999023438 -213.010742188 427.9375 -221.645507812 460.999023438 -228.002929688 c 1
 497.999023438 -232.002929688 l 1
 506.36328125 -236.184570312 504.032226562 -252.986328125 495.999023438 -257.002929688 c 1
 449.999023438 -255.002929688 413.33203125 -254.002929688 385.999023438 -254.002929688 c 0
 357.33203125 -254.002929688 319.999023438 -255.002929688 273.999023438 -257.002929688 c 1
 266.209960938 -251.809570312 263.53125 -237.646484375 271.998046875 -232.000976562 c 1
 310.998046875 -229.000976562 l 1
 344.666992188 -225.259765625 348.998046875 -218.068359375 348.998046875 -143 c 2
 348.998046875 -13 l 2
 348.998046875 3 345.998046875 11 339.998046875 11 c 0
 311.331054688 -5.6669921875 277.331054688 -14 237.998046875 -14 c 0
 171.331054688 -14 120.831054688 6.8330078125 86.498046875 48.5 c 0
 52.1650390625 90.1669921875 34.998046875 134.666992188 34.998046875 182 c 0
 34.998046875 332.336914062 152.405273438 407 274.999023438 407 c 0
EndSplineSet
Validated: 524289
EndChar

StartChar: r
Encoding: 65 114 59
Width: 347
GlyphClass: 2
Flags: W
HStem: -3.00391 25.002<12.3775 34.998 194.999 242.707> 347.273 59.7277<181.597 288.406> 355.999 16<22.0068 53.8242>
VStem: 80.998 74<30.3007 334.528>
AnchorPoint: "below" 131 -184 basechar 0
LayerCount: 3
Back
SplineSet
129 -97 m 256
 153.666992188 -97 174.333007812 -105 191 -121 c 128
 207.666992188 -137 216 -158 216 -184 c 0
 216 -208 207.333007812 -228.333007812 190 -245 c 128
 172.666992188 -261.666992188 152.333007812 -270 129 -270 c 256
 105.666992188 -270 85.3330078125 -261.333007812 68 -244 c 128
 50.6669921875 -226.666992188 42 -206.666992188 42 -184 c 0
 42 -159.333007812 50.3330078125 -138.666992188 67 -122 c 128
 83.6669921875 -105.333007812 104.333007812 -97 129 -97 c 256
129 -125 m 256
 112.333007812 -125 98.3330078125 -130.666992188 87 -142 c 128
 75.6669921875 -153.333007812 70 -167.333007812 70 -184 c 0
 70 -199.333007812 76 -213 88 -225 c 128
 100 -237 113.666992188 -243 129 -243 c 256
 144.333007812 -243 158 -237.333007812 170 -226 c 128
 182 -214.666992188 188 -200.666992188 188 -184 c 0
 188 -166 182.333007812 -151.666992188 171 -141 c 128
 159.666992188 -130.333007812 145.666992188 -125 129 -125 c 256
204 347 m 0
 190 345 178 337.333007812 168 324 c 0
 159.333007812 312 155 286.666992188 155 248 c 2
 155 111 l 2
 155 83.6669921875 155.666992188 65 157 55 c 128
 158.333007812 45 161.833007812 37.6669921875 167.5 33 c 128
 173.166992188 28.3330078125 182.333007812 25.6669921875 195 25 c 2
 239 22 l 2
 243 20 244.666992188 15.8330078125 244 9.5 c 128
 243.333007812 3.1669921875 241 -1 237 -3 c 0
 182.333007812 -1 142.666992188 0 118 0 c 0
 85.3330078125 0 52 -1 18 -3 c 1
 14 -0.3330078125 11.6669921875 3.8330078125 11 9.5 c 128
 10.3330078125 15.1669921875 12 19.3330078125 16 22 c 2
 35 25 l 2
 57 27.6669921875 70.1669921875 33.3330078125 74.5 42 c 128
 78.8330078125 50.6669921875 81 73.6669921875 81 111 c 2
 81 287 l 2
 81 313 78.6669921875 329.333007812 74 336 c 128
 69.3330078125 342.666992188 56 348.666992188 34 354 c 2
 25 356 l 2
 23 358 22 360.833007812 22 364.5 c 128
 22 368.166992188 23.3330078125 370.666992188 26 372 c 0
 80 380.666992188 120.333007812 400.333007812 147 431 c 1
 152.333007812 429.666992188 155 427.333007812 155 424 c 2
 155 356 l 2
 155 352 156 349.333007812 158 348 c 0
 186 370 207.5 385.333007812 222.5 394 c 128
 237.5 402.666992188 252.666992188 407 268 407 c 0
 280.666992188 407 291.333007812 403.333007812 300 396 c 128
 308.666992188 388.666992188 313 379 313 367 c 0
 313 351.666992188 308.5 340.166992188 299.5 332.5 c 128
 290.5 324.833007812 280.666992188 321 270 321 c 0
 262.666992188 321 255.333007812 323.666992188 248 329 c 0
 244.666992188 331 241 334 237 338 c 128
 233 342 228.5 344.666992188 223.5 346 c 128
 218.5 347.333007812 212 347.666992188 204 347 c 0
EndSplineSet
Fore
SplineSet
210.284278578 347.273310372 m 0xd0
 154.998046875 347.273310372 154.998046875 278.50231664 154.998046875 247.997070312 c 2
 154.998046875 110.997070312 l 2
 154.998046875 43.0577452177 155.879838993 27.0559505825 194.999023438 24.99609375 c 2
 238.999023438 21.99609375 l 1
 247.363067902 17.8140715178 245.032078489 1.01262127565 236.999023438 -3.00390625 c 1
 182.33203125 -1.00390625 142.665039062 -0.00390625 117.998046875 -0.00390625 c 0
 85.3310546875 -0.00390625 51.998046875 -1.00390625 17.998046875 -3.00390625 c 1
 10.2094122718 2.18915065953 7.53096287887 16.3526351579 15.998046875 21.998046875 c 1
 34.998046875 24.998046875 l 1
 76.3997489742 30.0170476044 80.998046875 36.6553461985 80.998046875 110.999023438 c 2
 80.998046875 286.999023438 l 2
 80.998046875 340.345292726 76.0452111006 344.655209166 24.998046875 355.999023438 c 1
 22.998046875 357.999023438 21.998046875 360.83203125 21.998046875 364.499023438 c 0
 21.998046875 368.166015625 23.3310546875 370.666015625 25.998046875 371.999023438 c 0xb0
 79.998046875 380.666015625 120.331054688 400.333007812 146.998046875 431 c 1
 152.331054688 429.666992188 154.998046875 427.333984375 154.998046875 424.000976562 c 2
 154.998046875 356.000976562 l 2
 154.998046875 352.000976562 155.998046875 349.333984375 157.998046875 348.000976562 c 0
 221.419267551 397.831935665 241.539453611 407.000976562 267.998046875 407.000976562 c 0
 291.50750418 407.000976562 312.999023438 392.875589467 312.999023438 367.000976562 c 0
 312.999023438 324.926142639 277.118864506 321.000976562 269.999023438 321.000976562 c 0
 241.711406503 321.000976562 244.340539454 347.273310372 210.284278578 347.273310372 c 0xd0
EndSplineSet
Validated: 1572865
EndChar

StartChar: s
Encoding: 66 115 60
Width: 328
GlyphClass: 2
Flags: W
HStem: -14.001 29.001<114.021 207.687> 377.999 29.001<124.51 213.03>
VStem: 30.001 23<91.068 121.969> 40.9816 62.0194<276.051 362.554> 229.39 64.8053<32.3365 125.038> 256.002 24<303.253 330.156>
AnchorPoint: "below" 151 -184 basechar 0
LayerCount: 3
Back
SplineSet
136 -270 m 5
 136 -65 l 5
 186 -65 l 5
 186 -270 l 5
 136 -270 l 5
171 407 m 4
 217.666992188 407 247.333007812 400.6640625 260 387.997070312 c 5
 272 364.6640625 278.666992188 338.331054688 280 308.998046875 c 4
 278 305.665039062 274.5 303.33203125 269.5 301.999023438 c 4
 264.5 300.666015625 260 301.999023438 256 305.999023438 c 4
 248 327.999023438 236.166992188 345.499023438 220.5 358.499023438 c 4
 204.833007812 371.499023438 186.666015625 377.999023438 165.999023438 377.999023438 c 4
 146.666015625 377.999023438 131.333007812 372.33203125 120 360.999023438 c 4
 108.666992188 349.666015625 103 334.999023438 103 316.999023438 c 4
 103.666992188 298.999023438 110.833984375 284.499023438 124.500976562 273.499023438 c 4
 138.16796875 262.499023438 159.000976562 249.33203125 187.000976562 233.999023438 c 4
 219.66796875 217.33203125 245.16796875 198.83203125 263.500976562 178.499023438 c 4
 281.833984375 158.166015625 292.000976562 131.999023438 294.000976562 99.9990234375 c 4
 296.000976562 63.9990234375 283.16796875 35.9990234375 255.500976562 15.9990234375 c 4
 227.833984375 -4.0009765625 194.333984375 -14.0009765625 155.000976562 -14.0009765625 c 4
 109.000976562 -14.0009765625 73.0009765625 -4.0009765625 47.0009765625 15.9990234375 c 5
 37.0009765625 36.666015625 31.333984375 70.3330078125 30.0009765625 117 c 4
 33.333984375 120.333007812 37.5009765625 122 42.5009765625 122 c 4
 47.5009765625 122 51.0009765625 120.666992188 53.0009765625 118 c 4
 77.0009765625 49.3330078125 114.000976562 15 164.000976562 15 c 4
 184.000976562 15 200.000976562 20.8330078125 212.000976562 32.5 c 4
 224.000976562 44.1669921875 229.66796875 59.6669921875 229.000976562 79 c 4
 228.333984375 100.333007812 220.166992188 117.833007812 204.5 131.5 c 4
 188.833007812 145.166992188 169.333007812 158 146 170 c 4
 113.333007812 189.333007812 88.3330078125 208 71 226 c 4
 53.6669921875 244 43.6669921875 266.333007812 41 293 c 4
 40.3330078125 329 52 357 76 377 c 4
 100 397 131.666992188 407 171 407 c 4
171 407 m 0xea
 217.666992188 407 247.333007812 400.6640625 260 387.997070312 c 1
 272 364.6640625 278.666992188 338.331054688 280 308.998046875 c 0
 278 305.665039062 274.5 303.33203125 269.5 301.999023438 c 0
 264.5 300.666015625 260 301.999023438 256 305.999023438 c 0
 248 327.999023438 236.166992188 345.499023438 220.5 358.499023438 c 0
 204.833007812 371.499023438 186.666015625 377.999023438 165.999023438 377.999023438 c 0
 146.666015625 377.999023438 131.333007812 372.33203125 120 360.999023438 c 0
 108.666992188 349.666015625 103 334.999023438 103 316.999023438 c 0xea
 103.666992188 298.999023438 110.833984375 284.499023438 124.500976562 273.499023438 c 0
 138.16796875 262.499023438 159.000976562 249.33203125 187.000976562 233.999023438 c 0
 219.66796875 217.33203125 245.16796875 198.83203125 263.500976562 178.499023438 c 0
 281.833984375 158.166015625 292.000976562 131.999023438 294.000976562 99.9990234375 c 0
 296.000976562 63.9990234375 283.16796875 35.9990234375 255.500976562 15.9990234375 c 0
 227.833984375 -4.0009765625 194.333984375 -14.0009765625 155.000976562 -14.0009765625 c 0
 109.000976562 -14.0009765625 73.0009765625 -4.0009765625 47.0009765625 15.9990234375 c 1
 37.0009765625 36.666015625 31.333984375 70.3330078125 30.0009765625 117 c 0
 33.333984375 120.333007812 37.5009765625 122 42.5009765625 122 c 0
 47.5009765625 122 51.0009765625 120.666992188 53.0009765625 118 c 0xf2
 77.0009765625 49.3330078125 114.000976562 15 164.000976562 15 c 0
 184.000976562 15 200.000976562 20.8330078125 212.000976562 32.5 c 0
 224.000976562 44.1669921875 229.66796875 59.6669921875 229.000976562 79 c 0
 228.333984375 100.333007812 220.166992188 117.833007812 204.5 131.5 c 0
 188.833007812 145.166992188 169.333007812 158 146 170 c 0
 113.333007812 189.333007812 88.3330078125 208 71 226 c 0
 53.6669921875 244 43.6669921875 266.333007812 41 293 c 0
 40.3330078125 329 52 357 76 377 c 0
 100 397 131.666992188 407 171 407 c 0xea
155.999023438 -223.002929688 m 0
 139.33203125 -223.002929688 125.998046875 -217.502929688 115.998046875 -206.502929688 c 0
 105.998046875 -195.502929688 100.998046875 -181.669921875 100.998046875 -165.002929688 c 0
 100.998046875 -147.002929688 106.498046875 -133.169921875 117.498046875 -123.502929688 c 0
 128.498046875 -113.8359375 142.331054688 -109.002929688 158.998046875 -109.002929688 c 0
 175.665039062 -109.002929688 189.33203125 -114.3359375 199.999023438 -125.002929688 c 0
 210.666015625 -135.669921875 215.999023438 -148.336914062 215.999023438 -163.00390625 c 0xe6
 215.999023438 -180.336914062 209.999023438 -194.669921875 197.999023438 -206.002929688 c 0
 185.999023438 -217.3359375 171.999023438 -223.002929688 155.999023438 -223.002929688 c 0
EndSplineSet
Fore
SplineSet
103.000976562 316.999023438 m 0xd4
 106.221865817 230.082665609 294.195106441 237.991892167 294.195106441 93.1304937878 c 0
 294.195106441 13.3057904587 213.942868768 -14.0009765625 155.000976562 -14.0009765625 c 0
 109.000976562 -14.0009765625 73.0009765625 -4.0009765625 47.0009765625 15.9990234375 c 1
 37.0009765625 36.666015625 31.333984375 70.3330078125 30.0009765625 117 c 0
 33.333984375 120.333007812 37.5009765625 122 42.5009765625 122 c 0
 47.5009765625 122 51.0009765625 120.666992188 53.0009765625 118 c 0
 77.0009765625 49.3330078125 114.000976562 15 164.000976562 15 c 0
 208.323986602 15 229.389769816 44.8075853396 229.389769816 76.391732459 c 0xe8
 229.389769816 173.777553446 40.9815832415 174.924799485 40.9815832415 300.555700445 c 0
 40.9815832415 353.970563526 81.4993370697 407 171.001953125 407 c 0
 217.668945312 407 247.334960938 400.6640625 260.001953125 387.997070312 c 1
 272.001953125 364.6640625 278.668945312 338.331054688 280.001953125 308.998046875 c 0
 277.12109375 304.196289062 265.467773438 296.533203125 256.001953125 305.999023438 c 1
 248.661132812 326.184570312 224.155273438 377.999023438 166 377.999023438 c 0
 124.765625 377.999023438 103.000976562 350.834960938 103.000976562 316.999023438 c 0xd4
EndSplineSet
Validated: 1572865
EndChar

